<svg width="35" height="35" viewBox="0 0 35 35" fill="none" xmlns="http://www.w3.org/2000/svg">
<path d="M25.342 0H9.63105C4.27748 0 0 4.27748 0 9.63105V25.3689C0 30.6956 4.27748 35 9.63105 35H25.3689C30.6956 35 35 30.7225 35 25.3689V9.63105C34.9731 4.27748 30.6956 0 25.342 0ZM31.9062 23.97C31.9062 28.3282 28.3551 31.9331 23.9431 31.9331H11.03C6.67179 31.9331 3.06687 28.382 3.06687 23.97V11.03C3.06687 6.67179 6.61799 3.06687 11.03 3.06687H24.0238C28.382 3.06687 31.9869 6.61799 31.9869 11.03V23.97H31.9062Z" fill="white"/>
<path d="M23.8623 11.1914L23.7816 11.1107L23.7009 11.03C22.0329 9.36201 19.8 8.44733 17.4864 8.44733C12.5364 8.47423 8.52792 12.5365 8.55482 17.4865C8.55482 19.8808 9.52331 22.1675 11.1913 23.8624C12.8592 25.5572 15.119 26.4988 17.4864 26.4988C22.4634 26.4181 26.4449 22.2482 26.3642 17.2175C26.3104 14.9846 25.4495 12.8055 23.8623 11.1914ZM17.4864 23.432C14.2043 23.4858 11.541 20.8493 11.4872 17.5672C11.4334 14.2851 14.0698 11.6218 17.3519 11.568C20.634 11.5142 23.2973 14.1506 23.3511 17.4327V17.5134C23.3511 20.7148 20.7147 23.3781 17.4864 23.432Z" fill="white"/>
<path d="M29.028 8.04379C29.028 9.2275 28.1133 10.196 26.9296 10.196C26.3646 10.196 25.8266 9.98076 25.45 9.57723C24.616 8.74325 24.616 7.34433 25.5038 6.51036C25.9073 6.10682 26.4185 5.8916 26.9834 5.8916C27.4676 5.8916 27.9519 6.07992 28.3285 6.37584L28.3823 6.42965C28.463 6.48345 28.5168 6.56416 28.5706 6.61797L28.6244 6.67177C28.8397 7.0484 29.028 7.53265 29.028 8.04379Z" fill="white"/>
</svg>
