<svg width="188" height="80" viewBox="0 0 275 153" xmlns="http://www.w3.org/2000/svg">
<path d="M91.32 150.16C90.7333 150.16 90.1627 150.101 89.608 149.984C89.064 149.867 88.5627 149.712 88.104 149.52C87.656 149.317 87.2827 149.093 86.984 148.848L87.864 147.216C88.1733 147.472 88.5253 147.691 88.92 147.872C89.3147 148.053 89.7307 148.192 90.168 148.288C90.616 148.384 91.064 148.432 91.512 148.432C92.056 148.432 92.5307 148.368 92.936 148.24C93.3413 148.112 93.6507 147.931 93.864 147.696C94.088 147.461 94.2 147.179 94.2 146.848C94.2 146.549 94.0987 146.309 93.896 146.128C93.6933 145.936 93.4213 145.781 93.08 145.664C92.7493 145.536 92.3813 145.419 91.976 145.312C91.5813 145.195 91.1813 145.067 90.776 144.928C90.3707 144.779 90.0027 144.597 89.672 144.384C89.3413 144.16 89.0693 143.877 88.856 143.536C88.6533 143.195 88.552 142.768 88.552 142.256C88.552 141.52 88.7547 140.885 89.16 140.352C89.576 139.808 90.1467 139.387 90.872 139.088C91.608 138.789 92.4613 138.64 93.432 138.64C94.1573 138.64 94.8453 138.72 95.496 138.88C96.1467 139.04 96.7067 139.275 97.176 139.584L96.36 141.232C95.944 140.955 95.4747 140.741 94.952 140.592C94.4293 140.443 93.8853 140.368 93.32 140.368C92.7653 140.368 92.2853 140.437 91.88 140.576C91.4747 140.715 91.1653 140.907 90.952 141.152C90.7387 141.397 90.6267 141.685 90.616 142.016C90.616 142.325 90.7173 142.576 90.92 142.768C91.1227 142.949 91.3893 143.104 91.72 143.232C92.0507 143.36 92.4187 143.483 92.824 143.6C93.2293 143.707 93.6293 143.829 94.024 143.968C94.4293 144.107 94.8027 144.283 95.144 144.496C95.4853 144.709 95.7573 144.981 95.96 145.312C96.1627 145.632 96.264 146.037 96.264 146.528C96.264 147.264 96.056 147.904 95.64 148.448C95.2347 148.992 94.6587 149.413 93.912 149.712C93.176 150.011 92.312 150.16 91.32 150.16ZM103.319 150.16C102.188 150.16 101.223 149.957 100.423 149.552C99.6225 149.147 99.0092 148.587 98.5825 147.872C98.1665 147.147 97.9585 146.315 97.9585 145.376C97.9585 144.427 98.1185 143.547 98.4385 142.736C98.7585 141.915 99.2225 141.2 99.8305 140.592C100.439 139.984 101.164 139.509 102.007 139.168C102.849 138.816 103.788 138.64 104.823 138.64C105.943 138.64 106.903 138.843 107.703 139.248C108.503 139.653 109.116 140.219 109.543 140.944C109.969 141.659 110.183 142.485 110.183 143.424C110.183 144.373 110.017 145.259 109.687 146.08C109.367 146.891 108.903 147.6 108.295 148.208C107.687 148.816 106.961 149.296 106.119 149.648C105.287 149.989 104.353 150.16 103.319 150.16ZM103.495 148.336C104.199 148.336 104.833 148.213 105.399 147.968C105.964 147.712 106.444 147.365 106.839 146.928C107.244 146.48 107.553 145.968 107.767 145.392C107.98 144.805 108.087 144.192 108.087 143.552C108.087 142.944 107.953 142.405 107.687 141.936C107.42 141.467 107.031 141.104 106.519 140.848C106.007 140.592 105.377 140.464 104.631 140.464C103.937 140.464 103.303 140.592 102.727 140.848C102.161 141.093 101.676 141.44 101.271 141.888C100.876 142.325 100.572 142.837 100.359 143.424C100.156 144 100.055 144.608 100.055 145.248C100.055 145.856 100.183 146.395 100.439 146.864C100.705 147.333 101.095 147.696 101.607 147.952C102.119 148.208 102.748 148.336 103.495 148.336ZM116.307 150.16C115.251 150.16 114.371 149.952 113.667 149.536C112.963 149.12 112.467 148.539 112.179 147.792C111.902 147.035 111.865 146.144 112.067 145.12L113.331 138.8H115.411L114.147 145.088C114.051 145.632 114.025 146.112 114.067 146.528C114.121 146.933 114.249 147.275 114.451 147.552C114.665 147.819 114.942 148.016 115.283 148.144C115.635 148.272 116.046 148.336 116.515 148.336C117.113 148.336 117.625 148.224 118.051 148C118.489 147.776 118.851 147.424 119.139 146.944C119.438 146.453 119.667 145.829 119.827 145.072L121.075 138.8H123.123L121.843 145.216C121.513 146.859 120.883 148.096 119.955 148.928C119.027 149.749 117.811 150.16 116.307 150.16ZM127.108 150L124.468 138.8H126.612L128.964 148.928H127.636L134.116 138.8H136.276L129.156 150H127.108ZM138.45 143.456H144.034L143.698 145.168H138.114L138.45 143.456ZM137.65 148.256H143.986L143.634 150H135.234L137.474 138.8H145.65L145.298 140.544H139.186L137.65 148.256ZM145.953 150L148.193 138.8H149.905L155.009 147.488L154.353 147.408L156.065 138.8H158.129L155.889 150H154.177L149.089 141.312L149.745 141.392L148.017 150H145.953ZM158.906 150L161.146 138.8H163.226L160.986 150H158.906ZM164.015 150L166.255 138.8H170.607C171.962 138.8 173.007 139.099 173.743 139.696C174.49 140.283 174.863 141.109 174.863 142.176C174.863 143.115 174.645 143.925 174.207 144.608C173.781 145.28 173.167 145.803 172.367 146.176C171.567 146.539 170.618 146.72 169.519 146.72H165.871L166.943 145.776L166.111 150H164.015ZM171.375 150L169.087 145.936H171.295L173.583 150H171.375ZM166.895 146.016L166.191 145.008H169.583C170.597 145.008 171.381 144.784 171.935 144.336C172.49 143.888 172.767 143.232 172.767 142.368C172.767 141.76 172.559 141.307 172.143 141.008C171.738 140.709 171.151 140.56 170.383 140.56H167.119L168.207 139.52L166.895 146.016ZM179.383 150.16C178.796 150.16 178.225 150.101 177.671 149.984C177.127 149.867 176.625 149.712 176.167 149.52C175.719 149.317 175.345 149.093 175.046 148.848L175.927 147.216C176.236 147.472 176.588 147.691 176.983 147.872C177.377 148.053 177.793 148.192 178.231 148.288C178.679 148.384 179.127 148.432 179.575 148.432C180.119 148.432 180.593 148.368 180.999 148.24C181.404 148.112 181.713 147.931 181.927 147.696C182.151 147.461 182.263 147.179 182.263 146.848C182.263 146.549 182.161 146.309 181.959 146.128C181.756 145.936 181.484 145.781 181.143 145.664C180.812 145.536 180.444 145.419 180.039 145.312C179.644 145.195 179.244 145.067 178.839 144.928C178.433 144.779 178.065 144.597 177.735 144.384C177.404 144.16 177.132 143.877 176.919 143.536C176.716 143.195 176.615 142.768 176.615 142.256C176.615 141.52 176.817 140.885 177.223 140.352C177.639 139.808 178.209 139.387 178.935 139.088C179.671 138.789 180.524 138.64 181.495 138.64C182.22 138.64 182.908 138.72 183.559 138.88C184.209 139.04 184.769 139.275 185.239 139.584L184.423 141.232C184.007 140.955 183.537 140.741 183.015 140.592C182.492 140.443 181.948 140.368 181.383 140.368C180.828 140.368 180.348 140.437 179.943 140.576C179.537 140.715 179.228 140.907 179.015 141.152C178.801 141.397 178.689 141.685 178.679 142.016C178.679 142.325 178.78 142.576 178.983 142.768C179.185 142.949 179.452 143.104 179.783 143.232C180.113 143.36 180.481 143.483 180.887 143.6C181.292 143.707 181.692 143.829 182.087 143.968C182.492 144.107 182.865 144.283 183.207 144.496C183.548 144.709 183.82 144.981 184.023 145.312C184.225 145.632 184.327 146.037 184.327 146.528C184.327 147.264 184.119 147.904 183.703 148.448C183.297 148.992 182.721 149.413 181.975 149.712C181.239 150.011 180.375 150.16 179.383 150.16Z"/>
<path d="M83.8582 20.1563C71.7644 32.698 62.8061 38.5209 61.0144 35.3855C58.7748 31.8022 56.9831 31.8022 54.7435 35.8334C52.9519 38.5209 52.9519 42.1043 54.2956 43.448C59.6706 48.8231 46.681 58.2293 37.2748 55.5418C30.556 54.1981 23.3893 57.7814 12.1914 69.4273C-1.6941 83.7606 -4.82952 92.2711 8.60801 79.2815C11.7434 76.146 19.358 70.3231 25.6289 66.2918C35.4831 60.4689 38.6185 60.021 45.3373 64.9481C49.8165 68.5314 52.056 73.0106 50.2644 75.6981C48.9206 78.3856 49.8165 80.6252 52.056 80.6252C54.7435 80.6252 56.9831 78.3856 56.9831 75.6981C56.9831 63.6043 65.9415 78.3856 66.3894 90.9273C66.3894 102.573 69.0769 98.5419 79.8269 69.4273C87.4416 49.7189 95.5041 28.6667 98.1916 22.3959L102.671 11.1979L111.629 22.3959C116.556 28.6667 123.275 33.5938 126.41 33.5938C129.546 33.5938 140.744 44.3439 151.046 56.8856C161.348 69.8752 170.754 80.6252 172.098 80.6252C173.89 80.6252 171.65 77.0419 167.619 72.5627C155.973 59.5731 158.66 58.2293 177.025 67.1877C194.942 76.146 199.421 73.4585 191.358 57.7814C186.431 49.271 187.775 49.7189 203.004 60.9168L220.025 73.9065L207.036 55.9897C194.046 38.073 194.046 38.073 217.786 60.4689C240.629 81.969 241.525 82.4169 238.838 69.8752L235.702 57.3335L254.963 72.1148L274.223 86.8961L254.067 64.9481C231.671 39.4168 227.192 36.7293 227.192 47.0314C227.192 52.8543 225.848 53.3022 217.338 48.8231C211.067 45.2397 209.275 42.5522 212.859 41.2084C215.546 40.3126 218.234 36.2813 218.234 32.2501C217.786 25.5313 217.338 25.5313 213.306 32.698C209.275 39.4168 207.931 39.8647 199.421 34.0418C190.911 27.7709 188.671 28.6667 174.338 39.4168L159.108 51.0626L145.671 34.4897C138.056 25.5313 129.994 19.2605 127.306 21.0521C125.067 22.3959 118.348 18.3646 112.973 12.0938L103.567 -7.71807e-07L83.8582 20.1563Z"/>
<path d="M19.992 123V106.2H23.208L33.12 118.296H31.56V106.2H35.4V123H32.208L22.272 110.904H23.832V123H19.992ZM42.9748 113.76H51.0388V116.88H42.9748V113.76ZM43.2628 123H39.3748V106.2H52.0708V109.32H43.2628V123ZM58.3001 123V109.368H52.9241V106.2H67.5641V109.368H62.1881V123H58.3001ZM75.7089 117.744V114.744H82.5009V117.744H75.7089ZM104.028 106.2H107.916V123H104.028V106.2ZM96.3956 123H92.5076V106.2H96.3956V123ZM104.316 116.112H96.1076V112.824H104.316V116.112ZM109.682 123L117.17 106.2H121.01L128.522 123H124.442L118.298 108.168H119.834L113.666 123H109.682ZM113.426 119.4L114.458 116.448H123.098L124.154 119.4H113.426ZM130.265 123V106.2H133.481L143.393 118.296H141.833V106.2H145.673V123H142.481L132.545 110.904H134.105V123H130.265ZM149.648 123V106.2H157.28C159.104 106.2 160.712 106.552 162.104 107.256C163.496 107.944 164.584 108.912 165.368 110.16C166.152 111.408 166.544 112.888 166.544 114.6C166.544 116.296 166.152 117.776 165.368 119.04C164.584 120.288 163.496 121.264 162.104 121.968C160.712 122.656 159.104 123 157.28 123H149.648ZM153.536 119.808H157.088C158.208 119.808 159.176 119.6 159.992 119.184C160.824 118.752 161.464 118.144 161.912 117.36C162.376 116.576 162.608 115.656 162.608 114.6C162.608 113.528 162.376 112.608 161.912 111.84C161.464 111.056 160.824 110.456 159.992 110.04C159.176 109.608 158.208 109.392 157.088 109.392H153.536V119.808ZM168.803 117.744V114.744H175.595V117.744H168.803ZM178.805 123V106.2H182.021L189.173 118.056H187.469L194.501 106.2H197.693L197.741 123H194.093L194.069 111.792H194.741L189.125 121.224H187.373L181.637 111.792H182.453V123H178.805ZM199.518 123L207.006 106.2H210.846L218.358 123H214.278L208.134 108.168H209.67L203.502 123H199.518ZM203.262 119.4L204.294 116.448H212.934L213.99 119.4H203.262ZM220.101 123V106.2H227.733C229.557 106.2 231.165 106.552 232.557 107.256C233.949 107.944 235.037 108.912 235.821 110.16C236.605 111.408 236.997 112.888 236.997 114.6C236.997 116.296 236.605 117.776 235.821 119.04C235.037 120.288 233.949 121.264 232.557 121.968C231.165 122.656 229.557 123 227.733 123H220.101ZM223.989 119.808H227.541C228.661 119.808 229.629 119.6 230.445 119.184C231.277 118.752 231.917 118.144 232.365 117.36C232.829 116.576 233.061 115.656 233.061 114.6C233.061 113.528 232.829 112.608 232.365 111.84C231.917 111.056 231.277 110.456 230.445 110.04C229.629 109.608 228.661 109.392 227.541 109.392H223.989V119.808ZM243.506 112.968H251.594V115.992H243.506V112.968ZM243.794 119.88H252.938V123H239.93V106.2H252.626V109.32H243.794V119.88Z"/>
<line x1="9" y1="142.5" x2="75" y2="142.5" />
<line x1="9" y1="149.5" x2="75" y2="149.5" />
<line x1="198" y1="142.5" x2="264" y2="142.5" />
<line x1="198" y1="149.5" x2="264" y2="149.5" />
</svg>
