<svg width="60" height="60" viewBox="0 0 60 60" fill="none" xmlns="http://www.w3.org/2000/svg">
<path d="M59 38.9474V37.4245C59.0017 36.7676 58.8796 36.1169 58.6408 35.5101C58.402 34.9032 58.0512 34.3523 57.6087 33.8891L55 31.143V25.0821C55.4646 24.9095 55.8816 24.619 56.2142 24.2363C56.5467 23.8536 56.7846 23.3905 56.9066 22.888C57.0286 22.3856 57.0311 21.8592 56.9138 21.3554C56.7966 20.8517 56.5632 20.3862 56.2342 20C56.7273 19.4216 57 18.6719 57 17.8947C57 17.1176 56.7273 16.3679 56.2342 15.7895C56.7273 15.2111 57 14.4613 57 13.6842C57 12.9071 56.7273 12.1574 56.2342 11.5789C56.5632 11.1928 56.7966 10.7272 56.9138 10.2235C57.0311 9.71978 57.0286 9.19338 56.9066 8.6909C56.7846 8.18842 56.5467 7.72535 56.2142 7.34266C55.8816 6.95997 55.4646 6.66946 55 6.49684V1.05263C55 0.773456 54.8946 0.505715 54.7071 0.308309C54.5196 0.110902 54.2652 0 54 0H42C41.7348 0 41.4804 0.110902 41.2929 0.308309C41.1054 0.505715 41 0.773456 41 1.05263V2.10526H39.5534C38.9293 2.10347 38.3111 2.23198 37.7346 2.48335C37.158 2.73473 36.6346 3.10398 36.1945 3.56974L33.5859 6.31579H20.828C20.664 5.82672 20.388 5.38774 20.0245 5.03769C19.6609 4.68763 19.221 4.43731 18.7436 4.30885C18.2663 4.18039 17.7662 4.17777 17.2877 4.30121C16.8091 4.42466 16.3668 4.67036 16 5.01658C15.4505 4.49759 14.7383 4.21055 14 4.21055C13.2617 4.21055 12.5495 4.49759 12 5.01658C11.4505 4.49759 10.7383 4.21055 10 4.21055C9.26174 4.21055 8.54949 4.49759 8 5.01658C7.63315 4.67036 7.19088 4.42466 6.71234 4.30121C6.23379 4.17777 5.73371 4.18039 5.25636 4.30885C4.779 4.43731 4.33908 4.68763 3.97553 5.03769C3.61197 5.38774 3.33599 5.82672 3.172 6.31579H1C0.734784 6.31579 0.48043 6.42669 0.292893 6.6241C0.105357 6.82151 0 7.08925 0 7.36842V20C0 20.2792 0.105357 20.5469 0.292893 20.7443C0.48043 20.9417 0.734784 21.0526 1 21.0526H3V23.1579C2.99998 23.3213 3.03615 23.4825 3.10563 23.6287L7 31.8275V34.9179C6.53538 35.0905 6.11835 35.381 5.7858 35.7637C5.45325 36.1464 5.21544 36.6095 5.09341 37.112C4.97137 37.6144 4.96888 38.1408 5.08615 38.6446C5.20342 39.1483 5.43684 39.6138 5.76575 40C5.27271 40.5784 5.00002 41.3281 5.00002 42.1053C5.00002 42.8824 5.27271 43.6321 5.76575 44.2105C5.27271 44.7889 5.00002 45.5387 5.00002 46.3158C5.00002 47.0929 5.27271 47.8426 5.76575 48.4211C5.43684 48.8072 5.20342 49.2728 5.08615 49.7765C4.96888 50.2802 4.97137 50.8066 5.09341 51.3091C5.21544 51.8116 5.45325 52.2747 5.7858 52.6573C6.11835 53.04 6.53538 53.3305 7 53.5032V58.9474C7 59.2265 7.10536 59.4943 7.29289 59.6917C7.48043 59.8891 7.73478 60 8 60H20C20.2652 60 20.5196 59.8891 20.7071 59.6917C20.8946 59.4943 21 59.2265 21 58.9474V57.8947H22.4466C23.0707 57.8965 23.6889 57.768 24.2654 57.5167C24.842 57.2653 25.3654 56.896 25.8055 56.4303L28.4141 53.6842H37.172C37.3363 54.1732 37.6124 54.612 37.976 54.962C38.3397 55.312 38.7796 55.5623 39.2569 55.6908C39.7343 55.8193 40.2343 55.8221 40.713 55.6989C41.1916 55.5757 41.634 55.3304 42.0011 54.9845C42.5507 55.503 43.2627 55.7897 44.0008 55.7895C44.7388 55.7893 45.4507 55.5023 46 54.9834C46.5495 55.5024 47.2617 55.7895 48 55.7895C48.7383 55.7895 49.4505 55.5024 50 54.9834C50.3669 55.3296 50.8091 55.5753 51.2877 55.6988C51.7662 55.8222 52.2663 55.8196 52.7436 55.6912C53.221 55.5627 53.6609 55.3124 54.0245 54.9623C54.388 54.6123 54.664 54.1733 54.828 53.6842H59C59.2652 53.6842 59.5196 53.5733 59.7071 53.3759C59.8946 53.1785 60 52.9108 60 52.6316V40C60 39.7208 59.8946 39.4531 59.7071 39.2557C59.5196 39.0583 59.2652 38.9474 59 38.9474ZM43 2.10526H53V6.31579H43V2.10526ZM34 8.42105C34.1313 8.42106 34.2614 8.39384 34.3827 8.34094C34.504 8.28804 34.6143 8.21051 34.7071 8.11276L37.6087 5.05829C37.8635 4.78867 38.1666 4.57491 38.5004 4.4294C38.8342 4.28388 39.1921 4.20949 39.5534 4.21053H41V7.36842C41 7.6476 41.1054 7.91534 41.2929 8.11274C41.4804 8.31015 41.7348 8.42105 42 8.42105H54C54.2652 8.42105 54.5196 8.53195 54.7071 8.72936C54.8946 8.92677 55 9.19451 55 9.47368C55 9.75286 54.8946 10.0206 54.7071 10.218C54.5196 10.4154 54.2652 10.5263 54 10.5263H48C47.7348 10.5263 47.4804 10.6372 47.2929 10.8346C47.1054 11.032 47 11.2998 47 11.5789C47 11.8581 47.1054 12.1259 47.2929 12.3233C47.4804 12.5207 47.7348 12.6316 48 12.6316H54C54.2652 12.6316 54.5196 12.7425 54.7071 12.9399C54.8946 13.1373 55 13.405 55 13.6842C55 13.9634 54.8946 14.2311 54.7071 14.4285C54.5196 14.6259 54.2652 14.7368 54 14.7368H48C47.7348 14.7368 47.4804 14.8477 47.2929 15.0452C47.1054 15.2426 47 15.5103 47 15.7895C47 16.0686 47.1054 16.3364 47.2929 16.5338C47.4804 16.7312 47.7348 16.8421 48 16.8421H54C54.2652 16.8421 54.5196 16.953 54.7071 17.1504C54.8946 17.3478 55 17.6156 55 17.8947C55 18.1739 54.8946 18.4417 54.7071 18.6391C54.5196 18.8365 54.2652 18.9474 54 18.9474H48C47.7348 18.9474 47.4804 19.0583 47.2929 19.2557C47.1054 19.4531 47 19.7208 47 20C47 20.2792 47.1054 20.5469 47.2929 20.7443C47.4804 20.9417 47.7348 21.0526 48 21.0526H54C54.2652 21.0526 54.5196 21.1635 54.7071 21.3609C54.8946 21.5583 55 21.8261 55 22.1053C55 22.3844 54.8946 22.6522 54.7071 22.8496C54.5196 23.047 54.2652 23.1579 54 23.1579H39.2361L31.4473 19.0586C31.3084 18.9854 31.1553 18.9474 31 18.9474H21V8.42105H34ZM37.1056 36.3713C37.0361 36.5175 37 36.6787 37 36.8421V38.9474H31.2361L23.4473 34.848C23.3084 34.7749 23.1553 34.7368 23 34.7368H21V28.857L23.6087 26.1109C24.0512 25.6477 24.402 25.0968 24.6408 24.4899C24.8796 23.8831 25.0017 23.2324 25 22.5755V21.0526H30.7639L38.5527 25.152C38.6916 25.2251 38.8447 25.2632 39 25.2632H41V28.1725L37.1056 36.3713ZM2 18.9474V8.42105H3V18.9474H2ZM5 22.9093V7.36842C5 7.08925 5.10536 6.82151 5.29289 6.6241C5.48043 6.42669 5.73478 6.31579 6 6.31579C6.26522 6.31579 6.51957 6.42669 6.70711 6.6241C6.89464 6.82151 7 7.08925 7 7.36842V13.6842C7 13.9634 7.10536 14.2311 7.29289 14.4285C7.48043 14.6259 7.73478 14.7368 8 14.7368C8.26522 14.7368 8.51957 14.6259 8.70711 14.4285C8.89464 14.2311 9 13.9634 9 13.6842V7.36842C9 7.08925 9.10536 6.82151 9.29289 6.6241C9.48043 6.42669 9.73478 6.31579 10 6.31579C10.2652 6.31579 10.5196 6.42669 10.7071 6.6241C10.8946 6.82151 11 7.08925 11 7.36842V13.6842C11 13.9634 11.1054 14.2311 11.2929 14.4285C11.4804 14.6259 11.7348 14.7368 12 14.7368C12.2652 14.7368 12.5196 14.6259 12.7071 14.4285C12.8946 14.2311 13 13.9634 13 13.6842V7.36842C13 7.08925 13.1054 6.82151 13.2929 6.6241C13.4804 6.42669 13.7348 6.31579 14 6.31579C14.2652 6.31579 14.5196 6.42669 14.7071 6.6241C14.8946 6.82151 15 7.08925 15 7.36842V13.6842C15 13.9634 15.1054 14.2311 15.2929 14.4285C15.4804 14.6259 15.7348 14.7368 16 14.7368C16.2652 14.7368 16.5196 14.6259 16.7071 14.4285C16.8946 14.2311 17 13.9634 17 13.6842V7.36842C17 7.08925 17.1054 6.82151 17.2929 6.6241C17.4804 6.42669 17.7348 6.31579 18 6.31579C18.2652 6.31579 18.5196 6.42669 18.7071 6.6241C18.8946 6.82151 19 7.08925 19 7.36842V20C19 20.2792 19.1054 20.5469 19.2929 20.7443C19.4804 20.9417 19.7348 21.0526 20 21.0526H23V22.5755C23.001 22.9558 22.9303 23.3325 22.792 23.6839C22.6538 24.0352 22.4507 24.3542 22.1945 24.6224L19.2929 27.6767C19.2 27.7745 19.1264 27.8905 19.0761 28.0182C19.0259 28.1459 19 28.2828 19 28.4211V34.7368H9V31.5789C9.00002 31.4155 8.96385 31.2543 8.89437 31.1082L5 22.9093ZM19 57.8947H9V53.6842H19V57.8947ZM28 51.5789C27.8687 51.5789 27.7386 51.6062 27.6173 51.6591C27.496 51.712 27.3857 51.7895 27.2929 51.8872L24.3913 54.9417C24.1365 55.2114 23.8334 55.4251 23.4996 55.5706C23.1658 55.7162 22.8079 55.7905 22.4466 55.7895H21V52.6316C21 52.3524 20.8946 52.0847 20.7071 51.8873C20.5196 51.6898 20.2652 51.5789 20 51.5789H8C7.73478 51.5789 7.48043 51.468 7.29289 51.2706C7.10536 51.0732 7 50.8055 7 50.5263C7 50.2471 7.10536 49.9794 7.29289 49.782C7.48043 49.5846 7.73478 49.4737 8 49.4737H14C14.2652 49.4737 14.5196 49.3628 14.7071 49.1654C14.8946 48.968 15 48.7002 15 48.4211C15 48.1419 14.8946 47.8741 14.7071 47.6767C14.5196 47.4793 14.2652 47.3684 14 47.3684H8C7.73478 47.3684 7.48043 47.2575 7.29289 47.0601C7.10536 46.8627 7 46.595 7 46.3158C7 46.0366 7.10536 45.7689 7.29289 45.5715C7.48043 45.3741 7.73478 45.2632 8 45.2632H14C14.2652 45.2632 14.5196 45.1523 14.7071 44.9549C14.8946 44.7574 15 44.4897 15 44.2105C15 43.9314 14.8946 43.6636 14.7071 43.4662C14.5196 43.2688 14.2652 43.1579 14 43.1579H8C7.73478 43.1579 7.48043 43.047 7.29289 42.8496C7.10536 42.6522 7 42.3844 7 42.1053C7 41.8261 7.10536 41.5583 7.29289 41.3609C7.48043 41.1635 7.73478 41.0526 8 41.0526H14C14.2652 41.0526 14.5196 40.9417 14.7071 40.7443C14.8946 40.5469 15 40.2792 15 40C15 39.7208 14.8946 39.4531 14.7071 39.2557C14.5196 39.0583 14.2652 38.9474 14 38.9474H8C7.73478 38.9474 7.48043 38.8365 7.29289 38.6391C7.10536 38.4417 7 38.1739 7 37.8947C7 37.6156 7.10536 37.3478 7.29289 37.1504C7.48043 36.953 7.73478 36.8421 8 36.8421H22.7639L30.5527 40.9414C30.6916 41.0146 30.8447 41.0527 31 41.0526H37V51.5789H28ZM52 53.6842C51.7349 53.6839 51.4807 53.5729 51.2932 53.3756C51.1057 53.1782 51.0003 52.9107 51 52.6316V46.3158C51 46.0366 50.8946 45.7689 50.7071 45.5715C50.5196 45.3741 50.2652 45.2632 50 45.2632C49.7348 45.2632 49.4804 45.3741 49.2929 45.5715C49.1054 45.7689 49 46.0366 49 46.3158V52.6316C49 52.9108 48.8946 53.1785 48.7071 53.3759C48.5196 53.5733 48.2652 53.6842 48 53.6842C47.7348 53.6842 47.4804 53.5733 47.2929 53.3759C47.1054 53.1785 47 52.9108 47 52.6316V46.3158C47 46.0366 46.8946 45.7689 46.7071 45.5715C46.5196 45.3741 46.2652 45.2632 46 45.2632C45.7348 45.2632 45.4804 45.3741 45.2929 45.5715C45.1054 45.7689 45 46.0366 45 46.3158V52.6316C45 52.9108 44.8946 53.1785 44.7071 53.3759C44.5196 53.5733 44.2652 53.6842 44 53.6842C43.7348 53.6842 43.4804 53.5733 43.2929 53.3759C43.1054 53.1785 43 52.9108 43 52.6316V46.3158C43 46.0366 42.8946 45.7689 42.7071 45.5715C42.5196 45.3741 42.2652 45.2632 42 45.2632C41.7348 45.2632 41.4804 45.3741 41.2929 45.5715C41.1054 45.7689 41 46.0366 41 46.3158V52.6316C41 52.9108 40.8946 53.1785 40.7071 53.3759C40.5196 53.5733 40.2652 53.6842 40 53.6842C39.7348 53.6842 39.4804 53.5733 39.2929 53.3759C39.1054 53.1785 39 52.9108 39 52.6316V37.0907L42.8944 28.8918C42.9639 28.7457 43 28.5845 43 28.4211V25.2632H53V31.5789C53 31.7172 53.0259 31.8541 53.0761 31.9818C53.1264 32.1095 53.2 32.2255 53.2929 32.3233L56.1945 35.3776C56.4507 35.6458 56.6538 35.9648 56.792 36.3161C56.9303 36.6675 57.001 37.0442 57 37.4245V38.9474H54C53.7348 38.9474 53.4804 39.0583 53.2929 39.2557C53.1054 39.4531 53 39.7208 53 40V52.6316C52.9997 52.9107 52.8943 53.1782 52.7068 53.3756C52.5193 53.5729 52.2651 53.6839 52 53.6842ZM58 51.5789H55V41.0526H58V51.5789Z" fill="#D9DC31"/>
<path d="M32.7296 26.3158C32.3667 26.3147 32.0073 26.3895 31.672 26.5356C31.3367 26.6818 31.0324 26.8965 30.7765 27.1674L29.9997 27.9851L29.223 27.1674C28.89 26.817 28.4775 26.562 28.0246 26.4266C27.5717 26.2912 27.0935 26.2799 26.6353 26.3938C26.177 26.5076 25.7541 26.7429 25.4065 27.0772C25.059 27.4114 24.7983 27.8337 24.6493 28.3038C24.411 29.0627 24.3985 29.8801 24.6135 30.6467C24.8286 31.4132 25.2609 32.0924 25.8526 32.5933L29.3747 35.5588C29.552 35.7081 29.7723 35.7894 29.9993 35.7894C30.2264 35.7894 30.4467 35.7081 30.624 35.5588L34.147 32.5921C34.7385 32.0912 35.1707 31.4122 35.3857 30.6457C35.6007 29.8793 35.5883 29.0621 35.3501 28.3033C35.1671 27.7242 34.8154 27.2205 34.345 26.8637C33.8746 26.5069 33.3094 26.3152 32.7296 26.3158ZM32.8976 30.9485L29.9997 33.3888L27.102 30.9485C26.829 30.7174 26.6296 30.4041 26.5304 30.0505C26.4311 29.6968 26.4369 29.3197 26.5468 28.9696C26.588 28.8399 26.66 28.7235 26.7559 28.6313C26.8518 28.5392 26.9684 28.4743 27.0948 28.4429C27.2212 28.4115 27.3531 28.4146 27.4781 28.4519C27.603 28.4892 27.7168 28.5595 27.8087 28.656L29.2926 30.218C29.3855 30.3158 29.4957 30.3933 29.617 30.4462C29.7384 30.4991 29.8684 30.5263 29.9997 30.5263C30.131 30.5263 30.2611 30.4991 30.3824 30.4462C30.5037 30.3933 30.614 30.3158 30.7068 30.218L32.1907 28.656C32.2826 28.5595 32.3964 28.4892 32.5214 28.4519C32.6463 28.4146 32.7782 28.4115 32.9046 28.4429C33.031 28.4743 33.1477 28.5392 33.2436 28.6313C33.3395 28.7235 33.4114 28.8399 33.4526 28.9696C33.5625 29.3197 33.5683 29.6968 33.4691 30.0504C33.3699 30.4041 33.1705 30.7174 32.8976 30.9485Z" fill="#D9DC31"/>
</svg>
