<svg width="60" height="60" viewBox="0 0 60 60" fill="none" xmlns="http://www.w3.org/2000/svg">
<path d="M5.61327 13.7134C5.63664 14.1717 5.9524 14.529 6.33393 14.529H15.7275C16.0624 14.529 16.3535 14.2519 16.4304 13.8597C16.4817 13.5987 16.5075 13.3373 16.5075 13.0826C16.5075 11.2234 15.2504 9.71077 13.7052 9.71077C13.343 9.71077 12.991 9.79339 12.662 9.95342C12.0568 9.15549 11.1922 8.68393 10.2755 8.68393C9.09655 8.68393 8.00788 9.47555 7.44609 10.6986C6.38487 11.0168 5.60645 12.1716 5.60645 13.5319C5.60645 13.5848 5.60894 13.6368 5.61183 13.6888L5.61327 13.7134ZM7.97795 12.3517C8.26088 12.3321 8.50823 12.1152 8.61012 11.797C8.87401 10.9744 9.54307 10.4218 10.2755 10.4218C10.9166 10.4218 11.5119 10.8398 11.829 11.5126C11.9314 11.73 12.1068 11.8839 12.3102 11.9348C12.5135 11.9856 12.7253 11.9286 12.8914 11.7784C13.1294 11.5627 13.4108 11.4488 13.7052 11.4488C14.3714 11.4488 14.9273 12.0291 15.0417 12.7916H7.26793C7.43677 12.5393 7.69003 12.3716 7.97795 12.3517Z" fill="#D9DC31"/>
<path d="M59.9188 31.9013C59.7353 31.4754 59.2995 31.3089 58.9452 31.5299L53.2094 35.1085L46.7469 23.6002C46.5887 23.3185 46.3092 23.1735 46.0298 23.2296L44.9356 23.449L38.6251 10.9962C38.5227 10.7943 38.3564 10.6512 38.1644 10.6002C37.9722 10.5492 37.7716 10.5943 37.608 10.7256L36.5725 11.5562L34.1342 8.03307H38.7425C39.1003 8.03307 39.4039 7.71807 39.4566 7.29232C39.4879 7.03909 39.5027 6.82282 39.5027 6.61129C39.5027 4.09031 37.7982 2.03947 35.7031 2.03947C35.2773 2.03947 34.8544 2.12683 34.4537 2.29555C33.5864 0.86239 32.2024 0 30.7022 0C29.2013 0 27.8169 0.86239 26.9496 2.29555C26.5489 2.12683 26.1261 2.03947 25.7001 2.03947C23.6057 2.03947 21.9017 4.09031 21.9017 6.61129C21.9017 6.82282 21.9163 7.03909 21.9478 7.29232C22.0004 7.71807 22.3042 8.03307 22.6619 8.03307H28.3776L20.5227 20.074L19.5031 19.2561C19.1854 19.0013 18.7578 19.0881 18.5273 19.4541L13.3225 27.7118L12.0164 26.0222C11.7902 25.7297 11.4273 25.6605 11.137 25.8545L9.2341 27.1265L1.21592 18.0816C0.924976 17.7535 0.468216 17.771 0.195262 18.1212C-0.0774285 18.4713 -0.0627239 19.0212 0.228216 19.3494L8.63082 28.8279C8.85979 29.0862 9.20128 29.1371 9.47542 28.9535L11.3443 27.7042L21.4624 40.792C21.6475 41.0314 21.9289 41.1255 22.1895 41.0356L23.6391 40.5374L41.0696 59.7714C41.2084 59.9245 41.3833 60 41.5575 60C41.7528 60 41.9476 59.9052 42.09 59.7183C42.3595 59.3646 42.3397 58.815 42.0459 58.4907L31.9762 47.3792L43.2702 41.1506L44.8139 41.9467C45.0127 42.0492 45.239 42.0391 45.4308 41.9194L59.6102 33.0727C59.9641 32.8517 60.1023 32.3274 59.9188 31.9013ZM23.3605 6.29534C23.4915 4.88082 24.4907 3.7772 25.7001 3.7772C26.1136 3.7772 26.5065 3.90374 26.8674 4.15303C27.0375 4.27056 27.2404 4.29979 27.4285 4.23391C27.617 4.16803 27.775 4.01259 27.8662 3.80358C28.4224 2.52935 29.5092 1.73773 30.7022 1.73773C31.8945 1.73773 32.9807 2.52935 33.5369 3.80358C33.6282 4.01259 33.7861 4.16803 33.9747 4.23391C34.1631 4.29994 34.3656 4.27072 34.5358 4.15303C34.8967 3.90358 35.2894 3.7772 35.7031 3.7772C36.9131 3.7772 37.913 4.88082 38.044 6.29534H32.9314L31.7423 4.57719C31.6028 4.37561 31.3989 4.26393 31.177 4.2644C30.9589 4.26819 30.754 4.39031 30.6194 4.59678L29.5113 6.29534H23.3605ZM45.0689 40.1875L43.5447 39.4014C43.3573 39.3047 43.1449 39.3079 42.9593 39.4101L30.8209 46.1043L24.3172 38.9278C24.1321 38.7235 23.8717 38.6497 23.6307 38.7327L22.2181 39.2183L14.321 29.0033L19.2672 21.1555L24.1896 25.4189C24.3182 25.5325 24.4678 25.5872 24.616 25.5872C24.8381 25.5872 25.0574 25.4641 25.1989 25.2321C25.4347 24.8452 25.3653 24.3014 25.0436 24.0175L21.7066 21.073L31.2036 6.51476L35.4246 12.6134L32.0209 16.1628C31.7196 16.477 31.6871 17.0258 31.9482 17.3884C32.091 17.5867 32.292 17.6882 32.4941 17.6882C32.6618 17.6882 32.8302 17.6184 32.9669 17.4759L37.783 12.673L43.9562 24.8545C44.1098 25.1573 44.4006 25.3178 44.6915 25.2592L45.8096 25.0351L51.9184 35.9136L45.0689 40.1875Z" fill="#D9DC31"/>
<path d="M40.0499 31.1206L37.8949 33.2816L33.6462 30.0282C33.3812 29.8254 33.0376 29.8519 32.7961 30.0938L27.6758 35.228C27.3695 35.5353 27.3281 36.0831 27.5834 36.4517C27.7262 36.6578 27.9315 36.7643 28.1386 36.7643C28.3015 36.7643 28.4655 36.6983 28.6006 36.5629L33.3158 31.8348L37.5645 35.0882C37.8297 35.291 38.1731 35.2645 38.4146 35.0226L40.9747 32.4555C41.281 32.1483 41.3224 31.6004 41.0672 31.2318C40.8118 30.8633 40.3565 30.8135 40.0499 31.1206Z" fill="#D9DC31"/>
<path d="M29.7398 52.8369L22.9959 48.7864C22.8079 48.6735 22.5883 48.6648 22.3948 48.7622L20.0976 49.9182L9.90776 42.1138C9.57152 41.8562 9.125 41.9754 8.91087 42.3803C8.69673 42.7852 8.79586 43.3222 9.13236 43.5798L19.6405 51.6279C19.8399 51.7807 20.0888 51.8063 20.3068 51.6965L22.6469 50.5189L29.0949 54.3917C29.1983 54.454 29.3083 54.4833 29.4168 54.4833C29.6819 54.4833 29.9369 54.307 30.0634 54.0023C30.2414 53.5731 30.0965 53.0513 29.7398 52.8369Z" fill="#D9DC31"/>
<path d="M45.4964 18.0593H53.9833C54.382 18.0593 54.7054 17.6704 54.7054 17.1905C54.7054 15.2933 53.4227 13.7501 51.8461 13.7501C51.4311 13.7501 51.0208 13.8608 50.6465 14.0692C50.0058 13.3614 49.1737 12.9671 48.2843 12.9671C46.349 12.9671 44.7744 14.8617 44.7744 17.1905C44.7743 17.6702 45.0977 18.0593 45.4964 18.0593ZM48.2843 14.7047C48.9383 14.7047 49.5403 15.0687 49.9357 15.7031C50.0531 15.8911 50.2285 16.014 50.4224 16.0437C50.6166 16.0734 50.8117 16.0072 50.9644 15.8605C51.218 15.6165 51.5229 15.4876 51.8461 15.4876C52.3629 15.4876 52.8157 15.8225 53.0628 16.3214H46.3488C46.6422 15.3782 47.399 14.7047 48.2843 14.7047Z" fill="#D9DC31"/>
</svg>
