<svg width="60" height="60" viewBox="0 0 60 60" fill="none" xmlns="http://www.w3.org/2000/svg">
<g clip-path="url(#clip0_159_65)">
<path d="M39.6006 28.8281C40.2478 28.8281 40.7725 28.3035 40.7725 27.6562C40.7725 27.009 40.2478 26.4844 39.6006 26.4844C38.9534 26.4844 38.4287 27.009 38.4287 27.6562C38.4287 28.3035 38.9534 28.8281 39.6006 28.8281Z" fill="#D9DC31"/>
<path d="M39.8011 32.6775C39.1614 32.5825 38.565 33.0248 38.4702 33.665C38.1499 35.8277 36.3218 37.6214 33.5801 38.4633C30.6496 39.3632 26.5819 39.0615 24.1004 36.3593C23.6626 35.8826 22.9213 35.8512 22.4447 36.2887C21.968 36.7266 21.9364 37.4679 22.3741 37.9445C23.8106 39.5088 25.7617 40.575 28.0164 41.0277C28.8125 41.1875 29.6385 41.2669 30.4698 41.2669C31.7539 41.2669 33.0507 41.0776 34.2681 40.7038C37.895 39.5901 40.3326 37.0873 40.7886 34.0084C40.8834 33.3682 40.4413 32.7723 39.8011 32.6775Z" fill="#D9DC31"/>
<path d="M56.0892 22.3138C53.9592 19.8445 51.0194 18.2435 47.4808 17.6005C50.8687 15.3142 53.7909 13.0389 55.8745 11.0535C59.0514 8.02641 60.1166 5.89922 59.2271 4.35949C58.2374 2.64457 55.3802 2.65641 50.235 4.39711C45.8877 5.86781 40.472 8.42215 34.9857 11.5897C34.038 12.1368 33.0992 12.6969 32.1807 13.2614C31.4995 11.3375 31.9488 9.13992 33.4519 7.23434C34.5777 5.80699 34.8291 3.9941 34.108 2.50289C33.3521 0.939961 31.6932 0.00421875 29.6676 0H29.6126C22.4634 0 15.4707 2.82082 9.92272 7.94285C4.3678 13.0712 0.967018 19.8601 0.346862 27.0588C-0.399271 35.7284 2.37198 43.9706 8.14991 50.2672C13.8258 56.4526 21.8724 60 30.2266 60C34.7243 60 38.9466 59.1771 42.7759 57.5539C46.2775 56.0698 49.3869 53.9505 52.018 51.2549C54.4575 48.7554 56.3809 45.8781 57.7348 42.7027C59.0231 39.6811 59.7269 36.4791 59.7705 33.4429C59.8339 29.0275 58.5609 25.1791 56.0892 22.3138ZM32.3177 15.9361C33.558 15.1539 34.8498 14.3745 36.1575 13.6195C41.2301 10.6908 46.2813 8.27848 50.3809 6.82688C54.8938 5.22902 56.7415 5.33332 57.1723 5.53957C57.135 5.81227 56.7963 7.02551 53.8349 9.7527C51.362 12.03 47.7508 14.7081 43.6667 17.2936C42.3757 18.1112 41.032 18.9238 39.6732 19.7085C37.8 20.7896 35.9282 21.8006 34.091 22.7263C33.7244 21.6565 33.2546 20.6183 32.6829 19.6279C32.1287 18.668 31.4859 17.7668 30.7674 16.933C31.2759 16.5997 31.7933 16.2664 32.3177 15.9361ZM31.9678 23.7659C28.6588 25.3351 25.6224 26.5315 23.1977 27.2255C23.0715 26.6193 22.8496 26.0333 22.5347 25.4875C22.2362 24.9701 21.8618 24.5075 21.429 24.1086C23.2442 22.3568 25.7992 20.3271 28.8076 18.2507C29.506 19.0312 30.1253 19.8851 30.6532 20.7995C31.1992 21.7452 31.6386 22.7399 31.9678 23.7659ZM57.427 33.4092C57.2599 45.0703 46.813 57.6562 30.2266 57.6562C22.5272 57.6562 15.11 54.3855 9.8769 48.6827C4.54803 42.8756 1.993 35.2675 2.68206 27.2599C3.86553 13.5211 15.9465 2.34375 29.6126 2.34375H29.6652C30.7863 2.34609 31.6366 2.77594 31.9979 3.52324C32.3301 4.2102 32.1858 5.05488 31.6115 5.78285C29.4995 8.46059 28.9698 11.7539 30.1631 14.5307C29.5349 14.9354 28.9174 15.342 28.3208 15.7452C28.318 15.7471 28.3152 15.7489 28.3125 15.7508C24.586 18.2653 21.4393 20.7664 19.3457 22.8713C17.7578 22.3286 16.0131 22.4868 14.5302 23.3427C12.0955 24.7491 8.89862 31.3028 8.28257 32.6023C8.11757 32.9501 8.13409 33.3568 8.32651 33.6902C8.51905 34.0236 8.863 34.2412 9.24667 34.2724C9.89436 34.3249 11.7336 34.4576 13.7808 34.4576C16.2649 34.4576 19.0549 34.2621 20.3897 33.4911C21.8355 32.6565 22.8377 31.262 23.1848 29.6589C26.0586 28.9045 29.8134 27.4288 33.8801 25.4475C36.1585 24.3386 38.5018 23.0906 40.8451 21.7383C42.0337 21.0518 43.2089 20.3441 44.351 19.6303C44.3579 19.6307 44.3646 19.6317 44.3715 19.632C54.139 19.912 57.52 26.9325 57.427 33.4092ZM20.97 28.6371C20.895 29.8157 20.2401 30.8713 19.2178 31.4614C18.1096 32.1016 14.3024 32.1879 11.1764 32.0449C12.6149 29.2671 14.5929 26.0133 15.7023 25.3725C16.7497 24.7678 18.016 24.7413 19.0904 25.3018C19.6809 25.6093 20.1698 26.0784 20.5045 26.6586C20.8527 27.2621 21.0136 27.9463 20.97 28.6371Z" fill="#D9DC31"/>
<path d="M20.8506 7.24689C18.2659 7.24689 16.1631 9.3497 16.1631 11.9344C16.1631 14.5191 18.2659 16.6219 20.8506 16.6219C23.4353 16.6219 25.5381 14.5191 25.5381 11.9344C25.5381 9.3497 23.4353 7.24689 20.8506 7.24689ZM20.8506 14.2781C19.5582 14.2781 18.5068 13.2267 18.5068 11.9344C18.5068 10.642 19.5582 9.59064 20.8506 9.59064C22.1429 9.59064 23.1943 10.642 23.1943 11.9344C23.1943 13.2267 22.1429 14.2781 20.8506 14.2781Z" fill="#D9DC31"/>
<path d="M14.9912 38.7363C12.4065 38.7363 10.3037 40.8391 10.3037 43.4238C10.3037 46.0085 12.4065 48.1113 14.9912 48.1113C17.5759 48.1113 19.6787 46.0085 19.6787 43.4238C19.6787 40.8391 17.5759 38.7363 14.9912 38.7363ZM14.9912 45.7676C13.6989 45.7676 12.6475 44.7162 12.6475 43.4238C12.6475 42.1315 13.6989 41.0801 14.9912 41.0801C16.2836 41.0801 17.335 42.1315 17.335 43.4238C17.335 44.7162 16.2836 45.7676 14.9912 45.7676Z" fill="#D9DC31"/>
<path d="M26.71 45.7676C24.1253 45.7676 22.0225 47.8704 22.0225 50.4551C22.0225 53.0398 24.1253 55.1426 26.71 55.1426C29.2946 55.1426 31.3975 53.0398 31.3975 50.4551C31.3975 47.8704 29.2946 45.7676 26.71 45.7676ZM26.71 52.7988C25.4176 52.7988 24.3662 51.7474 24.3662 50.4551C24.3662 49.1627 25.4176 48.1113 26.71 48.1113C28.0023 48.1113 29.0537 49.1627 29.0537 50.4551C29.0537 51.7474 28.0023 52.7988 26.71 52.7988Z" fill="#D9DC31"/>
<path d="M40.7725 43.4238C38.1878 43.4238 36.085 45.5266 36.085 48.1113C36.085 50.696 38.1878 52.7988 40.7725 52.7988C43.3571 52.7988 45.46 50.696 45.46 48.1113C45.46 45.5266 43.3571 43.4238 40.7725 43.4238ZM40.7725 50.4551C39.4801 50.4551 38.4287 49.4037 38.4287 48.1113C38.4287 46.819 39.4801 45.7676 40.7725 45.7676C42.0648 45.7676 43.1162 46.819 43.1162 48.1113C43.1162 49.4037 42.0648 50.4551 40.7725 50.4551Z" fill="#D9DC31"/>
<path d="M50.1475 31.7051C47.5628 31.7051 45.46 33.8079 45.46 36.3926C45.46 38.9773 47.5628 41.0801 50.1475 41.0801C52.7321 41.0801 54.835 38.9773 54.835 36.3926C54.835 33.8079 52.7321 31.7051 50.1475 31.7051ZM50.1475 38.7363C48.8551 38.7363 47.8037 37.6849 47.8037 36.3926C47.8037 35.1002 48.8551 34.0488 50.1475 34.0488C51.4398 34.0488 52.4912 35.1002 52.4912 36.3926C52.4912 37.6849 51.4398 38.7363 50.1475 38.7363Z" fill="#D9DC31"/>
</g>
<defs>
<clipPath id="clip0_159_65">
<rect width="60" height="60" fill="white"/>
</clipPath>
</defs>
</svg>
