<svg width="60" height="60" viewBox="0 0 60 60" fill="none" xmlns="http://www.w3.org/2000/svg">
<g clip-path="url(#clip0_158_9)">
<path fill-rule="evenodd" clip-rule="evenodd" d="M30.0002 2.63244C20.9437 2.63244 13.5759 10.0002 13.5759 19.0566C13.576 28.1115 20.9437 35.4793 30 35.4793C39.0551 35.4792 46.4228 28.1117 46.4228 19.0566C46.423 10.0001 39.055 2.63244 30.0002 2.63244ZM30.0002 37.0443C20.0809 37.0443 12.0107 28.9743 12.0107 19.0566C12.0109 9.13732 20.0809 1.06728 30 1.06728C39.9177 1.06728 47.9879 9.13732 47.9879 19.0566C47.9879 28.9742 39.9177 37.0445 30.0002 37.0443Z" fill="#D9DC31"/>
<path fill-rule="evenodd" clip-rule="evenodd" d="M20.3653 17.9926C20.0311 17.9926 19.7904 17.8895 19.5853 17.683C19.0364 17.1314 19.3652 16.4114 19.7456 15.5772C19.9456 15.1383 20.1722 14.6411 20.3312 14.1045C20.6941 12.8898 19.9439 12.2392 19.9372 12.2324C19.0581 11.4688 18.6668 10.6808 18.7647 9.88063C18.8845 8.89957 19.7021 8.33859 19.9942 8.16738C22.0976 6.36443 21.2727 4.22736 21.236 4.13782C21.0757 3.73823 21.2659 3.28189 21.664 3.11884C22.062 2.95565 22.5158 3.14195 22.6816 3.53864C23.157 4.67167 23.4044 7.35905 20.944 9.4146C20.8993 9.45267 20.8501 9.48519 20.7971 9.51108C20.6575 9.58707 20.3462 9.82901 20.3175 10.0736C20.2907 10.3152 20.5228 10.6686 20.9548 11.0436C21.0105 11.091 22.4818 12.3669 21.831 14.5515C21.6436 15.1804 21.3895 15.7443 21.1802 16.2008C21.5771 16.0554 22.1544 15.819 22.9995 15.4413C23.9439 15.0187 25.4912 14.6996 27.5222 15.5541C28.5982 15.781 29.3808 15.6751 29.6756 15.2607C29.9338 14.8965 29.8509 14.2389 29.4705 13.6249C28.0741 11.3709 28.1826 9.43495 29.7707 8.31547C30.0114 8.14564 30.3264 8.12529 30.5858 8.26246C30.673 8.3073 32.7868 9.36712 34.1848 7.67961C34.4158 7.40113 34.8071 7.31683 35.1304 7.47587C35.1794 7.49898 40.0159 9.80173 42.5606 7.34272C42.8718 7.04237 43.3675 7.05192 43.6679 7.36306C43.9681 7.67269 43.9585 8.16875 43.6488 8.46897C40.8693 11.1536 36.4958 9.73114 34.9769 9.11562C33.4769 10.5042 31.5478 10.3086 30.3685 9.87246C29.8442 10.5069 29.988 11.4891 30.8005 12.8003C31.5316 13.9795 31.5885 15.2688 30.9513 16.1668C30.5506 16.732 29.518 17.6015 27.1134 17.0662C27.0659 17.0553 27.0181 17.0403 26.9733 17.0214C25.7331 16.4848 24.6121 16.4345 23.6394 16.8693C21.9603 17.6218 20.9955 17.9928 20.3653 17.9926Z" fill="#D9DC31"/>
<path fill-rule="evenodd" clip-rule="evenodd" d="M30.693 37.0306C30.3329 37.0306 30.0094 36.782 29.9293 36.4166C29.5177 34.5525 30.8245 32.6587 32.8406 32.1927C33.357 32.0731 34.5933 31.5596 34.9221 29.3614C35.1125 28.095 35.6761 25.8371 37.3308 24.9487C38.278 24.4404 39.377 24.4717 40.5969 25.041C41.2926 25.3656 41.6892 25.9296 42.0737 26.4756C42.5765 27.1888 43.0505 27.8642 44.2869 28.1209C44.7095 28.2078 44.9825 28.6222 44.8942 29.0462C44.8061 29.4686 44.3914 29.7404 43.969 29.6534C42.1268 29.2703 41.3564 28.1753 40.7939 27.3764C40.491 26.947 40.2532 26.6075 39.9339 26.4594C39.176 26.1047 38.5673 26.0626 38.0713 26.3277C37.3135 26.735 36.7154 27.9552 36.4695 29.5924C35.9859 32.8298 33.8393 33.5689 33.1926 33.7184C32.1603 33.956 31.2035 34.9261 31.4576 36.0797C31.5501 36.5007 31.2838 36.9193 30.8612 37.0116C30.8042 37.0238 30.7484 37.0306 30.693 37.0306Z" fill="#D9DC31"/>
<path fill-rule="evenodd" clip-rule="evenodd" d="M21.1904 34.6207C20.9565 34.6207 20.7255 34.5161 20.5706 34.3164C20.3057 33.9752 20.3683 33.4836 20.7093 33.2186C20.8602 33.1017 21.0638 32.9564 21.2988 32.7865C21.7801 32.4401 22.8966 31.6385 23.1044 31.3194C23.3329 30.553 23.4672 29.1578 21.9414 28.151C20.7774 27.3832 21.47 26.1579 21.7309 25.696C21.7623 25.6416 21.8001 25.5752 21.8342 25.5112L19.2028 24.3334C18.5776 24.4325 17.2108 24.5359 16.499 23.707C16.2517 23.4204 16.0234 22.949 16.1321 22.2262L12.4939 20.5985C12.0999 20.422 11.9231 19.9587 12.0997 19.5647C12.2766 19.1706 12.7384 18.9926 13.1337 19.1694L17.381 21.0699C17.7612 21.2411 17.9418 21.68 17.7909 22.0685C17.6279 22.4883 17.6673 22.6663 17.6864 22.6881C17.8223 22.8457 18.564 22.8796 19.1292 22.7546C19.2935 22.718 19.4647 22.7357 19.6182 22.8049L22.7377 24.2002C23.1862 24.4012 23.3707 24.7151 23.4454 24.9433C23.6331 25.5125 23.334 26.0425 23.0936 26.4664C23.0256 26.5872 22.9224 26.7694 22.8735 26.8916C25.3556 28.583 24.8149 31.087 24.588 31.8193C24.4061 32.4034 23.7076 32.9822 22.2132 34.0569C21.9891 34.2184 21.7961 34.3571 21.6684 34.4563C21.5259 34.5663 21.3572 34.6207 21.1904 34.6207Z" fill="#D9DC31"/>
<path fill-rule="evenodd" clip-rule="evenodd" d="M46.3266 25.2844C46.2871 25.2844 46.2477 25.2804 46.2069 25.2748C43.7411 24.8957 42.0916 24.5901 41.0198 24.309C39.8595 24.0059 39.1164 23.6758 38.9995 22.9747C38.8639 22.1513 39.6625 21.7344 40.4355 21.3308C40.8894 21.093 41.8336 20.5986 41.858 20.2671C41.8609 20.229 41.8566 19.8623 40.8418 19.1299C39.7183 18.3188 39.1285 17.1667 39.1815 15.8828C39.2714 13.7212 41.142 11.3846 44.3157 9.47162C44.6868 9.24877 45.1661 9.36836 45.3904 9.73792C45.6135 10.1087 45.4936 10.5898 45.1241 10.8125C42.4478 12.4252 40.8119 14.3449 40.7453 15.9481C40.7143 16.7101 41.0537 17.3543 41.7575 17.861C42.9357 18.7114 43.4802 19.5348 43.419 20.3798C43.3321 21.5822 42.0767 22.2384 41.1597 22.7166C41.1555 22.7194 41.1637 22.7138 41.1597 22.7166C41.9423 22.9365 43.4612 23.2709 46.4447 23.7274C46.8714 23.7926 47.1647 24.192 47.0995 24.62C47.0397 25.0071 46.7068 25.2844 46.3266 25.2844Z" fill="#D9DC31"/>
<path fill-rule="evenodd" clip-rule="evenodd" d="M45.5708 53.3544C45.1535 53.3544 44.8071 53.0244 44.7894 52.6032C44.7761 52.2539 44.7554 51.9375 44.7365 51.6319C44.5938 49.3358 44.6468 48.0628 47.3992 46.4855C48.0691 46.101 48.6777 45.7559 49.2293 45.4421C51.8963 43.9285 53.2358 43.1691 53.9531 42.3241C54.6324 41.5252 54.8431 40.5335 55.3062 38.361C55.5984 36.9888 55.9626 35.2825 56.5901 32.9403L58.3729 26.2898C58.4963 25.8293 58.4311 25.3443 58.1893 24.9273C57.9489 24.5087 57.5616 24.2113 57.0996 24.0875C56.142 23.8308 55.1541 24.4015 54.8974 25.3593L52.5239 34.2172C52.7182 34.4033 52.8881 34.6195 53.0266 34.8599C53.4125 35.5256 53.513 36.3041 53.3132 37.0514C53.1135 37.7985 52.6367 38.4208 51.9696 38.8067L46.6018 41.9056C46.2268 42.1215 45.7485 41.9927 45.5326 41.619C45.3168 41.244 45.4443 40.7658 45.8191 40.5497L51.1871 37.4507C51.4916 37.2754 51.71 36.9888 51.8011 36.6466C51.8936 36.3027 51.8473 35.9469 51.6721 35.6425C51.565 35.4577 51.418 35.3056 51.2428 35.1928C51.2293 35.1859 51.2169 35.1779 51.2047 35.1697C51.1003 35.1085 50.9873 35.0611 50.8678 35.0284C50.5241 34.9361 50.1681 34.9822 49.8638 35.1575L44.4959 38.2578C40.309 40.6746 38.2546 41.9002 37.3157 43.3322C36.392 44.741 36.4109 46.6065 36.449 50.3223C36.4559 51.0082 36.4639 51.7541 36.4666 52.5694C36.4681 53.0012 36.1189 53.3533 35.6868 53.3546C35.2563 53.3544 34.9029 53.0054 34.9016 52.5734C34.8991 51.7637 34.892 51.0219 34.8838 50.3385C34.8447 46.4325 34.8213 44.2805 36.0061 42.4735C37.1446 40.7399 39.1906 39.5118 43.7133 36.9019L49.0813 33.8029C49.6969 33.4471 50.4086 33.3343 51.1014 33.4756L53.3854 24.9543C53.865 23.1624 55.7139 22.096 57.5059 22.5756C58.3701 22.8064 59.0954 23.3649 59.5451 24.1447C59.9963 24.9245 60.1157 25.8307 59.8847 26.6948L58.1023 33.345C57.4858 35.6479 57.1255 37.3326 56.8375 38.6871C55.8091 43.5074 55.5916 43.6311 50.0023 46.8034C49.4524 47.1158 48.8462 47.4596 48.1778 47.8428C46.1412 49.0111 46.1751 49.5451 46.2989 51.534C46.3178 51.8342 46.3396 52.1739 46.3531 52.5408C46.3711 52.9714 46.0028 53.3367 45.5708 53.3544C45.5815 53.3545 45.5602 53.3555 45.5708 53.3544Z" fill="#D9DC31"/>
<path fill-rule="evenodd" clip-rule="evenodd" d="M33.0153 57.3675H48.1449V53.3541H33.0153V57.3675ZM48.9275 58.9326H32.2328C31.7994 58.9326 31.4502 58.5822 31.4502 58.1502L31.4503 52.5716C31.4503 52.1383 31.7994 51.7893 32.2328 51.7893L48.9275 51.789C49.3595 51.789 49.7098 52.1383 49.7098 52.5717L49.7101 58.1501C49.7101 58.5822 49.3592 58.9326 48.9275 58.9326Z" fill="#D9DC31"/>
<path fill-rule="evenodd" clip-rule="evenodd" d="M14.4282 53.3544C14.4171 53.3544 14.4376 53.3556 14.4282 53.3544C13.9962 53.3365 13.6277 52.9714 13.6455 52.5408C13.6605 52.1739 13.6807 51.8342 13.6997 51.534C13.8234 49.5449 13.8574 49.0111 11.8208 47.8427C11.1539 47.4596 10.5478 47.1158 9.99625 46.8034C4.40723 43.631 4.18964 43.5074 3.16111 38.6871C2.87335 37.3325 2.51445 35.6479 1.89617 33.3451L0.115377 26.6946C-0.365738 24.904 0.702102 23.0551 2.49397 22.5756C4.28487 22.0944 6.13375 23.1624 6.61335 24.9544L8.89713 33.4754C9.59154 33.3342 10.3019 33.447 10.9188 33.8029L16.2868 36.9019C20.8081 39.5118 22.8553 40.74 23.9925 42.4735C25.1772 44.2805 25.1554 46.4325 25.1147 50.3384C25.1082 51.0218 25.0998 51.7637 25.097 52.5734C25.0959 53.0053 24.7466 53.3546 24.3144 53.3546C23.8814 53.3533 23.5306 53.0013 23.5319 52.5694C23.5348 51.7541 23.5428 51.0082 23.5496 50.3223C23.5877 46.6063 23.608 44.7411 22.6841 43.3322C21.744 41.9001 19.6899 40.6747 15.5039 38.2578L10.1348 35.1575C9.83184 34.9821 9.47446 34.9361 9.13217 35.0284C9.01148 35.061 8.89854 35.1073 8.79514 35.1697C8.7831 35.1779 8.7694 35.186 8.75584 35.1928C8.58075 35.3056 8.43389 35.4577 8.32787 35.6425C8.15126 35.9467 8.10503 36.3029 8.19749 36.6465C8.29008 36.9888 8.50725 37.2755 8.81148 37.4508L14.1793 40.5497C14.5544 40.7656 14.682 41.244 14.466 41.619C14.2503 41.9939 13.7717 42.1217 13.3968 41.9056L8.02904 38.8066C7.36357 38.4208 6.88646 37.7985 6.68535 37.0514C6.4859 36.3041 6.58749 35.5257 6.972 34.8599C7.11069 34.6195 7.28038 34.4035 7.47609 34.2173L5.10262 25.3591C4.84587 24.4013 3.85678 23.8294 2.89898 24.0875C1.94131 24.3443 1.37051 25.332 1.62726 26.2899L3.40861 32.9401C4.03617 35.2823 4.40019 36.9888 4.69223 38.361C5.15591 40.5334 5.36754 41.5252 6.04672 42.3241C6.76439 43.169 8.1024 43.9286 10.7693 45.4421C11.3224 45.7559 11.9295 46.1009 12.5992 46.4855C15.352 48.0626 15.4048 49.3345 15.2621 51.6304C15.2435 51.9374 15.2228 52.2541 15.2093 52.6032C15.1931 53.0242 14.8451 53.3545 14.4282 53.3544Z" fill="#D9DC31"/>
<path fill-rule="evenodd" clip-rule="evenodd" d="M11.8548 57.3675H26.9856V53.3541H11.8548V57.3675ZM27.7682 58.9326H11.0723C10.6404 58.9326 10.291 58.5822 10.291 58.1502V52.5716C10.291 52.1383 10.6401 51.7893 11.0721 51.7893L27.7682 51.789C28.2001 51.789 28.5506 52.1383 28.5506 52.5717L28.5507 58.1501C28.5507 58.5822 28.2 58.9326 27.7682 58.9326Z" fill="#D9DC31"/>
</g>
<defs>
<clipPath id="clip0_158_9">
<rect width="60" height="60" fill="white"/>
</clipPath>
</defs>
</svg>
