<svg width="543" height="121" viewBox="0 0 543 121" fill="none" xmlns="http://www.w3.org/2000/svg">
<g filter="url(#filter0_f_206_22)">
<path d="M19.9294 19C19.9294 42.9923 17.1142 114.932 17.1142 90.9394C17.1142 81.711 12.9819 65.6437 20.6332 57.9349C26.9001 51.621 26.5268 60.4288 34.0054 60.7713C41.4526 61.1123 46.2209 51.9746 49.3325 47.4277C52.9107 42.1988 53.7117 36.9848 53.7117 31.1833C53.7117 29.2279 53.7117 23.3619 53.7117 25.3173C53.7117 33.2823 47.4267 43.2854 45.2661 51.102C40.9292 66.7924 38.2977 82.3869 35.7258 98.288C34.9637 102.999 38.6558 104.967 44.4841 103.187C58.9926 98.7576 69.0152 81.9627 75.9986 71.6008C78.1499 68.4087 80.4559 66.6554 80.4559 63.0919C80.4559 59.2998 78.2185 58.8357 76.546 62.834C73.565 69.9602 73.418 77.1872 73.418 84.6221C73.418 88.1233 72.1256 92.0997 77.6408 92.0997C81.9202 92.0997 86.4067 92.6424 90.3091 90.9394C97.9689 87.5966 106.445 68.2708 99.4584 62.5117C94.8772 58.7353 79.7612 56.8167 77.328 62.834C75.0197 68.5424 74.8256 73.2864 74.8256 79.3363C74.8256 92.233 98.5293 93.2839 100.162 80.4966C101.183 72.502 104.385 65.6435 104.385 57.3548C104.385 50.9375 104.535 58.4824 104.072 60.7713C102.272 69.6759 100.162 77.4326 100.162 86.556C100.162 87.7513 98.937 97.3641 100.944 97.8368C111.023 100.211 122.344 84.8561 126.594 79.852C130.4 75.3691 133.93 70.7923 137.385 66.1216C138.649 64.4131 141.757 58.5306 144.345 57.6771C149.359 56.0237 141.056 66.1758 138.871 70.2471C135.407 76.7026 133.658 83.3788 131.833 90.2303C131.167 92.731 129.905 95.3297 129.722 97.9013C129.718 97.9461 131.171 92.7811 131.755 91.584C134.991 84.9525 142.458 70.2835 150.836 66.8307C154.758 65.214 157.264 85.6956 163.582 87.9741C169.566 90.1322 173.626 85.4261 176.798 81.7858C180.935 77.0385 182.947 71.6432 185.243 66.1861C186.195 63.9259 188.063 57.6965 185.322 63.2208C182.234 69.4421 180.682 76.7671 182.115 83.4618C182.974 87.4707 190.762 88.8402 194.158 86.0403C197.852 82.9958 206.879 60.1881 200.727 57.2903C193.716 53.988 186.68 56.7838 184.931 63.0919C183.494 68.2744 183.21 73.0875 183.21 78.4338C183.21 83.4311 180.875 88.6188 188.137 88.6188C200.438 88.6188 199.166 64.1072 200.414 57.2903C202.424 46.3133 205.732 34.0688 205.732 23.0611C205.732 5.77249 203.039 57.6153 199.789 74.695C199.003 78.8243 199.094 82.6748 198.616 86.8138C198.305 89.506 196.38 92.0963 197.364 94.936C198.891 99.3399 220.995 88.9813 222.623 86.2981" stroke="white" stroke-width="3" stroke-linecap="round"/>
<path d="M239.851 104.621C249.817 104.621 255.101 103.653 262.45 97.5947C276.839 85.7336 287.533 72.5966 294.747 56.9193C300.045 45.4058 316.668 11.0996 311.012 22.4967C305.387 33.832 299.006 44.9958 295.529 56.9837C292.969 65.807 293.339 74.6766 293.339 83.6709C293.339 90.8578 298.659 96.7695 307.259 99.2062C321.921 103.361 329.9 88.492 334.707 79.8677C340.735 69.0517 345.331 58.3226 346.828 46.6054C347.172 43.9098 351.05 36.5463 351.05 39.2567C351.05 47.1873 345.079 55.1505 342.683 62.7208C341.314 67.0475 335.322 83.6231 342.605 86.9585C355.811 93.0062 364.829 75.858 372.164 69.8116" stroke="white" stroke-width="3" stroke-linecap="round"/>
<path d="M374.98 71.8497C374.98 80.5208 373.653 90.6273 382.8 96.7965C402.454 110.052 410.169 78.7654 410.169 68.3688C410.169 60.94 398.771 55.8919 390.776 55.6054C376.243 55.0845 372.575 60.1395 365.752 70.5605C360.102 79.1906 358.524 96.7495 369.662 102.92C385.571 111.735 398.926 95.2628 405.947 85.5157C411.13 78.3197 417.207 70.6833 417.207 61.9871C417.207 58.6064 418.001 49.492 417.129 58.1194C415.794 71.3246 411.577 83.8435 411.577 97.2477C411.577 103.113 419.908 101.385 424.324 98.4725C433.507 92.4165 437.929 81.3929 441.058 72.3654C444.411 62.6914 435.752 92.6476 438.399 102.469C439.035 104.827 446.783 102.209 447.862 101.502C456.244 96.0059 456.976 87.8763 458.653 79.7786C459.514 75.6229 462.703 62.5112 455.134 61.4714C438.334 59.1632 434.098 72.5528 434.098 83.4529C434.098 88.3559 432.668 92.5768 437.226 95.9585C442.661 99.9899 448.465 96.3209 452.084 92.9932C462.738 83.1984 459.546 66.3187 461.547 54.4451C462.897 46.4301 463.147 38.5961 465.066 30.5942C466.114 26.2213 467.881 21.4052 467.881 16.9283C467.881 12.3138 467.376 26.169 466.473 30.7231C464.707 39.6289 461.974 48.3836 460.217 57.2814C458.375 66.6111 456.62 76.272 456.62 85.709C456.62 91.6105 454.605 94.1134 462.563 91.3172C474.412 87.1542 488.351 83.5323 496.658 75.0728C502.334 69.2931 507.293 67.8411 507.293 60.2466C507.293 55.2331 504.144 51.318 497.127 53.5426C482.008 58.3362 474.679 70.8992 470.696 82.6793C468.435 89.3677 467.906 93.0001 476.639 95.3138C495.044 100.19 511.575 92.1309 527 85.7735" stroke="white" stroke-width="3" stroke-linecap="round"/>
</g>
<defs>
<filter id="filter0_f_206_22" x="0.5" y="0.496582" width="542" height="120.435" filterUnits="userSpaceOnUse" color-interpolation-filters="sRGB">
<feFlood flood-opacity="0" result="BackgroundImageFix"/>
<feBlend mode="normal" in="SourceGraphic" in2="BackgroundImageFix" result="shape"/>
<feGaussianBlur stdDeviation="7" result="effect1_foregroundBlur_206_22"/>
</filter>
</defs>
</svg>
