<svg width="56" height="56" viewBox="0 0 56 56" xmlns="http://www.w3.org/2000/svg">
<path d="M10.444 0.231033C7.73135 0.799679 5.68589 1.93697 3.717 3.93816C1.99969 5.69878 0.982424 7.48126 0.358942 9.82146C0.0198546 11.1337 -0.111405 13.6817 0.107361 15.1252C0.741782 19.4666 3.8045 23.4361 7.84073 25.153C8.85799 25.5904 10.2909 25.995 11.1003 26.0935C12.3801 26.2247 12.2489 26.0169 12.2489 28.0072C12.2489 30.0084 12.4239 29.7568 10.8925 29.9646C9.033 30.2271 6.71409 31.2331 5.08428 32.4798C2.45909 34.481 0.577707 37.6741 0.107361 40.8892C-0.111405 42.3327 0.0198546 44.8806 0.358942 46.1929C0.993362 48.5878 2.12001 50.5124 3.92482 52.284C5.68589 54.0008 7.46883 55.0178 9.80962 55.6412C11.1222 55.9802 13.6708 56.1114 15.1147 55.8927C18.6368 55.3787 21.9949 53.2353 23.9966 50.2171C25.0904 48.5878 25.8998 46.51 26.0858 44.9025C26.2171 43.623 26.0092 43.7543 27.9891 43.7543H29.7282L29.7939 44.0605C29.8267 44.2245 29.8814 44.6291 29.9251 44.9572C30.0126 45.7336 30.4392 47.188 30.8549 48.1613C32.5722 52.1965 36.5428 55.2584 40.8853 55.8927C42.3292 56.1114 44.8778 55.9802 46.1904 55.6412C48.5859 55.0069 50.4782 53.8915 52.283 52.0652C54.0003 50.3265 55.0176 48.544 55.6411 46.1929C55.9801 44.8806 56.1114 42.3327 55.8926 40.8892C55.2582 36.5478 52.1955 32.5782 48.1593 30.8613C47.142 30.4239 45.7091 30.0193 44.8997 29.9209C43.6199 29.7897 43.7511 29.9974 43.7511 28.0072C43.7511 26.0169 43.6199 26.2247 44.8997 26.0935C48.0061 25.7435 51.6595 23.5127 53.5956 20.7788C54.7441 19.1385 55.6301 16.9842 55.8926 15.1252C56.0895 13.8238 55.9801 11.0353 55.6957 9.96362C55.2582 8.3233 54.6894 7.05478 53.8144 5.75346C53.2018 4.85675 53.0815 4.73645 52.644 4.64897C52.3924 4.60523 52.2502 4.64897 52.0095 4.84581C51.5392 5.25042 51.5939 5.6441 52.2611 6.6283C53.7706 8.85913 54.3285 10.8603 54.2191 13.6489C54.1644 15.322 53.9019 16.4265 53.2128 17.9028C51.3095 22.0364 46.8904 24.7047 42.3839 24.475C37.3632 24.2126 33.0972 20.7241 31.8722 15.8797C30.4283 10.237 33.5785 4.37558 39.1133 2.38533C40.3603 1.93697 41.4978 1.75107 42.9308 1.75107C45.0747 1.75107 46.9998 2.27597 48.7827 3.36952C49.6797 3.92723 50.161 4.01471 50.5329 3.67571C50.8501 3.39139 50.8282 2.70245 50.4891 2.38533C50.0625 1.99165 48.5968 1.19336 47.5905 0.821552C45.5341 0.0451317 42.7558 -0.206387 40.5681 0.176357C36.3131 0.919971 32.5285 3.90536 30.8549 7.85307C30.4392 8.82633 30.0126 10.2807 29.9251 11.0572C29.8814 11.3852 29.8267 11.7898 29.7939 11.9539L29.7282 12.2601H27.9891C25.9983 12.2601 26.2499 12.435 26.042 10.9041C25.7795 9.04504 24.7732 6.72672 23.5262 5.09733C21.5792 2.54936 18.5712 0.723129 15.4319 0.176357C14.1302 -0.0532875 11.691 -0.0314178 10.444 0.231033ZM14.3928 1.80574C15.9788 1.92603 18.0243 2.70245 19.5228 3.74133C22.7715 5.9831 24.6638 9.77771 24.4669 13.627C24.0622 21.1069 16.6789 26.2466 9.62367 23.9392C6.0031 22.7581 3.24665 19.893 2.12001 16.1312C1.72623 14.819 1.62778 12.4788 1.91218 11.0025C2.73255 6.63923 6.17811 3.03052 10.4878 2.02446C11.2535 1.83855 12.8833 1.67452 13.3427 1.71826C13.4958 1.74013 13.9662 1.77294 14.3928 1.80574ZM29.7939 14.2503C29.8158 14.3925 29.8923 14.8955 29.9689 15.3767C30.3517 17.9028 31.6643 20.4289 33.6223 22.3863C35.5802 24.3438 38.107 25.656 40.6337 26.0388C41.115 26.1153 41.6182 26.1919 41.7604 26.2138C42.001 26.2575 42.001 26.2794 42.001 28.0072C42.001 29.735 42.001 29.7568 41.7604 29.8006C41.6182 29.8225 41.115 29.899 40.6337 29.9756C38.107 30.3583 35.5802 31.6706 33.6223 33.628C31.6643 35.5855 30.3517 38.1116 29.9689 40.6377C29.8923 41.1188 29.8158 41.6219 29.7939 41.7531C29.7501 42.0046 29.7282 42.0046 28 42.0046C26.2717 42.0046 26.2499 42.0046 26.2061 41.7531C26.1842 41.6219 26.1077 41.1188 26.0311 40.6377C25.7905 39.0083 25.0357 37.1055 23.9856 35.5308C23.4169 34.6669 23.1653 34.4591 22.684 34.4591C22.2683 34.4591 21.8746 34.8747 21.8746 35.3121C21.8746 35.4652 22.1371 35.9901 22.4762 36.4822C23.2637 37.6523 23.7997 38.8224 24.1388 40.1346C24.3794 41.0095 24.4232 41.436 24.4341 42.7701C24.4451 44.99 24.1497 46.2366 23.1543 48.1613C20.376 53.5306 13.7802 55.7833 8.35483 53.2244C6.98755 52.5683 6.11248 51.9668 5.07334 50.928C3.34509 49.1892 2.22939 47.0568 1.85749 44.7057C1.63872 43.3715 1.76998 41.0751 2.12001 39.8831C3.92482 33.8467 9.91901 30.3583 15.8694 31.8783C17.0289 32.1736 18.2102 32.6766 19.1728 33.289C19.9166 33.7702 20.3541 33.803 20.726 33.4202C21.262 32.8953 21.0432 32.3486 20.0479 31.7471C18.3962 30.752 16.5039 30.0849 14.8194 29.899L14.0537 29.8115L14.0209 28.04C13.9881 25.995 13.813 26.2684 15.3663 26.0388C19.2822 25.4592 22.9903 22.6925 24.8716 18.9526C25.3967 17.9028 25.867 16.4593 26.0311 15.3767C26.1077 14.8955 26.1842 14.3925 26.2061 14.2503C26.2499 14.0097 26.2717 14.0097 28 14.0097C29.7282 14.0097 29.7501 14.0097 29.7939 14.2503ZM44.6918 31.6706C49.1437 32.436 52.5236 35.4652 53.8909 39.8831C54.1644 40.7908 54.1863 40.9985 54.1863 42.8248C54.1972 45.1103 54.0331 45.9304 53.2237 47.6473C52.5674 49.0142 51.9658 49.8891 50.9267 50.928C48.7062 53.1479 46.0154 54.2633 42.8761 54.2633C35.5146 54.2742 30.0564 47.2536 31.8722 40.1346C33.316 34.4372 38.993 30.6973 44.6918 31.6706Z"/>
<path d="M13.6375 6.3003C12.7186 6.6393 11.8655 7.5032 11.5373 8.43272C11.4279 8.73891 11.3732 9.31849 11.3732 10.1387V11.3853H10.2794C8.98869 11.3853 8.74805 11.5275 8.74805 12.2383C8.74805 12.9272 9.01057 13.0694 10.2903 13.1131L11.3732 13.1568V16.4156V19.6853L11.6576 19.904C11.9858 20.1665 12.2264 20.1884 12.6093 20.0134C13.0905 19.7947 13.1234 19.5432 13.1234 16.2516V13.135H14.0531C15.0813 13.135 15.4532 13.0147 15.6282 12.621C15.8142 12.2164 15.7704 11.943 15.4751 11.6587C15.2345 11.4072 15.1251 11.3853 14.1625 11.3853H13.1234V10.2808C13.1234 9.36223 13.1671 9.11072 13.3531 8.77172C13.725 8.11559 14.0312 7.96249 15.1251 7.88594C16.022 7.82033 16.1314 7.78752 16.372 7.51414C16.6783 7.14233 16.6892 6.80333 16.3939 6.42059C16.1751 6.1472 16.1314 6.13626 15.1141 6.1472C14.4906 6.1472 13.8781 6.21281 13.6375 6.3003Z"/>
<path d="M8.77005 36.9086C8.08094 37.1383 7.5559 37.5866 7.26057 38.2209C6.99805 38.7786 6.99805 38.7895 6.99805 42.9341C6.99805 47.5707 7.00899 47.5817 7.77467 48.3144C8.49659 49.0033 8.54035 49.0033 13.1016 49.0033H17.2363L17.816 48.719C18.5161 48.369 18.9755 47.7785 19.1395 47.0021C19.2271 46.6194 19.2489 45.1649 19.2271 42.5514C19.1942 38.8224 19.1833 38.6474 18.9536 38.2318C18.6801 37.7179 18.2535 37.3023 17.7176 37.018C17.3675 36.8321 16.9956 36.8102 13.2876 36.7884C10.1264 36.7665 9.14195 36.7993 8.77005 36.9086ZM17.1816 38.8224L17.4988 39.1395V42.8247C17.4988 46.674 17.466 47.013 17.0066 47.188C16.9081 47.2208 15.1252 47.2536 13.036 47.2536C9.30603 47.2536 9.25133 47.2536 8.99975 47.013L8.74817 46.7834V42.9341C8.74817 38.9098 8.74817 38.8989 9.2404 38.6365C9.38259 38.549 10.6952 38.5162 13.1563 38.5052H16.8644L17.1816 38.8224Z"/>
<path d="M12.2922 40.4079C11.6031 40.6266 11.0781 41.0859 10.7609 41.742C10.5093 42.2451 10.4765 42.4419 10.5202 43.0871C10.553 43.7214 10.6187 43.9401 10.8921 44.3228C11.439 45.0992 12.0188 45.4382 12.9157 45.482C13.5611 45.5257 13.758 45.4929 14.2611 45.2414C16.1753 44.3009 16.1972 41.5452 14.3049 40.5719C13.7689 40.2986 12.8501 40.222 12.2922 40.4079ZM13.6923 42.2998C14.0752 42.6388 14.0205 43.273 13.572 43.612C13.2876 43.8307 12.8063 43.776 12.5219 43.4808C11.7344 42.7044 12.861 41.5561 13.6923 42.2998Z"/>
<path d="M41.7598 35.9901C39.1346 36.4603 37.0563 38.2537 36.236 40.7361C35.9953 41.4797 35.9406 41.8187 35.9406 42.8794C35.9406 44.2245 36.0938 44.9791 36.586 45.9523L36.8485 46.4663L36.3672 47.6801C36.0938 48.3472 35.875 48.9814 35.875 49.1017C35.875 49.2111 35.9734 49.4298 36.1047 49.5938C36.4219 49.9984 36.8594 49.9656 38.1939 49.4298L39.2987 48.9924L39.9222 49.2658C41.2676 49.8672 43.1708 50.0531 44.6147 49.7141C47.0102 49.1455 49.1431 47.0131 49.7119 44.6182C49.9526 43.5902 49.9198 42.0155 49.6463 41.0204C49.0338 38.7677 47.1196 36.8321 44.8444 36.165C44.1225 35.9463 42.4817 35.8589 41.7598 35.9901ZM43.8818 37.7507C45.4898 38.0897 46.857 39.1614 47.6008 40.6595C48.0274 41.5125 48.0603 41.6765 48.104 42.606C48.1478 43.4262 48.104 43.7761 47.9181 44.3995C47.4586 45.8976 46.2226 47.2427 44.7678 47.8113C43.8162 48.1722 42.2739 48.2269 41.366 47.9207C40.9832 47.7895 40.48 47.5598 40.2394 47.4177C39.7581 47.1115 39.3206 47.0787 38.7736 47.2974C38.3361 47.4833 38.3361 47.4833 38.5549 46.9584C38.7846 46.4007 38.7627 46.2585 38.2924 45.3618C37.4829 43.809 37.4501 42.2452 38.2049 40.6486C39.2112 38.5271 41.6395 37.2805 43.8818 37.7507Z"/>
<path d="M40.3821 40.5175C39.7367 41.097 39.4414 41.8625 39.4414 42.9342C39.4414 43.6669 39.4852 43.9075 39.7367 44.4324C40.0649 45.1104 40.6446 45.6899 41.3665 46.0727C42.0447 46.4336 43.6855 46.4336 44.4183 46.0836C45.4684 45.5587 45.8731 44.837 45.4465 44.2246C45.1403 43.7872 44.7027 43.7981 43.9699 44.2574C43.3901 44.6183 43.2589 44.6511 42.7557 44.6073C42.0775 44.5417 41.6947 44.2793 41.3665 43.6341C41.0493 43.0217 41.115 42.464 41.5634 41.8188C42.0994 41.0752 41.9244 40.3316 41.1697 40.1894C40.8743 40.1347 40.754 40.1894 40.3821 40.5175Z"/>
<path d="M39.7032 7.96239C39.2985 8.11549 38.8938 8.49823 38.7078 8.91378C38.5219 9.31839 38.5 9.6902 38.5 13.0802C38.5 16.4593 38.5219 16.842 38.7078 17.2357C38.8172 17.4763 39.0032 17.7606 39.1125 17.859C39.4188 18.1215 40.0751 18.3839 40.458 18.3839C40.6658 18.3839 42.219 17.6622 44.6036 16.4811C48.8039 14.3815 48.8804 14.3268 48.9789 13.3427C49.0992 12.0195 49.0008 11.932 44.6145 9.73394C41.3221 8.09362 40.8517 7.88584 40.3923 7.89678C40.097 7.89678 39.7907 7.92958 39.7032 7.96239ZM43.8598 11.3305C45.7302 12.26 47.2506 13.0583 47.2506 13.113C47.2506 13.2333 40.3923 16.6342 40.3158 16.5577C40.1954 16.4374 40.2392 9.63552 40.3595 9.63552C40.4251 9.63552 42.0003 10.401 43.8598 11.3305Z"/>
</svg>
