<svg width="36" height="36" viewBox="0 0 36 36" fill="none" xmlns="http://www.w3.org/2000/svg">
<g clip-path="url(#clip0_161_186)">
<path fill-rule="evenodd" clip-rule="evenodd" d="M35.8649 6.55382C34.7209 7.07132 33.4623 7.38491 32.2284 7.59234C33.314 7.41023 34.9234 4.8164 35.2342 3.79898C35.327 3.61265 35.1927 3.54655 35.0338 3.62601C33.6564 4.36429 32.2312 4.89937 30.7145 5.27835C30.4298 5.34937 30.2589 4.99569 30.0388 4.81359C24.6564 0.233429 16.6464 4.82624 17.692 11.9208C17.7152 12.0944 17.7004 12.1176 17.5436 12.0944C11.6106 11.2106 6.69298 9.08859 2.70064 4.53866C2.52767 4.34109 2.43345 4.34179 2.29142 4.55413C0.189777 7.70413 1.70642 12.0825 4.48657 14.2495C4.36845 14.2734 2.9165 14.1159 1.62204 13.4473C1.44907 13.3376 1.36189 13.4009 1.34712 13.597C1.17134 16.6795 3.98032 20.2809 7.0361 20.8055C6.46235 20.9313 5.87173 21.0213 4.22712 20.8926C4.02251 20.8533 3.94376 20.9552 4.02251 21.1521C5.2586 24.5208 7.92626 25.5234 9.92454 26.0944C10.1917 26.1415 10.4596 26.1415 10.7282 26.2041C9.26782 28.3746 2.95657 29.4103 0.52798 29.1712C0.359934 29.1466 -0.273582 29.058 0.134934 29.3913C14.5567 38.899 32.5174 28.7241 32.5174 10.6383C32.5174 10.4048 32.7923 10.2769 32.9561 10.1538C33.707 9.58921 35.9999 7.52062 35.9999 6.55382C35.9999 6.45819 36.0112 6.48773 35.8649 6.55382Z" fill="white"/>
</g>
<defs>
<clipPath id="clip0_161_186">
<rect width="36" height="36" fill="white"/>
</clipPath>
</defs>
</svg>
