<svg width="45" height="26" viewBox="0 0 45 26" fill="none" xmlns="http://www.w3.org/2000/svg">
<path fill-rule="evenodd" clip-rule="evenodd" d="M38.7289 16.1924C40.2216 17.6497 41.7971 19.0209 43.1359 20.6252C43.7273 21.3382 44.2872 22.0739 44.7156 22.9013C45.3225 24.0774 44.7728 25.3717 43.7182 25.4419L37.1624 25.439C35.4716 25.5793 34.1228 24.8986 32.9886 23.7425C32.0809 22.818 31.2404 21.8341 30.3676 20.8784C30.0098 20.4877 29.6353 20.1202 29.1879 19.8297C28.293 19.2488 27.5162 19.4266 27.0048 20.36C26.4839 21.3094 26.3657 22.3606 26.3146 23.4186C26.2444 24.9623 25.7777 25.3682 24.2271 25.4388C20.9131 25.5951 17.768 25.0938 14.8464 23.422C12.2705 21.9482 10.273 19.8677 8.53444 17.5122C5.14938 12.9257 2.55711 7.88594 0.227265 2.70494C-0.297163 1.53765 0.086363 0.911059 1.3743 0.888882C3.51296 0.847336 5.65134 0.850293 7.79252 0.885925C8.66174 0.898641 9.23717 1.39719 9.57279 2.21836C10.7299 5.06346 12.1457 7.77032 13.9229 10.2794C14.3961 10.9473 14.8787 11.6153 15.5659 12.0855C16.3262 12.6061 16.905 12.4336 17.2627 11.5867C17.4896 11.0497 17.589 10.4713 17.6402 9.89613C17.8096 7.91743 17.8319 5.94214 17.5347 3.9704C17.3523 2.73983 16.6592 1.94321 15.4313 1.71034C14.8047 1.59162 14.898 1.35846 15.2013 1.00081C15.7283 0.38397 16.2239 0 17.2118 0H24.6208C25.7872 0.230204 26.0462 0.754189 26.2059 1.92783L26.2123 10.1577C26.1996 10.612 26.4392 11.9603 27.2576 12.261C27.9126 12.4751 28.3443 11.9511 28.7373 11.5358C30.5112 9.65306 31.7772 7.42805 32.9083 5.12408C33.4103 4.111 33.8418 3.05889 34.2601 2.00767C34.57 1.22761 35.0563 0.843787 35.935 0.86079L43.0657 0.867147C43.2771 0.867147 43.4911 0.870253 43.6958 0.905293C44.8974 1.11007 45.2267 1.62696 44.8556 2.8003C44.2708 4.6412 43.1331 6.1753 42.0207 7.7165C40.8315 9.36194 39.5597 10.951 38.3804 12.6062C37.297 14.1177 37.383 14.8796 38.7289 16.1924Z" fill="#FFFCFC"/>
</svg>
