<svg width="808" height="137" viewBox="0 0 808 137" fill="none" xmlns="http://www.w3.org/2000/svg">
<g filter="url(#filter0_f_161_161)">
<path d="M20.1357 39.5922C20.1357 61.3954 20.1357 72.6161 20.1357 89.9302C20.1357 90.6156 19.5918 96.9085 18.7125 95.5456C15.7303 90.9228 16.6425 84.1051 16.6425 79.1005C16.6425 74.7593 14.2762 64.9076 19.23 61.4521C22.2637 59.3359 34.6267 63.3269 37.6016 64.1595C40.9777 65.1044 50.5201 69.5798 53.9032 66.6664C59.3155 62.0054 61.0668 52.8491 63.2183 47.0125C63.8582 45.2767 64.4602 39.2915 65.8059 37.9878C68.2477 35.6221 66.1548 35.4885 65.2884 39.5922C62.8746 51.025 64.2378 63.2177 63.4771 74.7887C63.0543 81.2191 61.3657 90.3674 65.2884 96.448C67.7407 100.249 80.525 87.6702 81.8487 85.6184" stroke="white" stroke-width="3" stroke-linecap="round"/>
<path d="M130.753 33.2748C130.753 45.2069 131.502 57.2614 129.589 69.123C129.237 71.3057 129.488 83.2836 124.931 83.8133C120.34 84.3471 116.041 86.0542 111.541 86.972C110.154 87.2548 107.345 86.5207 108.63 86.5207" stroke="white" stroke-width="3" stroke-linecap="round"/>
<path d="M133.082 33.2747C133.082 48.4326 136.771 61.315 143.303 75.4904C145.61 80.4982 146.794 87.2207 151.712 91.033" stroke="white" stroke-width="3" stroke-linecap="round"/>
<path d="M116.781 70.2762H151.713" stroke="white" stroke-width="3" stroke-linecap="round"/>
<path d="M213.426 18.8352C213.426 44.1116 211.097 119.919 211.097 94.643" stroke="white" stroke-width="3" stroke-linecap="round"/>
<path d="M213.426 25.1525C213.426 43.6588 220.921 61.4068 233.221 77.2954C237.71 83.0943 243.7 87.5203 243.7 94.0915C243.7 95.8091 244.431 90.7012 244.929 89.0276C249.405 73.9947 257.886 59.2186 265.112 44.9067C269.904 35.4156 275.783 26.5525 282.06 17.6319C283.166 16.0606 284.454 16.5078 284.454 17.9327" stroke="white" stroke-width="3" stroke-linecap="round"/>
<path d="M311.234 36.8846V95.5454" stroke="white" stroke-width="3" stroke-linecap="round"/>
<path d="M310.07 35.9822C318.785 35.9822 326.466 35.7444 333.099 40.6951C337.474 43.9601 342.02 48.0983 343.838 52.6779C346.109 58.3978 349.034 68.0376 345.261 73.8861C341.568 79.6103 335.149 84.1416 331.029 89.7295C327.603 94.3768 318.998 96.4479 312.399 96.4479" stroke="white" stroke-width="3" stroke-linecap="round"/>
<path d="M413.701 91.0331C415.161 87.2614 424.534 82.676 427.933 79.8023C438.541 70.8329 448.009 61.2119 457.56 51.575C466.694 42.3582 474.67 32.9708 482.401 23.0468C483.148 22.0874 489.463 14.5779 489.387 16.5289C489.132 23.0395 484.189 30.4451 481.624 36.4836C471.952 59.2541 460.443 82.988 456.266 106.826C456.068 107.957 452.837 121.495 456.137 120.765C459.958 119.918 462.892 109.1 464.288 106.877C478.825 83.7158 499.657 63.4816 514.421 40.5949C514.685 40.1865 517.203 36.4717 517.203 38.7899C517.203 40.4683 516.006 42.3998 515.521 44.0042C513.287 51.4035 512.364 58.9302 511.252 66.4658C509.583 77.7705 507.052 89.1575 506.853 100.559C506.817 102.615 506.676 106.412 510.346 103.567C513.671 100.99 518.497 90.9983 518.497 94.643" stroke="white" stroke-width="3" stroke-linecap="round"/>
<path d="M583.704 21.5427C583.704 35.8867 582.844 49.204 578.14 63.0565C575.538 70.7227 572.5 79.4204 567.92 86.5208C565.208 90.7236 562.623 92.6461 558.604 95.1946C556.665 96.4245 554.032 98.5708 551.618 99.1053C550.552 99.3415 545.196 99.1555 546.443 99.1555" stroke="white" stroke-width="3" stroke-linecap="round"/>
<path d="M582.539 24.2501C582.539 43.6061 594.183 62.3402 594.183 81.8079C594.183 86.6737 594.518 92.7156 596.512 97.3505" stroke="white" stroke-width="3" stroke-linecap="round"/>
<path d="M558.087 73.8861H611.649" stroke="white" stroke-width="3" stroke-linecap="round"/>
<path d="M634.938 22.4452V99.1555" stroke="white" stroke-width="3" stroke-linecap="round"/>
<path d="M632.607 24.2501C648.815 24.2501 664.728 36.7091 674.267 45.9095C679.285 50.7496 689.978 64.2719 685.523 71.1788C679.952 79.8142 670.658 89.8051 660.035 95.0442C655.928 97.0703 648.623 94.6431 644.251 94.6431" stroke="white" stroke-width="3" stroke-linecap="round"/>
<path d="M738.568 27.86C738.568 46.2527 736.239 64.5769 736.239 82.9109C736.239 88.3257 736.239 93.7406 736.239 99.1554C736.239 106.127 737.81 104.57 745.102 101.813C757.874 96.9839 769.755 93.7406 783.98 93.7406" stroke="white" stroke-width="3" stroke-linecap="round"/>
<path d="M740.897 28.7625C756.816 28.7625 804.556 29.6649 788.638 29.6649" stroke="white" stroke-width="3" stroke-linecap="round"/>
<path d="M733.911 65.7639C744.302 65.7639 758.553 67.772 767.679 63.0565" stroke="white" stroke-width="3" stroke-linecap="round"/>
</g>
<defs>
<filter id="filter0_f_161_161" x="0.577637" y="0.707642" width="806.706" height="135.585" filterUnits="userSpaceOnUse" color-interpolation-filters="sRGB">
<feFlood flood-opacity="0" result="BackgroundImageFix"/>
<feBlend mode="normal" in="SourceGraphic" in2="BackgroundImageFix" result="shape"/>
<feGaussianBlur stdDeviation="7" result="effect1_foregroundBlur_161_161"/>
</filter>
</defs>
</svg>
