<svg width="1440" height="729" viewBox="0 0 1440 729" fill="none" xmlns="http://www.w3.org/2000/svg">
<path opacity="0.5653" d="M248.928 310.628L226.368 297.532V271.323L226.614 271.196L248.919 258.227L271.479 271.323V297.532L271.25 297.659L248.928 310.628ZM227.318 296.974L248.919 309.528L270.546 296.974V271.882L248.919 259.327L227.318 271.882V296.974Z" fill="#2DBBDA" fill-opacity="0.22"/>
<path opacity="0.901" d="M72.1172 643.228L27.7339 617.384V565.728L27.9701 565.584L72.1172 539.883L116.501 565.736V617.392L116.273 617.535L72.1172 643.228ZM28.6703 616.853L72.1172 642.149L115.573 616.853V566.267L72.1172 540.97L28.6703 566.267V616.853Z" fill="#2DBBDA" fill-opacity="0.22"/>
<path opacity="0.8562" d="M72.4741 694.899L-15.9204 643.419V540.416L-15.6839 540.289L72.4825 488.936L160.886 540.416V643.419L160.658 643.546L72.4741 694.899ZM-14.9915 642.862L72.4657 693.81L159.94 642.862V540.973L72.4657 490.025L-14.9915 540.973V642.862Z" fill="#2DBBDA" fill-opacity="0.22"/>
<path opacity="0.9361" d="M248.55 387.047L248.322 386.903L72.1162 284.249V78.645L72.3528 78.5098L248.55 -24.1528L248.795 -24.0176L425.001 78.645V284.249L424.755 284.376L248.55 387.047ZM73.0542 283.691L248.55 385.948L424.054 283.691V79.1944L248.55 -23.0541L73.0542 79.1944V283.691Z" fill="#2DBBDA" fill-opacity="0.22"/>
<path opacity="0.6204" d="M72.4825 181.811L72.2546 181.667L-15.9204 130.311V27.3381L-15.6839 27.203L72.4825 -24.1528L72.719 -24.0177L160.886 27.3381V130.311L160.658 130.455L72.4825 181.811ZM-14.983 129.78L72.4742 180.713L159.948 129.78V27.8869L72.4742 -23.0551L-14.983 27.8869V129.78Z" fill="#2DBBDA" fill-opacity="0.22"/>
<path opacity="0.9207" d="M424.642 387.048L424.414 386.905L336.235 335.549V232.584L336.463 232.44L424.642 181.085L424.87 181.228L513.041 232.584V335.557L512.813 335.701L424.642 387.048ZM337.172 335.017L424.65 385.959L512.12 335.017V233.116L424.65 182.174L337.172 233.116V335.017Z" fill="#2DBBDA" fill-opacity="0.22"/>
<path opacity="0.7779" d="M248.195 437.991L203.812 412.165V360.488L204.056 360.345L248.195 334.645L292.578 360.488V412.165L292.351 412.292L248.195 437.991ZM204.756 411.609L248.195 436.904L291.65 411.609V361.028L248.195 335.733L204.756 361.028V411.609Z" fill="#2DBBDA" fill-opacity="0.22"/>
<path opacity="0.6118" d="M72.8365 310.628L50.2896 297.532V271.323L50.5187 271.196L72.8365 258.227L95.4005 271.323V297.532L95.1629 297.659L72.8365 310.628ZM51.2145 296.974L72.8281 309.528L94.4416 296.974V271.882L72.8281 259.327L51.2145 271.882V296.974Z" fill="#2DBBDA" fill-opacity="0.22"/>
<path opacity="0.6984" d="M424.27 335.374L379.891 309.542V257.86L380.118 257.734L424.278 232.028L468.657 257.86V309.542L468.43 309.685L424.27 335.374ZM380.819 308.985L424.278 334.286L467.729 308.985V258.392L424.278 233.116L380.819 258.392V308.985Z" fill="#2DBBDA" fill-opacity="0.22"/>
<path opacity="0.8157" d="M424.642 592.281L424.414 592.137L336.235 540.79V437.817L336.463 437.673L424.642 386.317L424.87 386.461L513.041 437.817V540.79L512.813 540.917L424.642 592.281ZM337.172 540.224L424.65 591.183L512.12 540.224V438.348L424.65 387.406L337.172 438.348V540.224Z" fill="#2DBBDA" fill-opacity="0.22"/>
<path opacity="0.5715" d="M131.75 728.377L73.0542 694.189V489.651L248.55 387.407L424.054 489.651V694.189L365.358 728.377H367.234L424.755 694.865L425.001 694.721V489.119L248.795 386.461L248.55 386.317L72.3528 488.975L72.1162 489.119V694.721L129.874 728.377H131.75Z" fill="#2DBBDA" fill-opacity="0.22"/>
<path opacity="0.8677" d="M191.139 728.38L248.554 695.264L305.977 728.38H307.857L248.554 694.174L189.259 728.38H191.139Z" fill="#2DBBDA" fill-opacity="0.22"/>
<path opacity="0.5475" d="M73.0542 728.38V694.765L248.55 592.645L424.054 694.765V728.38H425.001V694.233L248.795 591.674L248.55 591.556L72.3528 694.09L72.1162 694.233V728.38H73.0542Z" fill="#2DBBDA" fill-opacity="0.22"/>
<path opacity="0.8834" d="M248.543 694.899L160.157 643.419V540.416L160.385 540.289L248.551 488.936L336.963 540.416V643.419L336.718 643.546L248.543 694.899ZM161.077 642.862L248.534 693.81L336 642.862V540.973L248.534 490.025L161.077 540.973V642.862Z" fill="#2DBBDA" fill-opacity="0.22"/>
<path opacity="0.5245" d="M395.498 728.377L380.819 719.801V668.997L424.274 643.59L467.729 668.997V719.801L453.05 728.377H454.923L468.657 720.334V668.438L424.274 642.498L379.891 668.438V720.334L393.625 728.377H395.498Z" fill="#2DBBDA" fill-opacity="0.22"/>
<path opacity="0.7529" d="M191.139 728.38L248.554 695.264L305.977 728.38H307.857L248.554 694.174L189.259 728.38H191.139Z" fill="#2DBBDA" fill-opacity="0.22"/>
<path opacity="0.8927" d="M248.928 105.395L226.368 92.2931V66.097L226.614 65.9617L248.919 52.9948L271.479 66.097V92.2931L271.25 92.437L248.928 105.395ZM227.318 91.7518L248.919 104.304L270.546 91.7518V66.6468L248.919 54.0944L227.318 66.6468V91.7518Z" fill="#2DBBDA" fill-opacity="0.22"/>
<path opacity="0.8384" d="M600.35 130.137L555.967 104.292V52.6275L556.195 52.4927L600.35 26.7911L644.734 52.6275V104.292L644.489 104.435L600.35 130.137ZM556.895 103.744L600.35 129.049L643.789 103.744V53.167L600.35 27.8785L556.895 53.167V103.744Z" fill="#2DBBDA" fill-opacity="0.22"/>
<path opacity="0.6654" d="M424.27 437.991L379.891 412.165V360.488L380.118 360.345L424.278 334.645L468.657 360.488V412.165L468.43 412.292L424.27 437.991ZM380.819 411.609L424.278 436.904L467.729 411.609V361.028L424.278 335.733L380.819 361.028V411.609Z" fill="#2DBBDA" fill-opacity="0.22"/>
<path opacity="0.6262" d="M248.928 310.628L226.368 297.532V271.323L226.614 271.196L248.919 258.227L271.479 271.323V297.532L271.25 297.659L248.928 310.628ZM227.318 296.974L248.919 309.528L270.546 296.974V271.882L248.919 259.327L227.318 271.882V296.974Z" fill="#2DBBDA" fill-opacity="0.22"/>
<path opacity="0.5193" d="M248.928 515.865L226.368 502.752V476.561L226.614 476.417L248.919 463.465L271.479 476.561V502.752L271.25 502.896L248.928 515.865ZM227.318 502.211L248.919 514.774L270.546 502.211V477.094L248.919 464.539L227.318 477.094V502.211Z" fill="#2DBBDA" fill-opacity="0.22"/>
<path opacity="0.9905" d="M600.725 592.281L600.48 592.137L512.313 540.79V437.817L512.542 437.673L600.725 386.317L600.953 386.461L689.119 437.817V540.79L688.891 540.917L600.725 592.281ZM513.242 540.224L600.725 591.183L688.182 540.224V438.349L600.725 387.406L513.242 438.349V540.224Z" fill="#2DBBDA" fill-opacity="0.22"/>
<path opacity="0.517" d="M600.365 720.373L577.797 707.265V681.081L600.365 667.972L622.908 681.081V707.265L600.365 720.373ZM578.73 706.732L600.365 719.282L621.974 706.732V681.622L600.365 669.072L578.73 681.622V706.732Z" fill="#2DBBDA" fill-opacity="0.22"/>
<path opacity="0.6479" d="M513.242 728.38V643.574L600.725 592.645L688.19 643.574V728.38H689.119V643.017L600.953 591.674L600.725 591.556L512.542 642.89L512.313 643.017V728.38H513.242Z" fill="#2DBBDA" fill-opacity="0.22"/>
<path opacity="0.9857" d="M776.43 130.137L732.047 104.292V52.6275L732.292 52.4927L776.43 26.7911L820.814 52.6275V104.292L820.586 104.435L776.43 130.137ZM732.975 103.744L776.43 129.049L819.894 103.744V53.167L776.43 27.8785L732.975 53.167V103.744Z" fill="#2DBBDA" fill-opacity="0.22"/>
<path opacity="0.7696" d="M776.795 592.281L776.567 592.137L688.393 540.79V437.817L688.621 437.673L776.787 386.317L777.032 386.461L865.199 437.817V540.79L864.954 540.917L776.795 592.281ZM689.33 540.224L776.795 591.183L864.269 540.224V438.348L776.795 387.406L689.33 438.348V540.224Z" fill="#2DBBDA" fill-opacity="0.22"/>
<path opacity="0.8062" d="M483.916 728.377L425.22 694.189V489.651L600.724 387.407L776.228 489.651V694.189L717.532 728.377H719.392L776.93 694.865L777.158 694.721V489.119L600.952 386.461L600.724 386.317L424.519 488.975L424.273 489.119V694.721L482.04 728.377H483.916Z" fill="#2DBBDA" fill-opacity="0.22"/>
<path opacity="0.9977" d="M776.426 720.373L753.875 707.265V681.081L776.426 667.972L798.986 681.081V707.265L776.426 720.373ZM754.825 706.732L776.426 719.282L798.053 706.732V681.622L776.426 669.072L754.825 681.622V706.732Z" fill="#2DBBDA" fill-opacity="0.22"/>
<path opacity="0.6323" d="M337.164 728.38V643.574L424.638 592.645L512.112 643.574V728.38H513.041V643.017L424.866 591.674L424.638 591.556L336.463 642.89L336.235 643.017V728.38H337.164Z" fill="#2DBBDA" fill-opacity="0.22"/>
<path opacity="0.5774" d="M424.279 720.373L401.719 707.265V681.081L424.279 667.972L446.83 681.081V707.265L424.279 720.373ZM402.652 706.732L424.279 719.282L445.905 706.732V681.622L424.279 669.072L402.652 681.622V706.732Z" fill="#2DBBDA" fill-opacity="0.22"/>
<path opacity="0.6004" d="M337.164 728.38V643.574L424.638 592.645L512.112 643.574V728.38H513.041V643.017L424.866 591.674L424.638 591.556L336.463 642.89L336.235 643.017V728.38H337.164Z" fill="#2DBBDA" fill-opacity="0.22"/>
<path opacity="0.6006" d="M543.299 728.38L600.727 695.264L658.137 728.38H660.017L600.727 694.174L541.419 728.38H543.299Z" fill="#2DBBDA" fill-opacity="0.22"/>
<path opacity="0.6198" d="M600.365 105.395L577.797 92.2931V66.097L578.026 65.9617L600.365 52.9948L622.908 66.097V92.2931L622.679 92.437L600.365 105.395ZM578.73 91.7518L600.365 104.304L621.974 91.7518V66.6468L600.365 54.0944L578.73 66.6468V91.7518Z" fill="#2DBBDA" fill-opacity="0.22"/>
<path opacity="0.9164" d="M600.365 310.628L577.797 297.532V271.323L578.026 271.196L600.365 258.227L622.908 271.323V297.532L622.679 297.659L600.365 310.628ZM578.73 296.974L600.365 309.528L621.974 296.974V271.882L600.365 259.327L578.73 271.882V296.974Z" fill="#2DBBDA" fill-opacity="0.22"/>
<path opacity="0.5577" d="M600.725 592.281L600.48 592.137L512.313 540.79V437.817L512.542 437.673L600.725 386.317L600.953 386.461L689.119 437.817V540.79L688.891 540.917L600.725 592.281ZM513.242 540.224L600.725 591.183L688.182 540.224V438.349L600.725 387.406L513.242 438.349V540.224Z" fill="#2DBBDA" fill-opacity="0.22"/>
<path opacity="0.6643" d="M952.508 540.61L908.125 514.782V463.109L908.353 462.966L952.508 437.264L996.892 463.117V514.79L996.664 514.917L952.508 540.61ZM909.053 514.225L952.508 539.522L995.964 514.225V463.64L952.508 438.343L909.053 463.64V514.225Z" fill="#2DBBDA" fill-opacity="0.22"/>
<path opacity="0.9482" d="M776.783 694.899L688.393 643.419V540.416L688.621 540.289L776.783 488.936L865.199 540.416V643.419L864.954 643.546L776.783 694.899ZM689.322 642.862L776.783 693.81L864.253 642.862V540.973L776.783 490.025L689.322 540.973V642.862Z" fill="#2DBBDA" fill-opacity="0.22"/>
<path opacity="0.8287" d="M952.872 592.284L952.644 592.14L776.43 489.476V283.884L776.658 283.758L952.872 181.084L953.1 181.228L1129.31 283.876V489.459L1129.09 489.602L952.872 592.284ZM777.359 488.935L952.872 591.185L1128.38 488.935V284.442L952.872 182.191L777.359 284.442V488.935Z" fill="#2DBBDA" fill-opacity="0.22"/>
<path opacity="0.9627" d="M776.426 310.628L753.875 297.532V271.323L754.121 271.196L776.426 258.227L798.986 271.323V297.532L798.757 297.659L776.426 310.628ZM754.825 296.974L776.426 309.528L798.053 296.974V271.881L776.426 259.327L754.825 271.881V296.974Z" fill="#2DBBDA" fill-opacity="0.22"/>
<path opacity="0.6877" d="M1128.23 387.048L1127.99 386.904L1039.82 335.549V232.584L1040.05 232.44L1128.23 181.084L1128.46 181.228L1216.63 232.584V335.557L1216.4 335.701L1128.23 387.048ZM1040.75 335.017L1128.23 385.959L1215.69 335.017V233.116L1128.23 182.174L1040.75 233.116V335.017Z" fill="#2DBBDA" fill-opacity="0.22"/>
<path opacity="0.5544" d="M952.508 643.228L908.125 617.384V565.728L908.353 565.584L952.508 539.883L996.892 565.736V617.392L996.664 617.535L952.508 643.228ZM909.053 616.853L952.508 642.149L995.964 616.853V566.267L952.508 540.97L909.053 566.267V616.853Z" fill="#2DBBDA" fill-opacity="0.22"/>
<path opacity="0.8016" d="M952.884 489.665L952.656 489.522L864.469 438.174V335.201L864.714 335.057L952.884 283.701L953.112 283.845L1041.27 335.192V438.166L1041.05 438.309L952.884 489.665ZM865.423 437.634L952.884 488.576L1040.35 437.634V335.733L952.884 284.791L865.423 335.733V437.634Z" fill="#2DBBDA" fill-opacity="0.22"/>
<path opacity="0.5003" d="M895.454 728.38L952.873 695.264L1010.29 728.38H1012.17L952.873 694.174L893.574 728.38H895.454Z" fill="#2DBBDA" fill-opacity="0.22"/>
<path opacity="0.7569" d="M689.322 728.38V643.574L776.783 592.645L864.253 643.574V728.38H865.199V643.017L777.028 591.674L776.783 591.556L688.621 642.89L688.393 643.017V728.38H689.322Z" fill="#2DBBDA" fill-opacity="0.22"/>
<path opacity="0.9339" d="M952.884 694.899L864.469 643.419V540.416L864.714 540.289L952.884 488.936L1041.27 540.416V643.419L1041.05 643.546L952.884 694.899ZM865.423 642.862L952.884 693.81L1040.35 642.862V540.973L952.884 490.025L865.423 540.973V642.862Z" fill="#2DBBDA" fill-opacity="0.22"/>
<path opacity="0.6722" d="M1099.81 728.377L1085.15 719.801V668.997L1128.59 643.59L1172.02 668.997V719.801L1157.36 728.377H1159.22L1172.97 720.334V668.438L1128.59 642.498L1084.2 668.438V720.334L1097.96 728.377H1099.81Z" fill="#2DBBDA" fill-opacity="0.22"/>
<path opacity="0.5645" d="M895.454 728.38L952.873 695.264L1010.29 728.38H1012.17L952.873 694.174L893.574 728.38H895.454Z" fill="#2DBBDA" fill-opacity="0.22"/>
<path opacity="0.7115" d="M952.509 105.395L929.954 92.2931V66.097L930.183 65.9617L952.509 52.9948L975.065 66.097V92.2931L974.819 92.437L952.509 105.395ZM930.896 91.7518L952.518 104.304L974.123 91.7518V66.6468L952.518 54.0944L930.896 66.6468V91.7518Z" fill="#2DBBDA" fill-opacity="0.22"/>
<path opacity="0.6307" d="M952.884 181.811L952.656 181.667L864.469 130.311V27.3381L864.714 27.203L952.884 -24.1528L953.112 -24.0177L1041.27 27.3381V130.311L1041.05 130.455L952.884 181.811ZM865.423 129.78L952.884 180.713L1040.35 129.78V27.8869L952.884 -23.0551L865.423 27.8869V129.78Z" fill="#2DBBDA" fill-opacity="0.22"/>
<path opacity="0.9278" d="M1304.29 181.811L1304.07 181.667L1215.9 130.311V27.3381L1216.13 27.203L1304.29 -24.1528L1392.7 27.3297V130.303L1392.46 130.447L1304.29 181.811ZM1216.84 129.78L1304.29 180.713L1391.75 129.78V27.8869L1304.29 -23.0551L1216.84 27.8869V129.78Z" fill="#2DBBDA" fill-opacity="0.22"/>
<path opacity="0.6392" d="M1304.28 387.048L1215.9 335.549V232.584L1216.13 232.44L1304.29 181.084L1392.7 232.584V335.557L1392.46 335.701L1304.28 387.048ZM1216.83 335.017L1304.28 385.959L1391.74 335.017V233.116L1304.28 182.174L1216.83 233.116V335.017Z" fill="#2DBBDA" fill-opacity="0.22"/>
<path opacity="0.8937" d="M1128.23 592.284L1127.99 592.14L951.782 489.476V283.884L952.027 283.758L1128.23 181.084L1128.46 181.228L1304.67 283.876V489.459L1304.44 489.602L1128.23 592.284ZM952.737 488.935L1128.24 591.185L1303.75 488.935V284.442L1128.24 182.191L952.737 284.442V488.935Z" fill="#2DBBDA" fill-opacity="0.22"/>
<path opacity="0.6526" d="M952.509 310.628L929.954 297.532V271.323L930.183 271.196L952.509 258.227L975.065 271.323V297.532L974.819 297.659L952.509 310.628ZM930.896 296.974L952.518 309.528L974.123 296.974V271.881L952.518 259.327L930.896 271.881V296.974Z" fill="#2DBBDA" fill-opacity="0.22"/>
<path opacity="0.6213" d="M952.509 515.865L929.954 502.752V476.561L930.183 476.417L952.509 463.465L975.065 476.561V502.752L974.819 502.896L952.509 515.865ZM930.896 502.211L952.518 514.774L974.123 502.211V477.094L952.518 464.539L930.896 477.094V502.211Z" fill="#2DBBDA" fill-opacity="0.22"/>
<path opacity="0.9916" d="M1304.67 720.373L1282.11 707.265V681.081L1304.67 667.972L1327.22 681.081V707.265L1304.67 720.373ZM1283.07 706.732L1304.67 719.282L1326.3 706.732V681.622L1304.67 669.072L1283.07 681.622V706.732Z" fill="#2DBBDA" fill-opacity="0.22"/>
<path opacity="0.5206" d="M1128.6 310.628L1106.03 297.532V271.323L1106.26 271.196L1128.6 258.227L1151.14 271.323V297.532L1150.91 297.659L1128.6 310.628ZM1106.97 296.974L1128.61 309.528L1150.23 296.974V271.882L1128.61 259.327L1106.97 271.882V296.974Z" fill="#2DBBDA" fill-opacity="0.22"/>
<path opacity="0.5092" d="M1128.23 387.048L1127.99 386.904L1039.82 335.549V232.584L1040.05 232.44L1128.23 181.084L1128.46 181.228L1216.63 232.584V335.557L1216.4 335.701L1128.23 387.048ZM1040.75 335.017L1128.23 385.959L1215.69 335.017V233.116L1128.23 182.174L1040.75 233.116V335.017Z" fill="#2DBBDA" fill-opacity="0.22"/>
<path opacity="0.6455" d="M1440 567.169L1392.93 539.884V437.967L1440 410.682V409.609L1392.22 437.283L1391.98 437.435V540.441L1440 568.267V567.169Z" fill="#2DBBDA" fill-opacity="0.22"/>
<path opacity="0.5075" d="M1304.28 694.899L1215.9 643.419V540.416L1216.13 540.289L1304.29 488.936L1392.7 540.416V643.419L1392.46 643.546L1304.28 694.899ZM1216.83 642.862L1304.28 693.81L1391.74 642.862V540.973L1304.28 490.025L1216.83 540.973V642.862Z" fill="#2DBBDA" fill-opacity="0.22"/>
<path opacity="0.6536" d="M1440 516.225L1437.26 514.582V464.02L1440 462.377V461.281L1436.58 463.346L1436.36 463.489V515.139L1440 517.321V516.225Z" fill="#2DBBDA" fill-opacity="0.22"/>
<path opacity="0.716" d="M1247.61 728.38L1305.03 695.264L1362.45 728.38H1364.33L1305.03 694.174L1245.73 728.38H1247.61Z" fill="#2DBBDA" fill-opacity="0.22"/>
<path opacity="0.6878" d="M1040.74 728.38V643.574L1128.23 592.645L1215.7 643.574V728.38H1216.63V643.017L1128.46 591.674L1128.23 591.556L1040.07 642.89L1039.82 643.017V728.38H1040.74Z" fill="#2DBBDA" fill-opacity="0.22"/>
<path opacity="0.8538" d="M1304.28 694.899L1215.9 643.419V540.416L1216.13 540.289L1304.29 488.936L1392.7 540.416V643.419L1392.46 643.546L1304.28 694.899ZM1216.83 642.862L1304.28 693.81L1391.74 642.862V540.973L1304.28 490.025L1216.83 540.973V642.862Z" fill="#2DBBDA" fill-opacity="0.22"/>
<path opacity="0.811" d="M1440 567.168L1304.87 488.599V284.042L1440 205.473V204.374L1304.17 283.366L1303.94 283.484V489.131L1440 568.267V567.168Z" fill="#2DBBDA" fill-opacity="0.22"/>
<path opacity="0.6353" d="M1363.7 728.38L1304.87 694.147V489.34L1440 410.684V409.609L1304.17 488.663L1303.94 488.807V694.68L1361.82 728.38H1363.7Z" fill="#2DBBDA" fill-opacity="0.22"/>
<path opacity="0.9972" d="M1440 464.56L1392.93 437.299V335.343L1440 308.082V306.992L1392.22 334.667L1391.98 334.811V437.831L1440 465.65V464.56Z" fill="#2DBBDA" fill-opacity="0.22"/>
<path opacity="0.9775" d="M1423.66 728.379L1440 718.567V717.462L1421.81 728.379H1423.66Z" fill="#2DBBDA" fill-opacity="0.22"/>
<path opacity="0.6343" d="M1423.66 728.379L1440 718.567V717.462L1421.81 728.379H1423.66Z" fill="#2DBBDA" fill-opacity="0.22"/>
<path opacity="0.8543" d="M1440 157.457L1392.93 130.169V28.2248L1440 0.945532V-0.135864L1392.22 27.5405L1391.98 27.6757V130.702L1440 158.522V157.457Z" fill="#2DBBDA" fill-opacity="0.22"/>
<path opacity="0.6795" d="M1392.93 728.38V643.301L1440 615.946V614.845L1392.22 642.615L1391.98 642.742V728.38H1392.93Z" fill="#2DBBDA" fill-opacity="0.22"/>
<path opacity="0.8144" d="M231.461 296.811C231.461 300.018 229.012 302.625 226.004 302.625C222.996 302.625 220.547 300.018 220.547 296.811C220.547 293.587 222.996 290.98 226.004 290.98C229.02 290.98 231.461 293.596 231.461 296.811Z" fill="#2DBBDA" fill-opacity="0.22"/>
<path opacity="0.728" d="M254.016 309.91C254.016 313.117 251.592 315.724 248.56 315.724C245.552 315.724 243.103 313.117 243.103 309.91C243.103 306.686 245.552 304.079 248.56 304.079C251.584 304.07 254.016 306.677 254.016 309.91Z" fill="#2DBBDA" fill-opacity="0.22"/>
<path opacity="0.7587" d="M275.844 296.811C275.844 300.018 273.401 302.625 270.375 302.625C267.374 302.625 264.93 300.018 264.93 296.811C264.93 293.587 267.374 290.98 270.375 290.98C273.401 290.98 275.844 293.596 275.844 296.811Z" fill="#2DBBDA" fill-opacity="0.22"/>
<path opacity="0.6915" d="M121.594 617.745C121.594 620.969 119.161 623.576 116.137 623.576C113.129 623.576 110.68 620.969 110.68 617.745C110.68 614.539 113.129 611.932 116.137 611.932C119.161 611.932 121.594 614.548 121.594 617.745Z" fill="#2DBBDA" fill-opacity="0.22"/>
<path opacity="0.7801" d="M165.977 540.618C165.977 543.825 163.528 546.432 160.52 546.432C157.504 546.432 155.063 543.825 155.063 540.618C155.063 537.394 157.504 534.787 160.52 534.787C163.528 534.779 165.977 537.386 165.977 540.618Z" fill="#2DBBDA" fill-opacity="0.22"/>
<path opacity="0.7332" d="M77.9393 284.42C77.9393 287.644 75.4921 290.251 72.4782 290.251C69.4725 290.251 67.0254 287.644 67.0254 284.42C67.0254 281.214 69.4725 278.607 72.4782 278.607C75.4921 278.607 77.9393 281.214 77.9393 284.42Z" fill="#2DBBDA" fill-opacity="0.22"/>
<path opacity="0.6303" d="M77.9393 79.2017C77.9393 82.4122 75.4921 85.0153 72.4782 85.0153C69.4725 85.0153 67.0254 82.4122 67.0254 79.2017C67.0254 75.9825 69.4725 73.3707 72.4782 73.3707C75.4921 73.3707 77.9393 75.9739 77.9393 79.2017Z" fill="#2DBBDA" fill-opacity="0.22"/>
<path opacity="0.5225" d="M165.976 130.128C165.976 133.352 163.536 135.959 160.519 135.959C157.503 135.959 155.062 133.352 155.062 130.128C155.062 126.921 157.503 124.314 160.519 124.314C163.536 124.314 165.976 126.93 165.976 130.128Z" fill="#2DBBDA" fill-opacity="0.22"/>
<path opacity="0.9423" d="M254.016 438.004C254.016 441.2 251.592 443.813 248.56 443.813C245.552 443.813 243.103 441.2 243.103 438.004C243.103 434.783 245.552 432.169 248.56 432.169C251.584 432.178 254.016 434.783 254.016 438.004Z" fill="#2DBBDA" fill-opacity="0.22"/>
<path opacity="0.8348" d="M297.673 360.847C297.673 364.066 295.23 366.669 292.229 366.669C289.203 366.669 286.759 364.066 286.759 360.847C286.759 357.654 289.203 355.024 292.229 355.024C295.238 355.024 297.673 357.654 297.673 360.847Z" fill="#2DBBDA" fill-opacity="0.22"/>
<path opacity="0.6404" d="M209.634 360.847C209.634 364.066 207.185 366.669 204.177 366.669C201.169 366.669 198.72 364.066 198.72 360.847C198.72 357.654 201.169 355.024 204.177 355.024C207.185 355.024 209.634 357.654 209.634 360.847Z" fill="#2DBBDA" fill-opacity="0.22"/>
<path opacity="0.8945" d="M385.712 309.91C385.712 313.117 383.269 315.724 380.268 315.724C377.242 315.724 374.798 313.117 374.798 309.91C374.798 306.686 377.242 304.079 380.268 304.079C383.269 304.07 385.712 306.677 385.712 309.91Z" fill="#2DBBDA" fill-opacity="0.22"/>
<path opacity="0.8456" d="M430.096 335.383C430.096 338.607 427.647 341.196 424.639 341.196C421.631 341.196 419.182 338.607 419.182 335.383C419.182 332.159 421.631 329.552 424.639 329.552C427.647 329.543 430.096 332.159 430.096 335.383Z" fill="#2DBBDA" fill-opacity="0.22"/>
<path opacity="0.9902" d="M342.055 540.618C342.055 543.825 339.606 546.432 336.598 546.432C333.59 546.432 331.141 543.825 331.141 540.618C331.141 537.394 333.59 534.787 336.598 534.787C339.606 534.787 342.055 537.386 342.055 540.618Z" fill="#2DBBDA" fill-opacity="0.22"/>
<path opacity="0.7274" d="M430.096 694.91C430.096 698.117 427.647 700.724 424.639 700.724C421.631 700.724 419.182 698.117 419.182 694.91C419.182 691.686 421.631 689.079 424.639 689.079C427.647 689.079 430.096 691.686 430.096 694.91Z" fill="#2DBBDA" fill-opacity="0.22"/>
<path opacity="0.9855" d="M254.016 592.287C254.016 595.504 251.592 598.105 248.56 598.105C245.552 598.105 243.103 595.504 243.103 592.287C243.103 589.071 245.552 586.461 248.56 586.461C251.584 586.461 254.016 589.071 254.016 592.287Z" fill="#2DBBDA" fill-opacity="0.22"/>
<path opacity="0.5371" d="M385.712 720.373C385.712 723.592 383.269 726.195 380.268 726.195C377.242 726.195 374.798 723.592 374.798 720.373C374.798 717.154 377.242 714.55 380.268 714.55C383.269 714.542 385.712 717.145 385.712 720.373Z" fill="#2DBBDA" fill-opacity="0.22"/>
<path opacity="0.7825" d="M248.56 59.5425C251.573 59.5425 254.016 56.9358 254.016 53.7202C254.016 50.5047 251.573 47.8979 248.56 47.8979C245.546 47.8979 243.103 50.5047 243.103 53.7202C243.103 56.9358 245.546 59.5425 248.56 59.5425Z" fill="#2DBBDA" fill-opacity="0.22"/>
<path opacity="0.5344" d="M473.75 412.511C473.75 415.735 471.306 418.342 468.281 418.342C465.279 418.342 462.836 415.727 462.836 412.511C462.836 409.305 465.279 406.698 468.281 406.698C471.306 406.706 473.75 409.313 473.75 412.511Z" fill="#2DBBDA" fill-opacity="0.22"/>
<path opacity="0.9922" d="M385.712 360.847C385.712 364.066 383.269 366.669 380.268 366.669C377.242 366.669 374.798 364.066 374.798 360.847C374.798 357.654 377.242 355.024 380.268 355.024C383.269 355.024 385.712 357.654 385.712 360.847Z" fill="#2DBBDA" fill-opacity="0.22"/>
<path opacity="0.6301" d="M231.461 296.811C231.461 300.018 229.012 302.625 226.004 302.625C222.996 302.625 220.547 300.018 220.547 296.811C220.547 293.587 222.996 290.98 226.004 290.98C229.02 290.98 231.461 293.596 231.461 296.811Z" fill="#2DBBDA" fill-opacity="0.22"/>
<path opacity="0.8077" d="M275.844 476.561C275.844 479.778 273.401 482.388 270.375 482.388C267.374 482.388 264.93 479.778 264.93 476.561C264.93 473.345 267.374 470.744 270.375 470.744C273.401 470.744 275.844 473.345 275.844 476.561Z" fill="#2DBBDA" fill-opacity="0.22"/>
<path opacity="0.7663" d="M518.135 540.618C518.135 543.825 515.686 546.432 512.678 546.432C509.645 546.432 507.221 543.825 507.221 540.618C507.221 537.394 509.645 534.787 512.678 534.787C515.686 534.779 518.135 537.386 518.135 540.618Z" fill="#2DBBDA" fill-opacity="0.22"/>
<path opacity="0.5432" d="M606.174 592.287C606.174 595.504 603.73 598.105 600.729 598.105C597.703 598.105 595.26 595.504 595.26 592.287C595.26 589.071 597.703 586.461 600.729 586.461C603.73 586.461 606.174 589.071 606.174 592.287Z" fill="#2DBBDA" fill-opacity="0.22"/>
<path opacity="0.8535" d="M694.212 540.618C694.212 543.825 691.768 546.432 688.743 546.432C685.741 546.432 683.298 543.825 683.298 540.618C683.298 537.394 685.741 534.787 688.743 534.787C691.768 534.779 694.212 537.386 694.212 540.618Z" fill="#2DBBDA" fill-opacity="0.22"/>
<path opacity="0.5589" d="M694.212 438.004C694.212 441.2 691.768 443.813 688.743 443.813C685.741 443.813 683.298 441.2 683.298 438.004C683.298 434.783 685.741 432.169 688.743 432.169C691.768 432.178 694.212 434.783 694.212 438.004Z" fill="#2DBBDA" fill-opacity="0.22"/>
<path opacity="0.8499" d="M606.174 387.039C606.174 390.262 603.73 392.869 600.729 392.869C597.703 392.869 595.26 390.262 595.26 387.039C595.26 383.841 597.703 381.225 600.729 381.225C603.73 381.225 606.174 383.841 606.174 387.039Z" fill="#2DBBDA" fill-opacity="0.22"/>
<path opacity="0.6091" d="M583.617 681.81C583.617 685.008 581.174 687.624 578.148 687.624C575.147 687.624 572.703 685.008 572.703 681.81C572.703 678.586 575.147 675.979 578.148 675.979C581.174 675.979 583.617 678.586 583.617 681.81Z" fill="#2DBBDA" fill-opacity="0.22"/>
<path opacity="0.5784" d="M782.252 27.5197C782.252 30.735 779.827 33.342 776.795 33.342C773.787 33.342 771.338 30.735 771.338 27.5197C771.338 24.3044 773.787 21.6974 776.795 21.6974C779.827 21.6974 782.252 24.3044 782.252 27.5197Z" fill="#2DBBDA" fill-opacity="0.22"/>
<path opacity="0.7656" d="M782.252 592.287C782.252 595.504 779.827 598.105 776.795 598.105C773.787 598.105 771.338 595.504 771.338 592.287C771.338 589.071 773.787 586.461 776.795 586.461C779.827 586.461 782.252 589.071 782.252 592.287Z" fill="#2DBBDA" fill-opacity="0.22"/>
<path opacity="0.5656" d="M430.096 694.91C430.096 698.117 427.647 700.724 424.639 700.724C421.631 700.724 419.182 698.117 419.182 694.91C419.182 691.686 421.631 689.079 424.639 689.079C427.647 689.079 430.096 691.686 430.096 694.91Z" fill="#2DBBDA" fill-opacity="0.22"/>
<path opacity="0.9124" d="M759.697 707.273C759.697 710.492 757.248 713.095 754.24 713.095C751.232 713.095 748.783 710.492 748.783 707.273C748.783 704.053 751.232 701.45 754.24 701.45C757.248 701.442 759.697 704.045 759.697 707.273Z" fill="#2DBBDA" fill-opacity="0.22"/>
<path opacity="0.9768" d="M407.539 707.273C407.539 710.492 405.09 713.095 402.082 713.095C399.074 713.095 396.625 710.492 396.625 707.273C396.625 704.053 399.074 701.45 402.082 701.45C405.09 701.442 407.539 704.045 407.539 707.273Z" fill="#2DBBDA" fill-opacity="0.22"/>
<path opacity="0.9016" d="M583.617 92.2932C583.617 95.5085 581.174 98.1155 578.148 98.1155C575.147 98.1155 572.703 95.5085 572.703 92.2932C572.703 89.078 575.147 86.4709 578.148 86.4709C581.174 86.4709 583.617 89.078 583.617 92.2932Z" fill="#2DBBDA" fill-opacity="0.22"/>
<path opacity="0.6844" d="M606.174 258.949C606.174 262.173 603.73 264.78 600.729 264.78C597.703 264.78 595.26 262.173 595.26 258.949C595.26 255.742 597.703 253.135 600.729 253.135C603.73 253.135 606.174 255.742 606.174 258.949Z" fill="#2DBBDA" fill-opacity="0.22"/>
<path opacity="0.9473" d="M957.601 540.618C957.601 543.825 955.152 546.432 952.144 546.432C949.136 546.432 946.688 543.825 946.688 540.618C946.688 537.394 949.136 534.787 952.144 534.787C955.152 534.779 957.601 537.386 957.601 540.618Z" fill="#2DBBDA" fill-opacity="0.22"/>
<path opacity="0.9003" d="M869.563 540.618C869.563 543.825 867.114 546.432 864.106 546.432C861.099 546.432 858.649 543.825 858.649 540.618C858.649 537.394 861.099 534.787 864.106 534.787C867.114 534.779 869.563 537.386 869.563 540.618Z" fill="#2DBBDA" fill-opacity="0.22"/>
<path opacity="0.935" d="M782.252 489.669C782.252 492.886 779.827 495.487 776.795 495.487C773.787 495.487 771.338 492.886 771.338 489.669C771.338 486.469 773.787 483.842 776.795 483.842C779.827 483.842 782.252 486.469 782.252 489.669Z" fill="#2DBBDA" fill-opacity="0.22"/>
<path opacity="0.5725" d="M782.252 284.42C782.252 287.644 779.827 290.251 776.795 290.251C773.787 290.251 771.338 287.644 771.338 284.42C771.338 281.214 773.787 278.607 776.795 278.607C779.827 278.607 782.252 281.214 782.252 284.42Z" fill="#2DBBDA" fill-opacity="0.22"/>
<path opacity="0.7228" d="M804.081 296.811C804.081 300.018 801.637 302.625 798.612 302.625C795.61 302.625 793.167 300.018 793.167 296.811C793.167 293.587 795.61 290.98 798.612 290.98C801.637 290.98 804.081 293.596 804.081 296.811Z" fill="#2DBBDA" fill-opacity="0.22"/>
<path opacity="0.7894" d="M1133.68 181.819C1133.68 185.025 1131.24 187.632 1128.23 187.632C1125.2 187.632 1122.77 185.025 1122.77 181.819C1122.77 178.595 1125.21 175.988 1128.23 175.988C1131.24 175.988 1133.68 178.595 1133.68 181.819Z" fill="#2DBBDA" fill-opacity="0.22"/>
<path opacity="0.8898" d="M1045.64 232.76C1045.64 235.977 1043.19 238.578 1040.18 238.578C1037.15 238.578 1034.73 235.977 1034.73 232.76C1034.73 229.543 1037.15 226.933 1040.18 226.933C1043.19 226.933 1045.64 229.543 1045.64 232.76Z" fill="#2DBBDA" fill-opacity="0.22"/>
<path opacity="0.5427" d="M913.946 566.095C913.946 569.3 911.503 571.905 908.502 571.905C905.476 571.905 903.032 569.3 903.032 566.095C903.032 562.874 905.476 560.26 908.502 560.26C911.503 560.26 913.946 562.874 913.946 566.095Z" fill="#2DBBDA" fill-opacity="0.22"/>
<path opacity="0.8321" d="M1045.64 438.004C1045.64 441.2 1043.19 443.813 1040.18 443.813C1037.15 443.813 1034.73 441.2 1034.73 438.004C1034.73 434.783 1037.15 432.169 1040.18 432.169C1043.19 432.178 1045.64 434.783 1045.64 438.004Z" fill="#2DBBDA" fill-opacity="0.22"/>
<path opacity="0.5515" d="M957.601 694.91C957.601 698.117 955.152 700.724 952.144 700.724C949.136 700.724 946.688 698.117 946.688 694.91C946.688 691.686 949.136 689.079 952.144 689.079C955.152 689.079 957.601 691.686 957.601 694.91Z" fill="#2DBBDA" fill-opacity="0.22"/>
<path opacity="0.7361" d="M782.252 592.287C782.252 595.504 779.827 598.105 776.795 598.105C773.787 598.105 771.338 595.504 771.338 592.287C771.338 589.071 773.787 586.461 776.795 586.461C779.827 586.461 782.252 589.071 782.252 592.287Z" fill="#2DBBDA" fill-opacity="0.22"/>
<path opacity="0.5694" d="M1045.64 643.22C1045.64 646.444 1043.2 649.051 1040.19 649.051C1037.16 649.051 1034.73 646.444 1034.73 643.22C1034.73 640.013 1037.17 637.406 1040.19 637.406C1043.2 637.415 1045.64 640.022 1045.64 643.22Z" fill="#2DBBDA" fill-opacity="0.22"/>
<path opacity="0.7041" d="M869.563 540.618C869.563 543.825 867.114 546.432 864.106 546.432C861.099 546.432 858.649 543.825 858.649 540.618C858.649 537.394 861.099 534.787 864.106 534.787C867.114 534.779 869.563 537.386 869.563 540.618Z" fill="#2DBBDA" fill-opacity="0.22"/>
<path opacity="0.9472" d="M1178.06 720.373C1178.06 723.592 1175.62 726.195 1172.61 726.195C1169.6 726.195 1167.15 723.592 1167.15 720.373C1167.15 717.153 1169.6 714.55 1172.61 714.55C1175.62 714.55 1178.06 717.145 1178.06 720.373Z" fill="#2DBBDA" fill-opacity="0.22"/>
<path opacity="0.988" d="M1133.68 643.22C1133.68 646.444 1131.24 649.051 1128.23 649.051C1125.2 649.051 1122.77 646.444 1122.77 643.22C1122.77 640.013 1125.21 637.406 1128.23 637.406C1131.24 637.415 1133.68 640.022 1133.68 643.22Z" fill="#2DBBDA" fill-opacity="0.22"/>
<path opacity="0.5764" d="M952.144 59.5425C955.158 59.5425 957.601 56.9358 957.601 53.7202C957.601 50.5047 955.158 47.8979 952.144 47.8979C949.131 47.8979 946.688 50.5047 946.688 53.7202C946.688 56.9358 949.131 59.5425 952.144 59.5425Z" fill="#2DBBDA" fill-opacity="0.22"/>
<path opacity="0.6501" d="M869.563 130.128C869.563 133.352 867.114 135.959 864.106 135.959C861.099 135.959 858.649 133.352 858.649 130.128C858.649 126.921 861.099 124.314 864.106 124.314C867.114 124.314 869.563 126.93 869.563 130.128Z" fill="#2DBBDA" fill-opacity="0.22"/>
<path opacity="0.6553" d="M1221.72 130.128C1221.72 133.352 1219.28 135.959 1216.25 135.959C1213.25 135.959 1210.81 133.352 1210.81 130.128C1210.81 126.921 1213.25 124.314 1216.25 124.314C1219.28 124.314 1221.72 126.93 1221.72 130.128Z" fill="#2DBBDA" fill-opacity="0.22"/>
<path opacity="0.6531" d="M1309.76 387.039C1309.76 390.262 1307.33 392.869 1304.3 392.869C1301.29 392.869 1298.84 390.262 1298.84 387.039C1298.84 383.841 1301.29 381.225 1304.3 381.225C1307.33 381.225 1309.76 383.841 1309.76 387.039Z" fill="#2DBBDA" fill-opacity="0.22"/>
<path opacity="0.7985" d="M1397.8 335.383C1397.8 338.607 1395.35 341.196 1392.34 341.196C1389.33 341.196 1386.88 338.607 1386.88 335.383C1386.88 332.159 1389.33 329.552 1392.34 329.552C1395.35 329.543 1397.8 332.159 1397.8 335.383Z" fill="#2DBBDA" fill-opacity="0.22"/>
<path opacity="0.8668" d="M935.774 296.811C935.774 300.018 933.325 302.625 930.317 302.625C927.285 302.625 924.86 300.018 924.86 296.811C924.86 293.587 927.285 290.98 930.317 290.98C933.325 290.98 935.774 293.596 935.774 296.811Z" fill="#2DBBDA" fill-opacity="0.22"/>
<path opacity="0.8785" d="M957.601 258.949C957.601 262.173 955.152 264.78 952.144 264.78C949.136 264.78 946.688 262.173 946.688 258.949C946.688 255.742 949.136 253.135 952.144 253.135C955.152 253.135 957.601 255.742 957.601 258.949Z" fill="#2DBBDA" fill-opacity="0.22"/>
<path opacity="0.74" d="M935.774 502.024C935.774 505.245 933.325 507.859 930.317 507.859C927.285 507.859 924.86 505.245 924.86 502.024C924.86 498.82 927.285 496.215 930.317 496.215C933.325 496.215 935.774 498.82 935.774 502.024Z" fill="#2DBBDA" fill-opacity="0.22"/>
<path opacity="0.9974" d="M957.601 515.13C957.601 518.354 955.152 520.961 952.144 520.961C949.136 520.961 946.688 518.354 946.688 515.13C946.688 511.932 949.136 509.316 952.144 509.316C955.152 509.316 957.601 511.923 957.601 515.13Z" fill="#2DBBDA" fill-opacity="0.22"/>
<path opacity="0.9965" d="M980.159 476.561C980.159 479.778 977.71 482.388 974.702 482.388C971.694 482.388 969.245 479.778 969.245 476.561C969.245 473.345 971.694 470.744 974.702 470.744C977.71 470.744 980.159 473.345 980.159 476.561Z" fill="#2DBBDA" fill-opacity="0.22"/>
<path opacity="0.5958" d="M935.774 476.561C935.774 479.778 933.325 482.388 930.317 482.388C927.285 482.388 924.86 479.778 924.86 476.561C924.86 473.345 927.285 470.744 930.317 470.744C933.325 470.744 935.774 473.345 935.774 476.561Z" fill="#2DBBDA" fill-opacity="0.22"/>
<path opacity="0.502" d="M1309.76 720.373C1309.76 723.592 1307.34 726.195 1304.3 726.195C1301.29 726.195 1298.85 723.592 1298.85 720.373C1298.85 717.154 1301.29 714.55 1304.3 714.55C1307.34 714.542 1309.76 717.145 1309.76 720.373Z" fill="#2DBBDA" fill-opacity="0.22"/>
<path opacity="0.8656" d="M1309.76 668.71C1309.76 671.916 1307.34 674.523 1304.3 674.523C1301.29 674.523 1298.85 671.916 1298.85 668.71C1298.85 665.486 1301.29 662.879 1304.3 662.879C1307.34 662.879 1309.76 665.486 1309.76 668.71Z" fill="#2DBBDA" fill-opacity="0.22"/>
<path opacity="0.6714" d="M1156.24 296.811C1156.24 300.018 1153.79 302.625 1150.78 302.625C1147.75 302.625 1145.32 300.018 1145.32 296.811C1145.32 293.587 1147.75 290.98 1150.78 290.98C1153.79 290.98 1156.24 293.596 1156.24 296.811Z" fill="#2DBBDA" fill-opacity="0.22"/>
<path opacity="0.9386" d="M1111.85 271.32C1111.85 274.544 1109.41 277.151 1106.38 277.151C1103.38 277.151 1100.94 274.544 1100.94 271.32C1100.94 268.122 1103.38 265.506 1106.38 265.506C1109.41 265.506 1111.85 268.113 1111.85 271.32Z" fill="#2DBBDA" fill-opacity="0.22"/>
<path opacity="0.8257" d="M1221.72 232.76C1221.72 235.977 1219.28 238.578 1216.25 238.578C1213.25 238.578 1210.81 235.977 1210.81 232.76C1210.81 229.543 1213.25 226.933 1216.25 226.933C1219.28 226.933 1221.72 229.543 1221.72 232.76Z" fill="#2DBBDA" fill-opacity="0.22"/>
<path opacity="0.8822" d="M1133.68 181.819C1133.68 185.025 1131.24 187.632 1128.23 187.632C1125.2 187.632 1122.77 185.025 1122.77 181.819C1122.77 178.595 1125.21 175.988 1128.23 175.988C1131.24 175.988 1133.68 178.595 1133.68 181.819Z" fill="#2DBBDA" fill-opacity="0.22"/>
<path opacity="0.7249" d="M1045.64 232.76C1045.64 235.977 1043.19 238.578 1040.18 238.578C1037.15 238.578 1034.73 235.977 1034.73 232.76C1034.73 229.543 1037.15 226.933 1040.18 226.933C1043.19 226.933 1045.64 229.543 1045.64 232.76Z" fill="#2DBBDA" fill-opacity="0.22"/>
<path opacity="0.85" d="M1397.8 540.618C1397.8 543.825 1395.35 546.432 1392.34 546.432C1389.33 546.432 1386.88 543.825 1386.88 540.618C1386.88 537.394 1389.33 534.787 1392.34 534.787C1395.35 534.779 1397.8 537.386 1397.8 540.618Z" fill="#2DBBDA" fill-opacity="0.22"/>
<path opacity="0.7173" d="M1397.8 438.004C1397.8 441.2 1395.35 443.813 1392.34 443.813C1389.33 443.813 1386.88 441.2 1386.88 438.004C1386.88 434.783 1389.33 432.169 1392.34 432.169C1395.35 432.178 1397.8 434.783 1397.8 438.004Z" fill="#2DBBDA" fill-opacity="0.22"/>
<path opacity="0.7483" d="M1440 458.788C1439.09 458.094 1437.98 457.643 1436.75 457.643C1433.73 457.643 1431.27 460.244 1431.27 463.47C1431.27 466.687 1433.73 469.288 1436.75 469.288C1437.98 469.288 1439.09 468.846 1440 468.143V458.788Z" fill="#2DBBDA" fill-opacity="0.22"/>
<path opacity="0.9308" d="M1045.64 643.22C1045.64 646.444 1043.19 649.051 1040.18 649.051C1037.15 649.051 1034.73 646.444 1034.73 643.22C1034.73 640.013 1037.15 637.406 1040.18 637.406C1043.19 637.415 1045.64 640.022 1045.64 643.22Z" fill="#2DBBDA" fill-opacity="0.22"/>
<path opacity="0.9474" d="M1397.8 643.22C1397.8 646.444 1395.35 649.051 1392.34 649.051C1389.33 649.051 1386.88 646.444 1386.88 643.22C1386.88 640.013 1389.33 637.406 1392.34 637.406C1395.35 637.415 1397.8 640.022 1397.8 643.22Z" fill="#2DBBDA" fill-opacity="0.22"/>
<path opacity="0.5499" d="M1309.76 284.42C1309.76 287.644 1307.34 290.251 1304.3 290.251C1301.29 290.251 1298.85 287.644 1298.85 284.42C1298.85 281.214 1301.29 278.607 1304.3 278.607C1307.34 278.607 1309.76 281.214 1309.76 284.42Z" fill="#2DBBDA" fill-opacity="0.22"/>
<path opacity="0.5903" d="M1309.76 489.669C1309.76 492.886 1307.33 495.487 1304.3 495.487C1301.29 495.487 1298.84 492.886 1298.84 489.669C1298.84 486.469 1301.29 483.842 1304.3 483.842C1307.33 483.842 1309.76 486.469 1309.76 489.669Z" fill="#2DBBDA" fill-opacity="0.22"/>
</svg>
