<svg width="51" height="50" viewBox="0 0 51 50" fill="none" xmlns="http://www.w3.org/2000/svg">
<path d="M49.4557 32.4561V31.1871C49.4571 30.6397 49.3554 30.0974 49.1564 29.5917C48.9574 29.086 48.6651 28.6269 48.2964 28.2409L46.1224 25.9525V20.9018C46.5096 20.7579 46.8571 20.5158 47.1342 20.1969C47.4114 19.878 47.6095 19.4921 47.7112 19.0734C47.8129 18.6546 47.815 18.216 47.7173 17.7962C47.6195 17.3764 47.425 16.9885 47.1509 16.6667C47.5618 16.1847 47.789 15.5599 47.789 14.9123C47.789 14.2647 47.5618 13.6399 47.1509 13.1579C47.5618 12.6759 47.789 12.0511 47.789 11.4035C47.789 10.7559 47.5618 10.1311 47.1509 9.64912C47.425 9.32732 47.6195 8.93937 47.7173 8.51959C47.815 8.09981 47.8129 7.66115 47.7112 7.24242C47.6095 6.82368 47.4114 6.43779 47.1342 6.11888C46.8571 5.79998 46.5096 5.55789 46.1224 5.41403V0.877193C46.1224 0.644547 46.0346 0.421429 45.8783 0.256924C45.722 0.0924182 45.5101 0 45.2891 0H35.2891C35.068 0 34.8561 0.0924182 34.6998 0.256924C34.5435 0.421429 34.4557 0.644547 34.4557 0.877193V1.75439H33.2502C32.7302 1.75289 32.215 1.85998 31.7345 2.06946C31.2541 2.27894 30.8179 2.58665 30.4511 2.97478L28.2773 5.26316H17.6457C17.5091 4.8556 17.2791 4.48978 16.9761 4.19807C16.6732 3.90636 16.3066 3.69775 15.9088 3.59071C15.511 3.48366 15.0942 3.48148 14.6954 3.58434C14.2967 3.68721 13.9281 3.89196 13.6224 4.18048C13.1645 3.74799 12.5709 3.50879 11.9557 3.50879C11.3405 3.50879 10.747 3.74799 10.2891 4.18048C9.83115 3.74799 9.23761 3.50879 8.6224 3.50879C8.00718 3.50879 7.41364 3.74799 6.95573 4.18048C6.65002 3.89196 6.28147 3.68721 5.88268 3.58434C5.48389 3.48148 5.06716 3.48366 4.66936 3.59071C4.27156 3.69775 3.90496 3.90636 3.602 4.19807C3.29904 4.48978 3.06905 4.8556 2.9324 5.26316H1.1224C0.901382 5.26316 0.68942 5.35558 0.53314 5.52008C0.37686 5.68459 0.289063 5.9077 0.289062 6.14035V16.6667C0.289063 16.8993 0.37686 17.1224 0.53314 17.2869C0.68942 17.4514 0.901382 17.5439 1.1224 17.5439H2.78906V19.2982C2.78905 19.4344 2.81919 19.5688 2.87708 19.6906L6.1224 26.5229V29.0982C5.73522 29.2421 5.38769 29.4842 5.11056 29.8031C4.83344 30.122 4.63526 30.5079 4.53357 30.9266C4.43187 31.3454 4.4298 31.784 4.52752 32.2038C4.62525 32.6236 4.81976 33.0115 5.09385 33.3333C4.68299 33.8153 4.45575 34.4401 4.45575 35.0877C4.45575 35.7353 4.68299 36.3601 5.09385 36.8421C4.68299 37.3241 4.45575 37.9489 4.45575 38.5965C4.45575 39.2441 4.68299 39.8689 5.09385 40.3509C4.81976 40.6727 4.62525 41.0606 4.52752 41.4804C4.4298 41.9002 4.43187 42.3388 4.53357 42.7576C4.63526 43.1763 4.83344 43.5622 5.11056 43.8811C5.38769 44.2 5.73522 44.4421 6.1224 44.586V49.1228C6.1224 49.3555 6.21019 49.5786 6.36647 49.7431C6.52275 49.9076 6.73472 50 6.95573 50H16.9557C17.1767 50 17.3887 49.9076 17.545 49.7431C17.7013 49.5786 17.7891 49.3555 17.7891 49.1228V48.2456H18.9946C19.5146 48.2471 20.0298 48.14 20.5102 47.9305C20.9907 47.7211 21.4269 47.4133 21.7936 47.0252L23.9675 44.7368H31.2657C31.4026 45.1443 31.6327 45.51 31.9358 45.8017C32.2388 46.0933 32.6054 46.3019 33.0032 46.409C33.401 46.5161 33.8177 46.5184 34.2165 46.4158C34.6154 46.3131 34.9841 46.1086 35.29 45.8204C35.7479 46.2525 36.3414 46.4914 36.9564 46.4912C37.5714 46.4911 38.1647 46.2519 38.6224 45.8195C39.0803 46.252 39.6738 46.4912 40.2891 46.4912C40.9043 46.4912 41.4978 46.252 41.9557 45.8195C42.2614 46.108 42.63 46.3128 43.0288 46.4157C43.4276 46.5185 43.8443 46.5163 44.2421 46.4093C44.6399 46.3022 45.0065 46.0936 45.3095 45.8019C45.6124 45.5102 45.8424 45.1444 45.9791 44.7368H49.4557C49.6767 44.7368 49.8887 44.6444 50.045 44.4799C50.2013 44.3154 50.2891 44.0923 50.2891 43.8596V33.3333C50.2891 33.1007 50.2013 32.8776 50.045 32.7131C49.8887 32.5486 49.6767 32.4561 49.4557 32.4561ZM36.1224 1.75439H44.4557V5.26316H36.1224V1.75439ZM28.6224 7.01754C28.7318 7.01755 28.8402 6.99486 28.9413 6.95078C29.0424 6.9067 29.1343 6.84209 29.2117 6.76064L31.6297 4.21524C31.842 3.99056 32.0946 3.81243 32.3727 3.69116C32.6509 3.5699 32.9491 3.50791 33.2502 3.50877H34.4557V6.14035C34.4557 6.373 34.5435 6.59611 34.6998 6.76062C34.8561 6.92513 35.068 7.01754 35.2891 7.01754H45.2891C45.5101 7.01754 45.722 7.10996 45.8783 7.27447C46.0346 7.43897 46.1224 7.66209 46.1224 7.89474C46.1224 8.12738 46.0346 8.3505 45.8783 8.51501C45.722 8.67951 45.5101 8.77193 45.2891 8.77193H40.2891C40.068 8.77193 39.8561 8.86435 39.6998 9.02885C39.5435 9.19336 39.4557 9.41648 39.4557 9.64912C39.4557 9.88177 39.5435 10.1049 39.6998 10.2694C39.8561 10.4339 40.068 10.5263 40.2891 10.5263H45.2891C45.5101 10.5263 45.722 10.6187 45.8783 10.7832C46.0346 10.9477 46.1224 11.1709 46.1224 11.4035C46.1224 11.6362 46.0346 11.8593 45.8783 12.0238C45.722 12.1883 45.5101 12.2807 45.2891 12.2807H40.2891C40.068 12.2807 39.8561 12.3731 39.6998 12.5376C39.5435 12.7021 39.4557 12.9252 39.4557 13.1579C39.4557 13.3905 39.5435 13.6137 39.6998 13.7782C39.8561 13.9427 40.068 14.0351 40.2891 14.0351H45.2891C45.5101 14.0351 45.722 14.1275 45.8783 14.292C46.0346 14.4565 46.1224 14.6796 46.1224 14.9123C46.1224 15.1449 46.0346 15.368 45.8783 15.5326C45.722 15.6971 45.5101 15.7895 45.2891 15.7895H40.2891C40.068 15.7895 39.8561 15.8819 39.6998 16.0464C39.5435 16.2109 39.4557 16.434 39.4557 16.6667C39.4557 16.8993 39.5435 17.1224 39.6998 17.2869C39.8561 17.4514 40.068 17.5439 40.2891 17.5439H45.2891C45.5101 17.5439 45.722 17.6363 45.8783 17.8008C46.0346 17.9653 46.1224 18.1884 46.1224 18.4211C46.1224 18.6537 46.0346 18.8768 45.8783 19.0413C45.722 19.2058 45.5101 19.2982 45.2891 19.2982H32.9858L26.4951 15.8821C26.3794 15.8212 26.2518 15.7895 26.1224 15.7895H17.7891V7.01754H28.6224ZM31.2104 30.3094C31.1525 30.4312 31.1224 30.5656 31.1224 30.7018V32.4561H26.3192L19.8284 29.04C19.7127 28.9791 19.5851 28.9474 19.4557 28.9474H17.7891V24.0475L19.963 21.7591C20.3317 21.3731 20.6241 20.914 20.8231 20.4083C21.0221 19.9026 21.1238 19.3603 21.1224 18.8129V17.5439H25.9256L32.4164 20.96C32.5321 21.0209 32.6597 21.0526 32.7891 21.0526H34.4557V23.4771L31.2104 30.3094ZM1.95573 15.7895V7.01754H2.78906V15.7895H1.95573ZM4.45573 19.0911V6.14035C4.45573 5.9077 4.54353 5.68459 4.69981 5.52008C4.85609 5.35558 5.06805 5.26316 5.28906 5.26316C5.51008 5.26316 5.72204 5.35558 5.87832 5.52008C6.0346 5.68459 6.1224 5.9077 6.1224 6.14035V11.4035C6.1224 11.6362 6.21019 11.8593 6.36647 12.0238C6.52275 12.1883 6.73472 12.2807 6.95573 12.2807C7.17674 12.2807 7.3887 12.1883 7.54498 12.0238C7.70126 11.8593 7.78906 11.6362 7.78906 11.4035V6.14035C7.78906 5.9077 7.87686 5.68459 8.03314 5.52008C8.18942 5.35558 8.40138 5.26316 8.6224 5.26316C8.84341 5.26316 9.05537 5.35558 9.21165 5.52008C9.36793 5.68459 9.45573 5.9077 9.45573 6.14035V11.4035C9.45573 11.6362 9.54353 11.8593 9.69981 12.0238C9.85609 12.1883 10.068 12.2807 10.2891 12.2807C10.5101 12.2807 10.722 12.1883 10.8783 12.0238C11.0346 11.8593 11.1224 11.6362 11.1224 11.4035V6.14035C11.1224 5.9077 11.2102 5.68459 11.3665 5.52008C11.5228 5.35558 11.7347 5.26316 11.9557 5.26316C12.1767 5.26316 12.3887 5.35558 12.545 5.52008C12.7013 5.68459 12.7891 5.9077 12.7891 6.14035V11.4035C12.7891 11.6362 12.8769 11.8593 13.0331 12.0238C13.1894 12.1883 13.4014 12.2807 13.6224 12.2807C13.8434 12.2807 14.0554 12.1883 14.2117 12.0238C14.3679 11.8593 14.4557 11.6362 14.4557 11.4035V6.14035C14.4557 5.9077 14.5435 5.68459 14.6998 5.52008C14.8561 5.35558 15.068 5.26316 15.2891 5.26316C15.5101 5.26316 15.722 5.35558 15.8783 5.52008C16.0346 5.68459 16.1224 5.9077 16.1224 6.14035V16.6667C16.1224 16.8993 16.2102 17.1224 16.3665 17.2869C16.5228 17.4514 16.7347 17.5439 16.9557 17.5439H19.4557V18.8129C19.4566 19.1299 19.3976 19.4438 19.2824 19.7366C19.1672 20.0294 18.998 20.2952 18.7845 20.5186L16.3665 23.0639C16.2891 23.1454 16.2277 23.2421 16.1858 23.3485C16.1439 23.4549 16.1224 23.569 16.1224 23.6842V28.9474H7.78906V26.3158C7.78908 26.1796 7.75894 26.0453 7.70104 25.9235L4.45573 19.0911ZM16.1224 48.2456H7.78906V44.7368H16.1224V48.2456ZM23.6224 42.9825C23.513 42.9825 23.4046 43.0051 23.3035 43.0492C23.2024 43.0933 23.1105 43.1579 23.0331 43.2394L20.6151 45.7848C20.4028 46.0095 20.1502 46.1876 19.8721 46.3089C19.5939 46.4301 19.2957 46.4921 18.9946 46.4912H17.7891V43.8596C17.7891 43.627 17.7013 43.4039 17.545 43.2394C17.3887 43.0749 17.1767 42.9825 16.9557 42.9825H6.95573C6.73472 42.9825 6.52275 42.89 6.36647 42.7255C6.21019 42.561 6.1224 42.3379 6.1224 42.1053C6.1224 41.8726 6.21019 41.6495 6.36647 41.485C6.52275 41.3205 6.73472 41.2281 6.95573 41.2281H11.9557C12.1767 41.2281 12.3887 41.1357 12.545 40.9711C12.7013 40.8066 12.7891 40.5835 12.7891 40.3509C12.7891 40.1182 12.7013 39.8951 12.545 39.7306C12.3887 39.5661 12.1767 39.4737 11.9557 39.4737H6.95573C6.73472 39.4737 6.52275 39.3813 6.36647 39.2168C6.21019 39.0523 6.1224 38.8291 6.1224 38.5965C6.1224 38.3638 6.21019 38.1407 6.36647 37.9762C6.52275 37.8117 6.73472 37.7193 6.95573 37.7193H11.9557C12.1767 37.7193 12.3887 37.6269 12.545 37.4624C12.7013 37.2979 12.7891 37.0748 12.7891 36.8421C12.7891 36.6095 12.7013 36.3863 12.545 36.2218C12.3887 36.0573 12.1767 35.9649 11.9557 35.9649H6.95573C6.73472 35.9649 6.52275 35.8725 6.36647 35.708C6.21019 35.5435 6.1224 35.3204 6.1224 35.0877C6.1224 34.8551 6.21019 34.632 6.36647 34.4674C6.52275 34.3029 6.73472 34.2105 6.95573 34.2105H11.9557C12.1767 34.2105 12.3887 34.1181 12.545 33.9536C12.7013 33.7891 12.7891 33.566 12.7891 33.3333C12.7891 33.1007 12.7013 32.8776 12.545 32.7131C12.3887 32.5486 12.1767 32.4561 11.9557 32.4561H6.95573C6.73472 32.4561 6.52275 32.3637 6.36647 32.1992C6.21019 32.0347 6.1224 31.8116 6.1224 31.5789C6.1224 31.3463 6.21019 31.1232 6.36647 30.9587C6.52275 30.7942 6.73472 30.7018 6.95573 30.7018H19.259L25.7497 34.1179C25.8654 34.1788 25.993 34.2105 26.1224 34.2105H31.1224V42.9825H23.6224ZM43.6224 44.7368C43.4015 44.7366 43.1896 44.6441 43.0334 44.4796C42.8772 44.3152 42.7893 44.0922 42.7891 43.8596V38.5965C42.7891 38.3638 42.7013 38.1407 42.545 37.9762C42.3887 37.8117 42.1767 37.7193 41.9557 37.7193C41.7347 37.7193 41.5228 37.8117 41.3665 37.9762C41.2102 38.1407 41.1224 38.3638 41.1224 38.5965V43.8596C41.1224 44.0923 41.0346 44.3154 40.8783 44.4799C40.722 44.6444 40.5101 44.7368 40.2891 44.7368C40.068 44.7368 39.8561 44.6444 39.6998 44.4799C39.5435 44.3154 39.4557 44.0923 39.4557 43.8596V38.5965C39.4557 38.3638 39.3679 38.1407 39.2117 37.9762C39.0554 37.8117 38.8434 37.7193 38.6224 37.7193C38.4014 37.7193 38.1894 37.8117 38.0331 37.9762C37.8769 38.1407 37.7891 38.3638 37.7891 38.5965V43.8596C37.7891 44.0923 37.7013 44.3154 37.545 44.4799C37.3887 44.6444 37.1767 44.7368 36.9557 44.7368C36.7347 44.7368 36.5228 44.6444 36.3665 44.4799C36.2102 44.3154 36.1224 44.0923 36.1224 43.8596V38.5965C36.1224 38.3638 36.0346 38.1407 35.8783 37.9762C35.722 37.8117 35.5101 37.7193 35.2891 37.7193C35.068 37.7193 34.8561 37.8117 34.6998 37.9762C34.5435 38.1407 34.4557 38.3638 34.4557 38.5965V43.8596C34.4557 44.0923 34.3679 44.3154 34.2117 44.4799C34.0554 44.6444 33.8434 44.7368 33.6224 44.7368C33.4014 44.7368 33.1894 44.6444 33.0331 44.4799C32.8769 44.3154 32.7891 44.0923 32.7891 43.8596V30.9089L36.0344 24.0765C36.0923 23.9547 36.1224 23.8204 36.1224 23.6842V21.0526H44.4557V26.3158C44.4557 26.431 44.4773 26.5451 44.5192 26.6515C44.561 26.7579 44.6224 26.8546 44.6998 26.9361L47.1178 29.4814C47.3313 29.7048 47.5005 29.9706 47.6158 30.2634C47.731 30.5562 47.7899 30.8701 47.7891 31.1871V32.4561H45.2891C45.068 32.4561 44.8561 32.5486 44.6998 32.7131C44.5435 32.8776 44.4557 33.1007 44.4557 33.3333V43.8596C44.4555 44.0922 44.3676 44.3152 44.2114 44.4796C44.0552 44.6441 43.8433 44.7366 43.6224 44.7368ZM48.6224 42.9825H46.1224V34.2105H48.6224V42.9825Z" fill="url(#paint0_linear_258_56)"/>
<path d="M49.4557 32.4561V31.1871C49.4571 30.6397 49.3554 30.0974 49.1564 29.5917C48.9574 29.086 48.6651 28.6269 48.2964 28.2409L46.1224 25.9525V20.9018C46.5096 20.7579 46.8571 20.5158 47.1342 20.1969C47.4114 19.878 47.6095 19.4921 47.7112 19.0734C47.8129 18.6546 47.815 18.216 47.7173 17.7962C47.6195 17.3764 47.425 16.9885 47.1509 16.6667C47.5618 16.1847 47.789 15.5599 47.789 14.9123C47.789 14.2647 47.5618 13.6399 47.1509 13.1579C47.5618 12.6759 47.789 12.0511 47.789 11.4035C47.789 10.7559 47.5618 10.1311 47.1509 9.64912C47.425 9.32732 47.6195 8.93937 47.7173 8.51959C47.815 8.09981 47.8129 7.66115 47.7112 7.24242C47.6095 6.82368 47.4114 6.43779 47.1342 6.11888C46.8571 5.79998 46.5096 5.55789 46.1224 5.41403V0.877193C46.1224 0.644547 46.0346 0.421429 45.8783 0.256924C45.722 0.0924182 45.5101 0 45.2891 0H35.2891C35.068 0 34.8561 0.0924182 34.6998 0.256924C34.5435 0.421429 34.4557 0.644547 34.4557 0.877193V1.75439H33.2502C32.7302 1.75289 32.215 1.85998 31.7345 2.06946C31.2541 2.27894 30.8179 2.58665 30.4511 2.97478L28.2773 5.26316H17.6457C17.5091 4.8556 17.2791 4.48978 16.9761 4.19807C16.6732 3.90636 16.3066 3.69775 15.9088 3.59071C15.511 3.48366 15.0942 3.48148 14.6954 3.58434C14.2967 3.68721 13.9281 3.89196 13.6224 4.18048C13.1645 3.74799 12.5709 3.50879 11.9557 3.50879C11.3405 3.50879 10.747 3.74799 10.2891 4.18048C9.83115 3.74799 9.23761 3.50879 8.6224 3.50879C8.00718 3.50879 7.41364 3.74799 6.95573 4.18048C6.65002 3.89196 6.28147 3.68721 5.88268 3.58434C5.48389 3.48148 5.06716 3.48366 4.66936 3.59071C4.27156 3.69775 3.90496 3.90636 3.602 4.19807C3.29904 4.48978 3.06905 4.8556 2.9324 5.26316H1.1224C0.901382 5.26316 0.68942 5.35558 0.53314 5.52008C0.37686 5.68459 0.289063 5.9077 0.289062 6.14035V16.6667C0.289063 16.8993 0.37686 17.1224 0.53314 17.2869C0.68942 17.4514 0.901382 17.5439 1.1224 17.5439H2.78906V19.2982C2.78905 19.4344 2.81919 19.5688 2.87708 19.6906L6.1224 26.5229V29.0982C5.73522 29.2421 5.38769 29.4842 5.11056 29.8031C4.83344 30.122 4.63526 30.5079 4.53357 30.9266C4.43187 31.3454 4.4298 31.784 4.52752 32.2038C4.62525 32.6236 4.81976 33.0115 5.09385 33.3333C4.68299 33.8153 4.45575 34.4401 4.45575 35.0877C4.45575 35.7353 4.68299 36.3601 5.09385 36.8421C4.68299 37.3241 4.45575 37.9489 4.45575 38.5965C4.45575 39.2441 4.68299 39.8689 5.09385 40.3509C4.81976 40.6727 4.62525 41.0606 4.52752 41.4804C4.4298 41.9002 4.43187 42.3388 4.53357 42.7576C4.63526 43.1763 4.83344 43.5622 5.11056 43.8811C5.38769 44.2 5.73522 44.4421 6.1224 44.586V49.1228C6.1224 49.3555 6.21019 49.5786 6.36647 49.7431C6.52275 49.9076 6.73472 50 6.95573 50H16.9557C17.1767 50 17.3887 49.9076 17.545 49.7431C17.7013 49.5786 17.7891 49.3555 17.7891 49.1228V48.2456H18.9946C19.5146 48.2471 20.0298 48.14 20.5102 47.9305C20.9907 47.7211 21.4269 47.4133 21.7936 47.0252L23.9675 44.7368H31.2657C31.4026 45.1443 31.6327 45.51 31.9358 45.8017C32.2388 46.0933 32.6054 46.3019 33.0032 46.409C33.401 46.5161 33.8177 46.5184 34.2165 46.4158C34.6154 46.3131 34.9841 46.1086 35.29 45.8204C35.7479 46.2525 36.3414 46.4914 36.9564 46.4912C37.5714 46.4911 38.1647 46.2519 38.6224 45.8195C39.0803 46.252 39.6738 46.4912 40.2891 46.4912C40.9043 46.4912 41.4978 46.252 41.9557 45.8195C42.2614 46.108 42.63 46.3128 43.0288 46.4157C43.4276 46.5185 43.8443 46.5163 44.2421 46.4093C44.6399 46.3022 45.0065 46.0936 45.3095 45.8019C45.6124 45.5102 45.8424 45.1444 45.9791 44.7368H49.4557C49.6767 44.7368 49.8887 44.6444 50.045 44.4799C50.2013 44.3154 50.2891 44.0923 50.2891 43.8596V33.3333C50.2891 33.1007 50.2013 32.8776 50.045 32.7131C49.8887 32.5486 49.6767 32.4561 49.4557 32.4561ZM36.1224 1.75439H44.4557V5.26316H36.1224V1.75439ZM28.6224 7.01754C28.7318 7.01755 28.8402 6.99486 28.9413 6.95078C29.0424 6.9067 29.1343 6.84209 29.2117 6.76064L31.6297 4.21524C31.842 3.99056 32.0946 3.81243 32.3727 3.69116C32.6509 3.5699 32.9491 3.50791 33.2502 3.50877H34.4557V6.14035C34.4557 6.373 34.5435 6.59611 34.6998 6.76062C34.8561 6.92513 35.068 7.01754 35.2891 7.01754H45.2891C45.5101 7.01754 45.722 7.10996 45.8783 7.27447C46.0346 7.43897 46.1224 7.66209 46.1224 7.89474C46.1224 8.12738 46.0346 8.3505 45.8783 8.51501C45.722 8.67951 45.5101 8.77193 45.2891 8.77193H40.2891C40.068 8.77193 39.8561 8.86435 39.6998 9.02885C39.5435 9.19336 39.4557 9.41648 39.4557 9.64912C39.4557 9.88177 39.5435 10.1049 39.6998 10.2694C39.8561 10.4339 40.068 10.5263 40.2891 10.5263H45.2891C45.5101 10.5263 45.722 10.6187 45.8783 10.7832C46.0346 10.9477 46.1224 11.1709 46.1224 11.4035C46.1224 11.6362 46.0346 11.8593 45.8783 12.0238C45.722 12.1883 45.5101 12.2807 45.2891 12.2807H40.2891C40.068 12.2807 39.8561 12.3731 39.6998 12.5376C39.5435 12.7021 39.4557 12.9252 39.4557 13.1579C39.4557 13.3905 39.5435 13.6137 39.6998 13.7782C39.8561 13.9427 40.068 14.0351 40.2891 14.0351H45.2891C45.5101 14.0351 45.722 14.1275 45.8783 14.292C46.0346 14.4565 46.1224 14.6796 46.1224 14.9123C46.1224 15.1449 46.0346 15.368 45.8783 15.5326C45.722 15.6971 45.5101 15.7895 45.2891 15.7895H40.2891C40.068 15.7895 39.8561 15.8819 39.6998 16.0464C39.5435 16.2109 39.4557 16.434 39.4557 16.6667C39.4557 16.8993 39.5435 17.1224 39.6998 17.2869C39.8561 17.4514 40.068 17.5439 40.2891 17.5439H45.2891C45.5101 17.5439 45.722 17.6363 45.8783 17.8008C46.0346 17.9653 46.1224 18.1884 46.1224 18.4211C46.1224 18.6537 46.0346 18.8768 45.8783 19.0413C45.722 19.2058 45.5101 19.2982 45.2891 19.2982H32.9858L26.4951 15.8821C26.3794 15.8212 26.2518 15.7895 26.1224 15.7895H17.7891V7.01754H28.6224ZM31.2104 30.3094C31.1525 30.4312 31.1224 30.5656 31.1224 30.7018V32.4561H26.3192L19.8284 29.04C19.7127 28.9791 19.5851 28.9474 19.4557 28.9474H17.7891V24.0475L19.963 21.7591C20.3317 21.3731 20.6241 20.914 20.8231 20.4083C21.0221 19.9026 21.1238 19.3603 21.1224 18.8129V17.5439H25.9256L32.4164 20.96C32.5321 21.0209 32.6597 21.0526 32.7891 21.0526H34.4557V23.4771L31.2104 30.3094ZM1.95573 15.7895V7.01754H2.78906V15.7895H1.95573ZM4.45573 19.0911V6.14035C4.45573 5.9077 4.54353 5.68459 4.69981 5.52008C4.85609 5.35558 5.06805 5.26316 5.28906 5.26316C5.51008 5.26316 5.72204 5.35558 5.87832 5.52008C6.0346 5.68459 6.1224 5.9077 6.1224 6.14035V11.4035C6.1224 11.6362 6.21019 11.8593 6.36647 12.0238C6.52275 12.1883 6.73472 12.2807 6.95573 12.2807C7.17674 12.2807 7.3887 12.1883 7.54498 12.0238C7.70126 11.8593 7.78906 11.6362 7.78906 11.4035V6.14035C7.78906 5.9077 7.87686 5.68459 8.03314 5.52008C8.18942 5.35558 8.40138 5.26316 8.6224 5.26316C8.84341 5.26316 9.05537 5.35558 9.21165 5.52008C9.36793 5.68459 9.45573 5.9077 9.45573 6.14035V11.4035C9.45573 11.6362 9.54353 11.8593 9.69981 12.0238C9.85609 12.1883 10.068 12.2807 10.2891 12.2807C10.5101 12.2807 10.722 12.1883 10.8783 12.0238C11.0346 11.8593 11.1224 11.6362 11.1224 11.4035V6.14035C11.1224 5.9077 11.2102 5.68459 11.3665 5.52008C11.5228 5.35558 11.7347 5.26316 11.9557 5.26316C12.1767 5.26316 12.3887 5.35558 12.545 5.52008C12.7013 5.68459 12.7891 5.9077 12.7891 6.14035V11.4035C12.7891 11.6362 12.8769 11.8593 13.0331 12.0238C13.1894 12.1883 13.4014 12.2807 13.6224 12.2807C13.8434 12.2807 14.0554 12.1883 14.2117 12.0238C14.3679 11.8593 14.4557 11.6362 14.4557 11.4035V6.14035C14.4557 5.9077 14.5435 5.68459 14.6998 5.52008C14.8561 5.35558 15.068 5.26316 15.2891 5.26316C15.5101 5.26316 15.722 5.35558 15.8783 5.52008C16.0346 5.68459 16.1224 5.9077 16.1224 6.14035V16.6667C16.1224 16.8993 16.2102 17.1224 16.3665 17.2869C16.5228 17.4514 16.7347 17.5439 16.9557 17.5439H19.4557V18.8129C19.4566 19.1299 19.3976 19.4438 19.2824 19.7366C19.1672 20.0294 18.998 20.2952 18.7845 20.5186L16.3665 23.0639C16.2891 23.1454 16.2277 23.2421 16.1858 23.3485C16.1439 23.4549 16.1224 23.569 16.1224 23.6842V28.9474H7.78906V26.3158C7.78908 26.1796 7.75894 26.0453 7.70104 25.9235L4.45573 19.0911ZM16.1224 48.2456H7.78906V44.7368H16.1224V48.2456ZM23.6224 42.9825C23.513 42.9825 23.4046 43.0051 23.3035 43.0492C23.2024 43.0933 23.1105 43.1579 23.0331 43.2394L20.6151 45.7848C20.4028 46.0095 20.1502 46.1876 19.8721 46.3089C19.5939 46.4301 19.2957 46.4921 18.9946 46.4912H17.7891V43.8596C17.7891 43.627 17.7013 43.4039 17.545 43.2394C17.3887 43.0749 17.1767 42.9825 16.9557 42.9825H6.95573C6.73472 42.9825 6.52275 42.89 6.36647 42.7255C6.21019 42.561 6.1224 42.3379 6.1224 42.1053C6.1224 41.8726 6.21019 41.6495 6.36647 41.485C6.52275 41.3205 6.73472 41.2281 6.95573 41.2281H11.9557C12.1767 41.2281 12.3887 41.1357 12.545 40.9711C12.7013 40.8066 12.7891 40.5835 12.7891 40.3509C12.7891 40.1182 12.7013 39.8951 12.545 39.7306C12.3887 39.5661 12.1767 39.4737 11.9557 39.4737H6.95573C6.73472 39.4737 6.52275 39.3813 6.36647 39.2168C6.21019 39.0523 6.1224 38.8291 6.1224 38.5965C6.1224 38.3638 6.21019 38.1407 6.36647 37.9762C6.52275 37.8117 6.73472 37.7193 6.95573 37.7193H11.9557C12.1767 37.7193 12.3887 37.6269 12.545 37.4624C12.7013 37.2979 12.7891 37.0748 12.7891 36.8421C12.7891 36.6095 12.7013 36.3863 12.545 36.2218C12.3887 36.0573 12.1767 35.9649 11.9557 35.9649H6.95573C6.73472 35.9649 6.52275 35.8725 6.36647 35.708C6.21019 35.5435 6.1224 35.3204 6.1224 35.0877C6.1224 34.8551 6.21019 34.632 6.36647 34.4674C6.52275 34.3029 6.73472 34.2105 6.95573 34.2105H11.9557C12.1767 34.2105 12.3887 34.1181 12.545 33.9536C12.7013 33.7891 12.7891 33.566 12.7891 33.3333C12.7891 33.1007 12.7013 32.8776 12.545 32.7131C12.3887 32.5486 12.1767 32.4561 11.9557 32.4561H6.95573C6.73472 32.4561 6.52275 32.3637 6.36647 32.1992C6.21019 32.0347 6.1224 31.8116 6.1224 31.5789C6.1224 31.3463 6.21019 31.1232 6.36647 30.9587C6.52275 30.7942 6.73472 30.7018 6.95573 30.7018H19.259L25.7497 34.1179C25.8654 34.1788 25.993 34.2105 26.1224 34.2105H31.1224V42.9825H23.6224ZM43.6224 44.7368C43.4015 44.7366 43.1896 44.6441 43.0334 44.4796C42.8772 44.3152 42.7893 44.0922 42.7891 43.8596V38.5965C42.7891 38.3638 42.7013 38.1407 42.545 37.9762C42.3887 37.8117 42.1767 37.7193 41.9557 37.7193C41.7347 37.7193 41.5228 37.8117 41.3665 37.9762C41.2102 38.1407 41.1224 38.3638 41.1224 38.5965V43.8596C41.1224 44.0923 41.0346 44.3154 40.8783 44.4799C40.722 44.6444 40.5101 44.7368 40.2891 44.7368C40.068 44.7368 39.8561 44.6444 39.6998 44.4799C39.5435 44.3154 39.4557 44.0923 39.4557 43.8596V38.5965C39.4557 38.3638 39.3679 38.1407 39.2117 37.9762C39.0554 37.8117 38.8434 37.7193 38.6224 37.7193C38.4014 37.7193 38.1894 37.8117 38.0331 37.9762C37.8769 38.1407 37.7891 38.3638 37.7891 38.5965V43.8596C37.7891 44.0923 37.7013 44.3154 37.545 44.4799C37.3887 44.6444 37.1767 44.7368 36.9557 44.7368C36.7347 44.7368 36.5228 44.6444 36.3665 44.4799C36.2102 44.3154 36.1224 44.0923 36.1224 43.8596V38.5965C36.1224 38.3638 36.0346 38.1407 35.8783 37.9762C35.722 37.8117 35.5101 37.7193 35.2891 37.7193C35.068 37.7193 34.8561 37.8117 34.6998 37.9762C34.5435 38.1407 34.4557 38.3638 34.4557 38.5965V43.8596C34.4557 44.0923 34.3679 44.3154 34.2117 44.4799C34.0554 44.6444 33.8434 44.7368 33.6224 44.7368C33.4014 44.7368 33.1894 44.6444 33.0331 44.4799C32.8769 44.3154 32.7891 44.0923 32.7891 43.8596V30.9089L36.0344 24.0765C36.0923 23.9547 36.1224 23.8204 36.1224 23.6842V21.0526H44.4557V26.3158C44.4557 26.431 44.4773 26.5451 44.5192 26.6515C44.561 26.7579 44.6224 26.8546 44.6998 26.9361L47.1178 29.4814C47.3313 29.7048 47.5005 29.9706 47.6158 30.2634C47.731 30.5562 47.7899 30.8701 47.7891 31.1871V32.4561H45.2891C45.068 32.4561 44.8561 32.5486 44.6998 32.7131C44.5435 32.8776 44.4557 33.1007 44.4557 33.3333V43.8596C44.4555 44.0922 44.3676 44.3152 44.2114 44.4796C44.0552 44.6441 43.8433 44.7366 43.6224 44.7368ZM48.6224 42.9825H46.1224V34.2105H48.6224V42.9825Z" fill="black" fill-opacity="0.05"/>
<path d="M30.1869 21.9298C29.8554 21.9289 29.5271 21.9912 29.2208 22.113C28.9146 22.2348 28.6365 22.4138 28.4028 22.6395L27.6933 23.3209L26.9837 22.6395C26.6796 22.3475 26.3028 22.135 25.8891 22.0222C25.4754 21.9094 25.0385 21.8999 24.6199 21.9948C24.2014 22.0897 23.815 22.2857 23.4975 22.5643C23.1801 22.8429 22.942 23.1947 22.8059 23.5865C22.5882 24.2189 22.5768 24.9001 22.7732 25.5389C22.9696 26.1777 23.3645 26.7437 23.905 27.1611L27.1223 29.6323C27.2843 29.7567 27.4855 29.8245 27.6929 29.8245C27.9003 29.8245 28.1015 29.7567 28.2635 29.6323L31.4816 27.1601C32.022 26.7427 32.4168 26.1768 32.6131 25.5381C32.8095 24.8994 32.7982 24.2184 32.5806 23.5861C32.4135 23.1035 32.0922 22.6837 31.6625 22.3864C31.2328 22.0891 30.7165 21.9293 30.1869 21.9298ZM30.3404 25.7905L27.6933 27.824L25.0463 25.7905C24.7969 25.5979 24.6147 25.3368 24.5241 25.0421C24.4335 24.7473 24.4388 24.4331 24.5392 24.1413C24.5768 24.0333 24.6425 23.9363 24.7301 23.8595C24.8177 23.7826 24.9243 23.7286 25.0397 23.7024C25.1552 23.6763 25.2757 23.6788 25.3898 23.7099C25.5039 23.741 25.6079 23.7996 25.6919 23.88L27.0473 25.1817C27.1321 25.2631 27.2328 25.3278 27.3437 25.3718C27.4545 25.4159 27.5733 25.4386 27.6933 25.4386C27.8132 25.4386 27.932 25.4159 28.0428 25.3718C28.1537 25.3278 28.2544 25.2631 28.3392 25.1817L29.6947 23.88C29.7786 23.7996 29.8826 23.741 29.9967 23.7099C30.1108 23.6788 30.2313 23.6763 30.3468 23.7024C30.4622 23.7286 30.5688 23.7826 30.6564 23.8595C30.744 23.9363 30.8097 24.0333 30.8473 24.1413C30.9477 24.4331 30.953 24.7473 30.8624 25.042C30.7718 25.3367 30.5897 25.5979 30.3404 25.7905Z" fill="url(#paint1_linear_258_56)"/>
<path d="M30.1869 21.9298C29.8554 21.9289 29.5271 21.9912 29.2208 22.113C28.9146 22.2348 28.6365 22.4138 28.4028 22.6395L27.6933 23.3209L26.9837 22.6395C26.6796 22.3475 26.3028 22.135 25.8891 22.0222C25.4754 21.9094 25.0385 21.8999 24.6199 21.9948C24.2014 22.0897 23.815 22.2857 23.4975 22.5643C23.1801 22.8429 22.942 23.1947 22.8059 23.5865C22.5882 24.2189 22.5768 24.9001 22.7732 25.5389C22.9696 26.1777 23.3645 26.7437 23.905 27.1611L27.1223 29.6323C27.2843 29.7567 27.4855 29.8245 27.6929 29.8245C27.9003 29.8245 28.1015 29.7567 28.2635 29.6323L31.4816 27.1601C32.022 26.7427 32.4168 26.1768 32.6131 25.5381C32.8095 24.8994 32.7982 24.2184 32.5806 23.5861C32.4135 23.1035 32.0922 22.6837 31.6625 22.3864C31.2328 22.0891 30.7165 21.9293 30.1869 21.9298ZM30.3404 25.7905L27.6933 27.824L25.0463 25.7905C24.7969 25.5979 24.6147 25.3368 24.5241 25.0421C24.4335 24.7473 24.4388 24.4331 24.5392 24.1413C24.5768 24.0333 24.6425 23.9363 24.7301 23.8595C24.8177 23.7826 24.9243 23.7286 25.0397 23.7024C25.1552 23.6763 25.2757 23.6788 25.3898 23.7099C25.5039 23.741 25.6079 23.7996 25.6919 23.88L27.0473 25.1817C27.1321 25.2631 27.2328 25.3278 27.3437 25.3718C27.4545 25.4159 27.5733 25.4386 27.6933 25.4386C27.8132 25.4386 27.932 25.4159 28.0428 25.3718C28.1537 25.3278 28.2544 25.2631 28.3392 25.1817L29.6947 23.88C29.7786 23.7996 29.8826 23.741 29.9967 23.7099C30.1108 23.6788 30.2313 23.6763 30.3468 23.7024C30.4622 23.7286 30.5688 23.7826 30.6564 23.8595C30.744 23.9363 30.8097 24.0333 30.8473 24.1413C30.9477 24.4331 30.953 24.7473 30.8624 25.042C30.7718 25.3367 30.5897 25.5979 30.3404 25.7905Z" fill="black" fill-opacity="0.05"/>
<defs>
<linearGradient id="paint0_linear_258_56" x1="59.1288" y1="9.21052" x2="-10.8356" y2="13.4578" gradientUnits="userSpaceOnUse">
<stop stop-color="#D9DC31"/>
<stop offset="1" stop-color="#2DBBDA"/>
</linearGradient>
<linearGradient id="paint1_linear_258_56" x1="34.5415" y1="23.3841" x2="20.4158" y2="24.4832" gradientUnits="userSpaceOnUse">
<stop stop-color="#D9DC31"/>
<stop offset="1" stop-color="#2DBBDA"/>
</linearGradient>
</defs>
</svg>
