<svg width="51" height="50" viewBox="0 0 51 50" fill="none" xmlns="http://www.w3.org/2000/svg">
<path d="M5.30842 11.4278C5.3279 11.8097 5.59103 12.1075 5.90897 12.1075H13.737C14.0161 12.1075 14.2586 11.8766 14.3227 11.5497C14.3654 11.3323 14.387 11.1144 14.387 10.9022C14.387 9.35282 13.3394 8.09231 12.0517 8.09231C11.7499 8.09231 11.4566 8.16116 11.1824 8.29451C10.678 7.62957 9.95754 7.2366 9.19365 7.2366C8.21116 7.2366 7.30394 7.89628 6.83577 8.91549C5.95142 9.18063 5.30273 10.143 5.30273 11.2766C5.30273 11.3207 5.30481 11.364 5.30722 11.4073L5.30842 11.4278ZM7.27899 10.293C7.51477 10.2767 7.72089 10.096 7.8058 9.83083C8.02571 9.14535 8.58326 8.68485 9.19365 8.68485C9.72789 8.68485 10.224 9.03318 10.4882 9.59387C10.5735 9.77501 10.7197 9.90323 10.8892 9.94563C11.0586 9.98802 11.2351 9.94049 11.3735 9.81529C11.5719 9.6356 11.8063 9.54068 12.0517 9.54068C12.6069 9.54068 13.0701 10.0242 13.1654 10.6597H6.68731C6.82801 10.4494 7.03906 10.3096 7.27899 10.293Z" fill="url(#paint0_linear_258_49)"/>
<path d="M5.30842 11.4278C5.3279 11.8097 5.59103 12.1075 5.90897 12.1075H13.737C14.0161 12.1075 14.2586 11.8766 14.3227 11.5497C14.3654 11.3323 14.387 11.1144 14.387 10.9022C14.387 9.35282 13.3394 8.09231 12.0517 8.09231C11.7499 8.09231 11.4566 8.16116 11.1824 8.29451C10.678 7.62957 9.95754 7.2366 9.19365 7.2366C8.21116 7.2366 7.30394 7.89628 6.83577 8.91549C5.95142 9.18063 5.30273 10.143 5.30273 11.2766C5.30273 11.3207 5.30481 11.364 5.30722 11.4073L5.30842 11.4278ZM7.27899 10.293C7.51477 10.2767 7.72089 10.096 7.8058 9.83083C8.02571 9.14535 8.58326 8.68485 9.19365 8.68485C9.72789 8.68485 10.224 9.03318 10.4882 9.59387C10.5735 9.77501 10.7197 9.90323 10.8892 9.94563C11.0586 9.98802 11.2351 9.94049 11.3735 9.81529C11.5719 9.6356 11.8063 9.54068 12.0517 9.54068C12.6069 9.54068 13.0701 10.0242 13.1654 10.6597H6.68731C6.82801 10.4494 7.03906 10.3096 7.27899 10.293Z" fill="black" fill-opacity="0.05"/>
<path d="M50.5632 26.5844C50.4104 26.2295 50.0471 26.0908 49.7519 26.2749L44.9721 29.2571L39.5866 19.6668C39.4548 19.4321 39.2219 19.3112 38.989 19.358L38.0772 19.5408L32.8185 9.16352C32.7331 8.99527 32.5945 8.876 32.4346 8.83348C32.2744 8.79096 32.1072 8.82861 31.9709 8.93801L31.108 9.6302L29.076 6.69422H32.9163C33.2144 6.69422 33.4675 6.43172 33.5114 6.07693C33.5375 5.86591 33.5498 5.68568 33.5498 5.50941C33.5498 3.40859 32.1294 1.69956 30.3835 1.69956C30.0287 1.69956 29.6763 1.77236 29.3423 1.91296C28.6196 0.718659 27.4662 0 26.2161 0C24.9653 0 23.8116 0.718659 23.0888 1.91296C22.7549 1.77236 22.4026 1.69956 22.0476 1.69956C20.3023 1.69956 18.8823 3.40859 18.8823 5.50941C18.8823 5.68568 18.8944 5.86591 18.9207 6.07693C18.9646 6.43172 19.2177 6.69422 19.5158 6.69422H24.2789L17.7332 16.7283L16.8835 16.0468C16.6187 15.8344 16.2624 15.9067 16.0703 16.2117L11.733 23.0932L10.6446 21.6852C10.456 21.4414 10.1536 21.3837 9.91173 21.5454L8.32595 22.6054L1.64412 15.068C1.40167 14.7946 1.02104 14.8092 0.793578 15.101C0.566336 15.3928 0.578589 15.851 0.82104 16.1245L7.82322 24.0232C8.01403 24.2385 8.2986 24.2809 8.52705 24.1279L10.0845 23.0868L18.5162 33.9934C18.6705 34.1928 18.9049 34.2713 19.1221 34.1964L20.3301 33.7812L34.8556 49.8095C34.9712 49.9371 35.117 50 35.2621 50C35.4249 50 35.5872 49.921 35.7059 49.7653C35.9305 49.4705 35.914 49.0125 35.6691 48.7422L27.2777 39.4826L36.6894 34.2922L37.9758 34.9556C38.1415 35.041 38.3301 35.0326 38.4899 34.9328L50.3061 27.5606C50.601 27.3764 50.7162 26.9395 50.5632 26.5844ZM20.0979 5.24611C20.2071 4.06735 21.0398 3.14767 22.0476 3.14767C22.3922 3.14767 22.7196 3.25312 23.0204 3.46086C23.1622 3.5588 23.3312 3.58315 23.488 3.52826C23.6451 3.47336 23.7767 3.34382 23.8527 3.16965C24.3162 2.10779 25.2219 1.44811 26.2161 1.44811C27.2096 1.44811 28.1148 2.10779 28.5783 3.16965C28.6544 3.34382 28.786 3.47336 28.9431 3.52826C29.1001 3.58329 29.2689 3.55893 29.4107 3.46086C29.7115 3.25299 30.0387 3.14767 30.3835 3.14767C31.3918 3.14767 32.225 4.06735 32.3342 5.24611H28.0737L27.0828 3.81433C26.9665 3.64634 26.7966 3.55327 26.6117 3.55367C26.43 3.55683 26.2592 3.65859 26.147 3.83065L25.2236 5.24611H20.0979ZM38.1883 33.4896L36.9182 32.8345C36.762 32.7539 36.585 32.7565 36.4303 32.8417L26.315 38.4202L20.8952 32.4398C20.7409 32.2696 20.524 32.2081 20.3231 32.2772L19.146 32.6819L12.565 24.1694L16.6869 17.6296L20.7889 21.1824C20.8961 21.2771 21.0207 21.3227 21.1442 21.3227C21.3293 21.3227 21.512 21.2201 21.63 21.0267C21.8265 20.7043 21.7686 20.2512 21.5006 20.0146L18.7197 17.5609L26.6339 5.42897L30.1514 10.5112L27.315 13.469C27.0639 13.7309 27.0368 14.1882 27.2544 14.4903C27.3734 14.6555 27.5409 14.7402 27.7093 14.7402C27.849 14.7402 27.9894 14.682 28.1033 14.5633L32.1167 10.5608L37.261 20.7121C37.389 20.9644 37.6314 21.0982 37.8738 21.0494L38.8056 20.8625L43.8963 29.928L38.1883 33.4896Z" fill="url(#paint1_linear_258_49)"/>
<path d="M50.5632 26.5844C50.4104 26.2295 50.0471 26.0908 49.7519 26.2749L44.9721 29.2571L39.5866 19.6668C39.4548 19.4321 39.2219 19.3112 38.989 19.358L38.0772 19.5408L32.8185 9.16352C32.7331 8.99527 32.5945 8.876 32.4346 8.83348C32.2744 8.79096 32.1072 8.82861 31.9709 8.93801L31.108 9.6302L29.076 6.69422H32.9163C33.2144 6.69422 33.4675 6.43172 33.5114 6.07693C33.5375 5.86591 33.5498 5.68568 33.5498 5.50941C33.5498 3.40859 32.1294 1.69956 30.3835 1.69956C30.0287 1.69956 29.6763 1.77236 29.3423 1.91296C28.6196 0.718659 27.4662 0 26.2161 0C24.9653 0 23.8116 0.718659 23.0888 1.91296C22.7549 1.77236 22.4026 1.69956 22.0476 1.69956C20.3023 1.69956 18.8823 3.40859 18.8823 5.50941C18.8823 5.68568 18.8944 5.86591 18.9207 6.07693C18.9646 6.43172 19.2177 6.69422 19.5158 6.69422H24.2789L17.7332 16.7283L16.8835 16.0468C16.6187 15.8344 16.2624 15.9067 16.0703 16.2117L11.733 23.0932L10.6446 21.6852C10.456 21.4414 10.1536 21.3837 9.91173 21.5454L8.32595 22.6054L1.64412 15.068C1.40167 14.7946 1.02104 14.8092 0.793578 15.101C0.566336 15.3928 0.578589 15.851 0.82104 16.1245L7.82322 24.0232C8.01403 24.2385 8.2986 24.2809 8.52705 24.1279L10.0845 23.0868L18.5162 33.9934C18.6705 34.1928 18.9049 34.2713 19.1221 34.1964L20.3301 33.7812L34.8556 49.8095C34.9712 49.9371 35.117 50 35.2621 50C35.4249 50 35.5872 49.921 35.7059 49.7653C35.9305 49.4705 35.914 49.0125 35.6691 48.7422L27.2777 39.4826L36.6894 34.2922L37.9758 34.9556C38.1415 35.041 38.3301 35.0326 38.4899 34.9328L50.3061 27.5606C50.601 27.3764 50.7162 26.9395 50.5632 26.5844ZM20.0979 5.24611C20.2071 4.06735 21.0398 3.14767 22.0476 3.14767C22.3922 3.14767 22.7196 3.25312 23.0204 3.46086C23.1622 3.5588 23.3312 3.58315 23.488 3.52826C23.6451 3.47336 23.7767 3.34382 23.8527 3.16965C24.3162 2.10779 25.2219 1.44811 26.2161 1.44811C27.2096 1.44811 28.1148 2.10779 28.5783 3.16965C28.6544 3.34382 28.786 3.47336 28.9431 3.52826C29.1001 3.58329 29.2689 3.55893 29.4107 3.46086C29.7115 3.25299 30.0387 3.14767 30.3835 3.14767C31.3918 3.14767 32.225 4.06735 32.3342 5.24611H28.0737L27.0828 3.81433C26.9665 3.64634 26.7966 3.55327 26.6117 3.55367C26.43 3.55683 26.2592 3.65859 26.147 3.83065L25.2236 5.24611H20.0979ZM38.1883 33.4896L36.9182 32.8345C36.762 32.7539 36.585 32.7565 36.4303 32.8417L26.315 38.4202L20.8952 32.4398C20.7409 32.2696 20.524 32.2081 20.3231 32.2772L19.146 32.6819L12.565 24.1694L16.6869 17.6296L20.7889 21.1824C20.8961 21.2771 21.0207 21.3227 21.1442 21.3227C21.3293 21.3227 21.512 21.2201 21.63 21.0267C21.8265 20.7043 21.7686 20.2512 21.5006 20.0146L18.7197 17.5609L26.6339 5.42897L30.1514 10.5112L27.315 13.469C27.0639 13.7309 27.0368 14.1882 27.2544 14.4903C27.3734 14.6555 27.5409 14.7402 27.7093 14.7402C27.849 14.7402 27.9894 14.682 28.1033 14.5633L32.1167 10.5608L37.261 20.7121C37.389 20.9644 37.6314 21.0982 37.8738 21.0494L38.8056 20.8625L43.8963 29.928L38.1883 33.4896Z" fill="black" fill-opacity="0.05"/>
<path d="M34.0058 25.9338L32.21 27.7346L28.6694 25.0235C28.4485 24.8545 28.1622 24.8766 27.961 25.0781L23.694 29.3567C23.4388 29.6127 23.4043 30.0693 23.617 30.3764C23.736 30.5482 23.9071 30.6369 24.0797 30.6369C24.2155 30.6369 24.3521 30.5819 24.4647 30.4691L28.394 26.529L31.9346 29.2401C32.1556 29.4092 32.4418 29.3871 32.643 29.1855L34.7765 27.0463C35.0317 26.7902 35.0662 26.3337 34.8535 26.0265C34.6407 25.7194 34.2613 25.6779 34.0058 25.9338Z" fill="url(#paint2_linear_258_49)"/>
<path d="M34.0058 25.9338L32.21 27.7346L28.6694 25.0235C28.4485 24.8545 28.1622 24.8766 27.961 25.0781L23.694 29.3567C23.4388 29.6127 23.4043 30.0693 23.617 30.3764C23.736 30.5482 23.9071 30.6369 24.0797 30.6369C24.2155 30.6369 24.3521 30.5819 24.4647 30.4691L28.394 26.529L31.9346 29.2401C32.1556 29.4092 32.4418 29.3871 32.643 29.1855L34.7765 27.0463C35.0317 26.7902 35.0662 26.3337 34.8535 26.0265C34.6407 25.7194 34.2613 25.6779 34.0058 25.9338Z" fill="black" fill-opacity="0.05"/>
<path d="M25.4145 44.0308L19.7946 40.6553C19.6379 40.5612 19.455 40.554 19.2937 40.6352L17.3794 41.5985L8.88781 35.0949C8.60762 34.8801 8.23552 34.9795 8.05707 35.3169C7.87863 35.6544 7.96123 36.1018 8.24164 36.3165L16.9984 43.0233C17.1646 43.1506 17.3721 43.1719 17.5537 43.0804L19.5038 42.0991L24.8771 45.3264C24.9633 45.3783 25.055 45.4028 25.1453 45.4028C25.3662 45.4028 25.5788 45.2559 25.6842 45.0019C25.8325 44.6442 25.7118 44.2094 25.4145 44.0308Z" fill="url(#paint3_linear_258_49)"/>
<path d="M25.4145 44.0308L19.7946 40.6553C19.6379 40.5612 19.455 40.554 19.2937 40.6352L17.3794 41.5985L8.88781 35.0949C8.60762 34.8801 8.23552 34.9795 8.05707 35.3169C7.87863 35.6544 7.96123 36.1018 8.24164 36.3165L16.9984 43.0233C17.1646 43.1506 17.3721 43.1719 17.5537 43.0804L19.5038 42.0991L24.8771 45.3264C24.9633 45.3783 25.055 45.4028 25.1453 45.4028C25.3662 45.4028 25.5788 45.2559 25.6842 45.0019C25.8325 44.6442 25.7118 44.2094 25.4145 44.0308Z" fill="black" fill-opacity="0.05"/>
<path d="M38.545 15.0494H45.6174C45.9497 15.0494 46.2192 14.7253 46.2192 14.3254C46.2192 12.7444 45.1502 11.4584 43.8365 11.4584C43.4906 11.4584 43.1487 11.5507 42.8368 11.7243C42.3029 11.1345 41.6094 10.8059 40.8683 10.8059C39.2555 10.8059 37.9434 12.3848 37.9434 14.3254C37.9432 14.7252 38.2127 15.0494 38.545 15.0494ZM40.8683 12.2539C41.4133 12.2539 41.9149 12.5572 42.2444 13.0859C42.3423 13.2426 42.4884 13.345 42.65 13.3698C42.8118 13.3945 42.9744 13.3393 43.1017 13.217C43.313 13.0138 43.5671 12.9064 43.8365 12.9064C44.2671 12.9064 44.6444 13.1854 44.8504 13.6012H39.2554C39.4998 12.8151 40.1306 12.2539 40.8683 12.2539Z" fill="url(#paint4_linear_258_49)"/>
<path d="M38.545 15.0494H45.6174C45.9497 15.0494 46.2192 14.7253 46.2192 14.3254C46.2192 12.7444 45.1502 11.4584 43.8365 11.4584C43.4906 11.4584 43.1487 11.5507 42.8368 11.7243C42.3029 11.1345 41.6094 10.8059 40.8683 10.8059C39.2555 10.8059 37.9434 12.3848 37.9434 14.3254C37.9432 14.7252 38.2127 15.0494 38.545 15.0494ZM40.8683 12.2539C41.4133 12.2539 41.9149 12.5572 42.2444 13.0859C42.3423 13.2426 42.4884 13.345 42.65 13.3698C42.8118 13.3945 42.9744 13.3393 43.1017 13.217C43.313 13.0138 43.5671 12.9064 43.8365 12.9064C44.2671 12.9064 44.6444 13.1854 44.8504 13.6012H39.2554C39.4998 12.8151 40.1306 12.2539 40.8683 12.2539Z" fill="black" fill-opacity="0.05"/>
<defs>
<linearGradient id="paint0_linear_258_49" x1="15.993" y1="8.13388" x2="3.39617" y2="9.56007" gradientUnits="userSpaceOnUse">
<stop stop-color="#D9DC31"/>
<stop offset="1" stop-color="#2DBBDA"/>
</linearGradient>
<linearGradient id="paint1_linear_258_49" x1="59.4706" y1="9.21052" x2="-10.4938" y2="13.4578" gradientUnits="userSpaceOnUse">
<stop stop-color="#D9DC31"/>
<stop offset="1" stop-color="#2DBBDA"/>
</linearGradient>
<linearGradient id="paint2_linear_258_49" x1="37.0288" y1="25.9653" x2="21.0935" y2="27.9106" gradientUnits="userSpaceOnUse">
<stop stop-color="#D9DC31"/>
<stop offset="1" stop-color="#2DBBDA"/>
</linearGradient>
<linearGradient id="paint3_linear_258_49" x1="28.8919" y1="36.9012" x2="4.17943" y2="39.4615" gradientUnits="userSpaceOnUse">
<stop stop-color="#D9DC31"/>
<stop offset="1" stop-color="#2DBBDA"/>
</linearGradient>
<linearGradient id="paint4_linear_258_49" x1="47.6823" y1="11.5876" x2="36.22" y2="12.9447" gradientUnits="userSpaceOnUse">
<stop stop-color="#D9DC31"/>
<stop offset="1" stop-color="#2DBBDA"/>
</linearGradient>
</defs>
</svg>
