<svg width="50" height="50" viewBox="0 0 50 50" fill="none" xmlns="http://www.w3.org/2000/svg">
<g clip-path="url(#clip0_258_88)">
<path d="M33 24.0234C33.5393 24.0234 33.9766 23.5862 33.9766 23.0469C33.9766 22.5075 33.5393 22.0703 33 22.0703C32.4607 22.0703 32.0234 22.5075 32.0234 23.0469C32.0234 23.5862 32.4607 24.0234 33 24.0234Z" fill="url(#paint0_linear_258_88)"/>
<path d="M33 24.0234C33.5393 24.0234 33.9766 23.5862 33.9766 23.0469C33.9766 22.5075 33.5393 22.0703 33 22.0703C32.4607 22.0703 32.0234 22.5075 32.0234 23.0469C32.0234 23.5862 32.4607 24.0234 33 24.0234Z" fill="black" fill-opacity="0.05"/>
<path d="M33.1674 27.2312C32.6343 27.152 32.1373 27.5207 32.0583 28.0542C31.7914 29.8564 30.268 31.3512 27.9832 32.0527C25.5411 32.8026 22.1514 32.5512 20.0835 30.2994C19.7187 29.9021 19.1009 29.876 18.7037 30.2406C18.3065 30.6054 18.2802 31.2232 18.6449 31.6204C19.842 32.924 21.4679 33.8125 23.3468 34.1897C24.0103 34.3229 24.6986 34.389 25.3913 34.389C26.4614 34.389 27.5421 34.2313 28.5566 33.9198C31.579 32.9918 33.6104 30.906 33.9904 28.3403C34.0694 27.8068 33.7009 27.3102 33.1674 27.2312Z" fill="url(#paint1_linear_258_88)"/>
<path d="M33.1674 27.2312C32.6343 27.152 32.1373 27.5207 32.0583 28.0542C31.7914 29.8564 30.268 31.3512 27.9832 32.0527C25.5411 32.8026 22.1514 32.5512 20.0835 30.2994C19.7187 29.9021 19.1009 29.876 18.7037 30.2406C18.3065 30.6054 18.2802 31.2232 18.6449 31.6204C19.842 32.924 21.4679 33.8125 23.3468 34.1897C24.0103 34.3229 24.6986 34.389 25.3913 34.389C26.4614 34.389 27.5421 34.2313 28.5566 33.9198C31.579 32.9918 33.6104 30.906 33.9904 28.3403C34.0694 27.8068 33.7009 27.3102 33.1674 27.2312Z" fill="black" fill-opacity="0.05"/>
<path d="M46.7408 18.5948C44.9658 16.5371 42.516 15.2029 39.5672 14.6671C42.3905 12.7618 44.8256 10.8657 46.5619 9.21123C49.2093 6.68867 50.097 4.91602 49.3558 3.63291C48.531 2.20381 46.15 2.21367 41.8623 3.66426C38.2396 4.88984 33.7265 7.01846 29.1546 9.65811C28.3649 10.114 27.5825 10.5808 26.8171 11.0512C26.2494 9.44795 26.6239 7.6166 27.8764 6.02861C28.8146 4.83916 29.024 3.32842 28.4232 2.08574C27.7933 0.783301 26.4109 0.00351562 24.7229 0H24.677C18.7194 0 12.8921 2.35068 8.26877 6.61904C3.63967 10.8927 0.805686 16.5501 0.288889 22.549C-0.332889 29.7736 1.97649 36.6422 6.79143 41.8894C11.5213 47.0438 18.2269 50 25.1887 50C28.9367 50 32.4553 49.3143 35.6464 47.9616C38.5644 46.7248 41.1556 44.9588 43.3482 42.7124C45.3811 40.6295 46.9839 38.2317 48.1121 35.5855C49.1858 33.0676 49.7723 30.3992 49.8086 27.869C49.8615 24.1896 48.8006 20.9826 46.7408 18.5948ZM26.9313 13.2801C27.9649 12.6282 29.0413 11.9787 30.1311 11.3496C34.3582 8.90898 38.5676 6.89873 41.9839 5.68906C45.7447 4.35752 47.2844 4.44443 47.6434 4.61631C47.6123 4.84355 47.3301 5.85459 44.8622 8.12725C42.8015 10.025 39.7922 12.2567 36.3888 14.4113C35.3129 15.0927 34.1932 15.7698 33.0609 16.4237C31.4998 17.3247 29.94 18.1672 28.409 18.9386C28.1035 18.0471 27.712 17.1819 27.2356 16.3565C26.7738 15.5566 26.2381 14.8057 25.6394 14.1108C26.0631 13.8331 26.4943 13.5554 26.9313 13.2801ZM26.6397 19.8049C23.8822 21.1126 21.3519 22.1096 19.3313 22.6879C19.2261 22.1827 19.0411 21.6944 18.7787 21.2396C18.53 20.8084 18.218 20.4229 17.8573 20.0905C19.37 18.6307 21.4991 16.9393 24.0062 15.2089C24.5882 15.8594 25.1042 16.5709 25.5442 17.3329C25.9991 18.121 26.3654 18.9499 26.6397 19.8049ZM47.8557 27.841C47.7164 37.5586 39.0107 48.0469 25.1887 48.0469C18.7725 48.0469 12.5915 45.3213 8.23059 40.5689C3.78987 35.7297 1.66067 29.3896 2.23489 22.7166C3.22112 11.2676 13.2886 1.95312 24.677 1.95312H24.7208C25.6551 1.95508 26.3637 2.31328 26.6648 2.93604C26.9416 3.5085 26.8213 4.2124 26.3428 4.81904C24.5827 7.05049 24.1413 9.79492 25.1358 12.1089C24.6122 12.4462 24.0977 12.785 23.6005 13.121C23.5982 13.1226 23.5958 13.1241 23.5936 13.1257C20.4882 15.2211 17.8659 17.3054 16.1212 19.0594C14.798 18.6071 13.3441 18.739 12.1083 19.4522C10.0794 20.6242 7.41535 26.0856 6.90198 27.1686C6.76448 27.4584 6.77825 27.7974 6.9386 28.0752C7.09905 28.353 7.38567 28.5344 7.70539 28.5604C8.24514 28.6041 9.77786 28.7146 11.4838 28.7146C13.5539 28.7146 15.8789 28.5518 16.9912 27.9093C18.1961 27.2138 19.0313 26.0517 19.3205 24.7157C21.7154 24.0871 24.8444 22.8573 28.2332 21.2062C30.132 20.2821 32.0847 19.2422 34.0374 18.1152C35.028 17.5432 36.0073 16.9534 36.959 16.3586C36.9648 16.3589 36.9703 16.3598 36.9761 16.36C45.1157 16.5934 47.9331 22.4438 47.8557 27.841ZM17.4748 23.8643C17.4123 24.8464 16.8666 25.7261 16.0147 26.2179C15.0911 26.7514 11.9185 26.8232 9.3135 26.7041C10.5122 24.3893 12.1606 21.6777 13.0851 21.1437C13.9579 20.6398 15.0132 20.6178 15.9085 21.0849C16.4006 21.3411 16.808 21.732 17.0869 22.2155C17.3771 22.7185 17.5112 23.2886 17.4748 23.8643Z" fill="url(#paint2_linear_258_88)"/>
<path d="M46.7408 18.5948C44.9658 16.5371 42.516 15.2029 39.5672 14.6671C42.3905 12.7618 44.8256 10.8657 46.5619 9.21123C49.2093 6.68867 50.097 4.91602 49.3558 3.63291C48.531 2.20381 46.15 2.21367 41.8623 3.66426C38.2396 4.88984 33.7265 7.01846 29.1546 9.65811C28.3649 10.114 27.5825 10.5808 26.8171 11.0512C26.2494 9.44795 26.6239 7.6166 27.8764 6.02861C28.8146 4.83916 29.024 3.32842 28.4232 2.08574C27.7933 0.783301 26.4109 0.00351562 24.7229 0H24.677C18.7194 0 12.8921 2.35068 8.26877 6.61904C3.63967 10.8927 0.805686 16.5501 0.288889 22.549C-0.332889 29.7736 1.97649 36.6422 6.79143 41.8894C11.5213 47.0438 18.2269 50 25.1887 50C28.9367 50 32.4553 49.3143 35.6464 47.9616C38.5644 46.7248 41.1556 44.9588 43.3482 42.7124C45.3811 40.6295 46.9839 38.2317 48.1121 35.5855C49.1858 33.0676 49.7723 30.3992 49.8086 27.869C49.8615 24.1896 48.8006 20.9826 46.7408 18.5948ZM26.9313 13.2801C27.9649 12.6282 29.0413 11.9787 30.1311 11.3496C34.3582 8.90898 38.5676 6.89873 41.9839 5.68906C45.7447 4.35752 47.2844 4.44443 47.6434 4.61631C47.6123 4.84355 47.3301 5.85459 44.8622 8.12725C42.8015 10.025 39.7922 12.2567 36.3888 14.4113C35.3129 15.0927 34.1932 15.7698 33.0609 16.4237C31.4998 17.3247 29.94 18.1672 28.409 18.9386C28.1035 18.0471 27.712 17.1819 27.2356 16.3565C26.7738 15.5566 26.2381 14.8057 25.6394 14.1108C26.0631 13.8331 26.4943 13.5554 26.9313 13.2801ZM26.6397 19.8049C23.8822 21.1126 21.3519 22.1096 19.3313 22.6879C19.2261 22.1827 19.0411 21.6944 18.7787 21.2396C18.53 20.8084 18.218 20.4229 17.8573 20.0905C19.37 18.6307 21.4991 16.9393 24.0062 15.2089C24.5882 15.8594 25.1042 16.5709 25.5442 17.3329C25.9991 18.121 26.3654 18.9499 26.6397 19.8049ZM47.8557 27.841C47.7164 37.5586 39.0107 48.0469 25.1887 48.0469C18.7725 48.0469 12.5915 45.3213 8.23059 40.5689C3.78987 35.7297 1.66067 29.3896 2.23489 22.7166C3.22112 11.2676 13.2886 1.95312 24.677 1.95312H24.7208C25.6551 1.95508 26.3637 2.31328 26.6648 2.93604C26.9416 3.5085 26.8213 4.2124 26.3428 4.81904C24.5827 7.05049 24.1413 9.79492 25.1358 12.1089C24.6122 12.4462 24.0977 12.785 23.6005 13.121C23.5982 13.1226 23.5958 13.1241 23.5936 13.1257C20.4882 15.2211 17.8659 17.3054 16.1212 19.0594C14.798 18.6071 13.3441 18.739 12.1083 19.4522C10.0794 20.6242 7.41535 26.0856 6.90198 27.1686C6.76448 27.4584 6.77825 27.7974 6.9386 28.0752C7.09905 28.353 7.38567 28.5344 7.70539 28.5604C8.24514 28.6041 9.77786 28.7146 11.4838 28.7146C13.5539 28.7146 15.8789 28.5518 16.9912 27.9093C18.1961 27.2138 19.0313 26.0517 19.3205 24.7157C21.7154 24.0871 24.8444 22.8573 28.2332 21.2062C30.132 20.2821 32.0847 19.2422 34.0374 18.1152C35.028 17.5432 36.0073 16.9534 36.959 16.3586C36.9648 16.3589 36.9703 16.3598 36.9761 16.36C45.1157 16.5934 47.9331 22.4438 47.8557 27.841ZM17.4748 23.8643C17.4123 24.8464 16.8666 25.7261 16.0147 26.2179C15.0911 26.7514 11.9185 26.8232 9.3135 26.7041C10.5122 24.3893 12.1606 21.6777 13.0851 21.1437C13.9579 20.6398 15.0132 20.6178 15.9085 21.0849C16.4006 21.3411 16.808 21.732 17.0869 22.2155C17.3771 22.7185 17.5112 23.2886 17.4748 23.8643Z" fill="black" fill-opacity="0.05"/>
<path d="M17.375 6.03906C15.2211 6.03906 13.4688 7.79141 13.4688 9.94531C13.4688 12.0992 15.2211 13.8516 17.375 13.8516C19.5289 13.8516 21.2812 12.0992 21.2812 9.94531C21.2812 7.79141 19.5289 6.03906 17.375 6.03906ZM17.375 11.8984C16.298 11.8984 15.4219 11.0223 15.4219 9.94531C15.4219 8.86836 16.298 7.99219 17.375 7.99219C18.452 7.99219 19.3281 8.86836 19.3281 9.94531C19.3281 11.0223 18.452 11.8984 17.375 11.8984Z" fill="url(#paint3_linear_258_88)"/>
<path d="M17.375 6.03906C15.2211 6.03906 13.4688 7.79141 13.4688 9.94531C13.4688 12.0992 15.2211 13.8516 17.375 13.8516C19.5289 13.8516 21.2812 12.0992 21.2812 9.94531C21.2812 7.79141 19.5289 6.03906 17.375 6.03906ZM17.375 11.8984C16.298 11.8984 15.4219 11.0223 15.4219 9.94531C15.4219 8.86836 16.298 7.99219 17.375 7.99219C18.452 7.99219 19.3281 8.86836 19.3281 9.94531C19.3281 11.0223 18.452 11.8984 17.375 11.8984Z" fill="black" fill-opacity="0.05"/>
<path d="M12.4922 32.2803C10.3383 32.2803 8.58594 34.0326 8.58594 36.1865C8.58594 38.3404 10.3383 40.0928 12.4922 40.0928C14.6461 40.0928 16.3984 38.3404 16.3984 36.1865C16.3984 34.0326 14.6461 32.2803 12.4922 32.2803ZM12.4922 38.1396C11.4152 38.1396 10.5391 37.2635 10.5391 36.1865C10.5391 35.1096 11.4152 34.2334 12.4922 34.2334C13.5691 34.2334 14.4453 35.1096 14.4453 36.1865C14.4453 37.2635 13.5691 38.1396 12.4922 38.1396Z" fill="url(#paint4_linear_258_88)"/>
<path d="M12.4922 32.2803C10.3383 32.2803 8.58594 34.0326 8.58594 36.1865C8.58594 38.3404 10.3383 40.0928 12.4922 40.0928C14.6461 40.0928 16.3984 38.3404 16.3984 36.1865C16.3984 34.0326 14.6461 32.2803 12.4922 32.2803ZM12.4922 38.1396C11.4152 38.1396 10.5391 37.2635 10.5391 36.1865C10.5391 35.1096 11.4152 34.2334 12.4922 34.2334C13.5691 34.2334 14.4453 35.1096 14.4453 36.1865C14.4453 37.2635 13.5691 38.1396 12.4922 38.1396Z" fill="black" fill-opacity="0.05"/>
<path d="M22.2578 38.1396C20.1039 38.1396 18.3516 39.892 18.3516 42.0459C18.3516 44.1998 20.1039 45.9521 22.2578 45.9521C24.4117 45.9521 26.1641 44.1998 26.1641 42.0459C26.1641 39.892 24.4117 38.1396 22.2578 38.1396ZM22.2578 43.999C21.1809 43.999 20.3047 43.1229 20.3047 42.0459C20.3047 40.9689 21.1809 40.0928 22.2578 40.0928C23.3348 40.0928 24.2109 40.9689 24.2109 42.0459C24.2109 43.1229 23.3348 43.999 22.2578 43.999Z" fill="url(#paint5_linear_258_88)"/>
<path d="M22.2578 38.1396C20.1039 38.1396 18.3516 39.892 18.3516 42.0459C18.3516 44.1998 20.1039 45.9521 22.2578 45.9521C24.4117 45.9521 26.1641 44.1998 26.1641 42.0459C26.1641 39.892 24.4117 38.1396 22.2578 38.1396ZM22.2578 43.999C21.1809 43.999 20.3047 43.1229 20.3047 42.0459C20.3047 40.9689 21.1809 40.0928 22.2578 40.0928C23.3348 40.0928 24.2109 40.9689 24.2109 42.0459C24.2109 43.1229 23.3348 43.999 22.2578 43.999Z" fill="black" fill-opacity="0.05"/>
<path d="M33.9766 36.1865C31.8227 36.1865 30.0703 37.9389 30.0703 40.0928C30.0703 42.2467 31.8227 43.999 33.9766 43.999C36.1305 43.999 37.8828 42.2467 37.8828 40.0928C37.8828 37.9389 36.1305 36.1865 33.9766 36.1865ZM33.9766 42.0459C32.8996 42.0459 32.0234 41.1697 32.0234 40.0928C32.0234 39.0158 32.8996 38.1396 33.9766 38.1396C35.0535 38.1396 35.9297 39.0158 35.9297 40.0928C35.9297 41.1697 35.0535 42.0459 33.9766 42.0459Z" fill="url(#paint6_linear_258_88)"/>
<path d="M33.9766 36.1865C31.8227 36.1865 30.0703 37.9389 30.0703 40.0928C30.0703 42.2467 31.8227 43.999 33.9766 43.999C36.1305 43.999 37.8828 42.2467 37.8828 40.0928C37.8828 37.9389 36.1305 36.1865 33.9766 36.1865ZM33.9766 42.0459C32.8996 42.0459 32.0234 41.1697 32.0234 40.0928C32.0234 39.0158 32.8996 38.1396 33.9766 38.1396C35.0535 38.1396 35.9297 39.0158 35.9297 40.0928C35.9297 41.1697 35.0535 42.0459 33.9766 42.0459Z" fill="black" fill-opacity="0.05"/>
<path d="M41.7891 26.4209C39.6352 26.4209 37.8828 28.1732 37.8828 30.3271C37.8828 32.4811 39.6352 34.2334 41.7891 34.2334C43.943 34.2334 45.6953 32.4811 45.6953 30.3271C45.6953 28.1732 43.943 26.4209 41.7891 26.4209ZM41.7891 32.2803C40.7121 32.2803 39.8359 31.4041 39.8359 30.3271C39.8359 29.2502 40.7121 28.374 41.7891 28.374C42.866 28.374 43.7422 29.2502 43.7422 30.3271C43.7422 31.4041 42.866 32.2803 41.7891 32.2803Z" fill="url(#paint7_linear_258_88)"/>
<path d="M41.7891 26.4209C39.6352 26.4209 37.8828 28.1732 37.8828 30.3271C37.8828 32.4811 39.6352 34.2334 41.7891 34.2334C43.943 34.2334 45.6953 32.4811 45.6953 30.3271C45.6953 28.1732 43.943 26.4209 41.7891 26.4209ZM41.7891 32.2803C40.7121 32.2803 39.8359 31.4041 39.8359 30.3271C39.8359 29.2502 40.7121 28.374 41.7891 28.374C42.866 28.374 43.7422 29.2502 43.7422 30.3271C43.7422 31.4041 42.866 32.2803 41.7891 32.2803Z" fill="black" fill-opacity="0.05"/>
</g>
<defs>
<linearGradient id="paint0_linear_258_88" x1="34.3219" y1="22.4301" x2="31.5889" y2="22.596" gradientUnits="userSpaceOnUse">
<stop stop-color="#D9DC31"/>
<stop offset="1" stop-color="#2DBBDA"/>
</linearGradient>
<linearGradient id="paint1_linear_258_88" x1="36.7614" y1="28.541" x2="15.2101" y2="31.3906" gradientUnits="userSpaceOnUse">
<stop stop-color="#D9DC31"/>
<stop offset="1" stop-color="#2DBBDA"/>
</linearGradient>
<linearGradient id="paint2_linear_258_88" x1="58.5833" y1="9.21052" x2="-10.8548" y2="13.3939" gradientUnits="userSpaceOnUse">
<stop stop-color="#D9DC31"/>
<stop offset="1" stop-color="#2DBBDA"/>
</linearGradient>
<linearGradient id="paint3_linear_258_88" x1="22.6625" y1="7.47821" x2="11.7305" y2="8.14185" gradientUnits="userSpaceOnUse">
<stop stop-color="#D9DC31"/>
<stop offset="1" stop-color="#2DBBDA"/>
</linearGradient>
<linearGradient id="paint4_linear_258_88" x1="17.7797" y1="33.7194" x2="6.8477" y2="34.3831" gradientUnits="userSpaceOnUse">
<stop stop-color="#D9DC31"/>
<stop offset="1" stop-color="#2DBBDA"/>
</linearGradient>
<linearGradient id="paint5_linear_258_88" x1="27.5453" y1="39.5788" x2="16.6133" y2="40.2424" gradientUnits="userSpaceOnUse">
<stop stop-color="#D9DC31"/>
<stop offset="1" stop-color="#2DBBDA"/>
</linearGradient>
<linearGradient id="paint6_linear_258_88" x1="39.264" y1="37.6257" x2="28.3321" y2="38.2893" gradientUnits="userSpaceOnUse">
<stop stop-color="#D9DC31"/>
<stop offset="1" stop-color="#2DBBDA"/>
</linearGradient>
<linearGradient id="paint7_linear_258_88" x1="47.0765" y1="27.86" x2="36.1446" y2="28.5237" gradientUnits="userSpaceOnUse">
<stop stop-color="#D9DC31"/>
<stop offset="1" stop-color="#2DBBDA"/>
</linearGradient>
<clipPath id="clip0_258_88">
<rect width="50" height="50" fill="white"/>
</clipPath>
</defs>
</svg>
