<svg width="51" height="50" viewBox="0 0 51 50" fill="none" xmlns="http://www.w3.org/2000/svg">
<g clip-path="url(#clip0_263_3)">
<path fill-rule="evenodd" clip-rule="evenodd" d="M25.2812 2.19371C17.7341 2.19371 11.5943 8.33351 11.5943 15.8805C11.5945 23.4263 17.7341 29.5661 25.2811 29.5661C32.827 29.566 38.9667 23.4264 38.9667 15.8805C38.967 8.33339 32.8269 2.19371 25.2812 2.19371ZM25.2812 30.8703C17.0152 30.8703 10.29 24.1452 10.29 15.8805C10.2902 7.61444 17.0152 0.889404 25.2811 0.889404C33.5458 0.889404 40.271 7.61444 40.271 15.8805C40.271 24.1452 33.5459 30.8704 25.2812 30.8703Z" fill="url(#paint0_linear_263_3)"/>
<path fill-rule="evenodd" clip-rule="evenodd" d="M25.2812 2.19371C17.7341 2.19371 11.5943 8.33351 11.5943 15.8805C11.5945 23.4263 17.7341 29.5661 25.2811 29.5661C32.827 29.566 38.9667 23.4264 38.9667 15.8805C38.967 8.33339 32.8269 2.19371 25.2812 2.19371ZM25.2812 30.8703C17.0152 30.8703 10.29 24.1452 10.29 15.8805C10.2902 7.61444 17.0152 0.889404 25.2811 0.889404C33.5458 0.889404 40.271 7.61444 40.271 15.8805C40.271 24.1452 33.5459 30.8704 25.2812 30.8703Z" fill="black" fill-opacity="0.05"/>
<path fill-rule="evenodd" clip-rule="evenodd" d="M17.2523 14.9938C16.9739 14.9938 16.7733 14.9079 16.6024 14.7358C16.1449 14.2762 16.419 13.6762 16.7359 12.981C16.9026 12.6153 17.0914 12.2009 17.2239 11.7538C17.5264 10.7415 16.9012 10.1993 16.8956 10.1936C16.163 9.5573 15.8369 8.90065 15.9185 8.23386C16.0184 7.41631 16.6997 6.94883 16.9431 6.80615C18.6959 5.30369 18.0085 3.5228 17.9779 3.44818C17.8444 3.11519 18.0028 2.73491 18.3346 2.59903C18.6663 2.46304 19.0444 2.61829 19.1826 2.94886C19.5788 3.89306 19.7849 6.13254 17.7346 7.8455C17.6973 7.87722 17.6563 7.90433 17.6122 7.9259C17.4958 7.98922 17.2364 8.19084 17.2125 8.39465C17.1901 8.59604 17.3836 8.89051 17.7435 9.20297C17.79 9.24253 19.0161 10.3058 18.4738 12.1262C18.3176 12.6503 18.1058 13.1202 17.9314 13.5006C18.2621 13.3795 18.7432 13.1825 19.4475 12.8677C20.2345 12.5156 21.5239 12.2496 23.2164 12.9618C24.1131 13.1508 24.7653 13.0626 25.0109 12.7172C25.2261 12.4138 25.157 11.8658 24.84 11.3541C23.6763 9.47575 23.7667 7.86246 25.0902 6.92956C25.2908 6.78803 25.5533 6.77108 25.7694 6.88538C25.8421 6.92275 27.6036 7.80593 28.7686 6.39968C28.9611 6.16761 29.2871 6.09736 29.5566 6.22989C29.5974 6.24915 33.6278 8.16811 35.7484 6.11893C36.0078 5.86864 36.4208 5.8766 36.6711 6.13589C36.9213 6.39391 36.9133 6.80729 36.6552 7.05747C34.339 9.29466 30.6944 8.10928 29.4287 7.59635C28.1787 8.75347 26.5711 8.59049 25.5883 8.22705C25.1514 8.75578 25.2713 9.57425 25.9483 10.6669C26.5576 11.6496 26.605 12.724 26.074 13.4724C25.7401 13.9433 24.8796 14.6679 22.8757 14.2219C22.8362 14.2127 22.7964 14.2003 22.759 14.1845C21.7255 13.7373 20.7914 13.6954 19.9807 14.0577C18.5815 14.6848 17.7775 14.994 17.2523 14.9938Z" fill="url(#paint1_linear_263_3)"/>
<path fill-rule="evenodd" clip-rule="evenodd" d="M17.2523 14.9938C16.9739 14.9938 16.7733 14.9079 16.6024 14.7358C16.1449 14.2762 16.419 13.6762 16.7359 12.981C16.9026 12.6153 17.0914 12.2009 17.2239 11.7538C17.5264 10.7415 16.9012 10.1993 16.8956 10.1936C16.163 9.5573 15.8369 8.90065 15.9185 8.23386C16.0184 7.41631 16.6997 6.94883 16.9431 6.80615C18.6959 5.30369 18.0085 3.5228 17.9779 3.44818C17.8444 3.11519 18.0028 2.73491 18.3346 2.59903C18.6663 2.46304 19.0444 2.61829 19.1826 2.94886C19.5788 3.89306 19.7849 6.13254 17.7346 7.8455C17.6973 7.87722 17.6563 7.90433 17.6122 7.9259C17.4958 7.98922 17.2364 8.19084 17.2125 8.39465C17.1901 8.59604 17.3836 8.89051 17.7435 9.20297C17.79 9.24253 19.0161 10.3058 18.4738 12.1262C18.3176 12.6503 18.1058 13.1202 17.9314 13.5006C18.2621 13.3795 18.7432 13.1825 19.4475 12.8677C20.2345 12.5156 21.5239 12.2496 23.2164 12.9618C24.1131 13.1508 24.7653 13.0626 25.0109 12.7172C25.2261 12.4138 25.157 11.8658 24.84 11.3541C23.6763 9.47575 23.7667 7.86246 25.0902 6.92956C25.2908 6.78803 25.5533 6.77108 25.7694 6.88538C25.8421 6.92275 27.6036 7.80593 28.7686 6.39968C28.9611 6.16761 29.2871 6.09736 29.5566 6.22989C29.5974 6.24915 33.6278 8.16811 35.7484 6.11893C36.0078 5.86864 36.4208 5.8766 36.6711 6.13589C36.9213 6.39391 36.9133 6.80729 36.6552 7.05747C34.339 9.29466 30.6944 8.10928 29.4287 7.59635C28.1787 8.75347 26.5711 8.59049 25.5883 8.22705C25.1514 8.75578 25.2713 9.57425 25.9483 10.6669C26.5576 11.6496 26.605 12.724 26.074 13.4724C25.7401 13.9433 24.8796 14.6679 22.8757 14.2219C22.8362 14.2127 22.7964 14.2003 22.759 14.1845C21.7255 13.7373 20.7914 13.6954 19.9807 14.0577C18.5815 14.6848 17.7775 14.994 17.2523 14.9938Z" fill="black" fill-opacity="0.05"/>
<path fill-rule="evenodd" clip-rule="evenodd" d="M25.8588 30.8588C25.5587 30.8588 25.2891 30.6517 25.2223 30.3472C24.8793 28.7937 25.9684 27.2156 27.6484 26.8272C28.0788 26.7276 29.109 26.2997 29.383 24.4678C29.5417 23.4125 30.0114 21.5309 31.3903 20.7905C32.1796 20.367 33.0954 20.3931 34.112 20.8675C34.6917 21.138 35.0223 21.608 35.3427 22.063C35.7616 22.6574 36.1567 23.2201 37.187 23.4341C37.5392 23.5065 37.7666 23.8519 37.693 24.2051C37.6197 24.5572 37.2741 24.7837 36.9221 24.7112C35.3869 24.3919 34.7449 23.4794 34.2761 22.8137C34.0238 22.4559 33.8256 22.1729 33.5595 22.0495C32.9279 21.7539 32.4206 21.7188 32.0074 21.9397C31.3759 22.2792 30.8775 23.296 30.6725 24.6603C30.2695 27.3582 28.4806 27.9741 27.9418 28.0986C27.0815 28.2967 26.2842 29.1051 26.4959 30.0664C26.573 30.4173 26.3511 30.7661 25.9989 30.843C25.9514 30.8531 25.9049 30.8588 25.8588 30.8588Z" fill="url(#paint2_linear_263_3)"/>
<path fill-rule="evenodd" clip-rule="evenodd" d="M25.8588 30.8588C25.5587 30.8588 25.2891 30.6517 25.2223 30.3472C24.8793 28.7937 25.9684 27.2156 27.6484 26.8272C28.0788 26.7276 29.109 26.2997 29.383 24.4678C29.5417 23.4125 30.0114 21.5309 31.3903 20.7905C32.1796 20.367 33.0954 20.3931 34.112 20.8675C34.6917 21.138 35.0223 21.608 35.3427 22.063C35.7616 22.6574 36.1567 23.2201 37.187 23.4341C37.5392 23.5065 37.7666 23.8519 37.693 24.2051C37.6197 24.5572 37.2741 24.7837 36.9221 24.7112C35.3869 24.3919 34.7449 23.4794 34.2761 22.8137C34.0238 22.4559 33.8256 22.1729 33.5595 22.0495C32.9279 21.7539 32.4206 21.7188 32.0074 21.9397C31.3759 22.2792 30.8775 23.296 30.6725 24.6603C30.2695 27.3582 28.4806 27.9741 27.9418 28.0986C27.0815 28.2967 26.2842 29.1051 26.4959 30.0664C26.573 30.4173 26.3511 30.7661 25.9989 30.843C25.9514 30.8531 25.9049 30.8588 25.8588 30.8588Z" fill="black" fill-opacity="0.05"/>
<path fill-rule="evenodd" clip-rule="evenodd" d="M17.9393 28.8506C17.7444 28.8506 17.5519 28.7634 17.4228 28.597C17.202 28.3127 17.2542 27.903 17.5384 27.6822C17.6641 27.5847 17.8338 27.4636 18.0296 27.3221C18.4306 27.0334 19.3611 26.3655 19.5342 26.0995C19.7247 25.4608 19.8366 24.2982 18.5651 23.4592C17.5951 22.8194 18.1723 21.7982 18.3897 21.4133C18.4159 21.368 18.4474 21.3126 18.4757 21.2594L16.283 20.2778C15.762 20.3604 14.623 20.4465 14.0298 19.7559C13.8236 19.517 13.6334 19.1241 13.724 18.5218L10.6922 17.1654C10.3638 17.0183 10.2165 16.6323 10.3637 16.3039C10.5111 15.9755 10.8959 15.8272 11.2253 15.9745L14.7647 17.5583C15.0816 17.7009 15.2321 18.0667 15.1064 18.3904C14.9705 18.7403 15.0034 18.8886 15.0193 18.9067C15.1326 19.0381 15.7506 19.0664 16.2216 18.9622C16.3585 18.9316 16.5012 18.9464 16.6291 19.0041L19.2287 20.1668C19.6024 20.3343 19.7562 20.5959 19.8185 20.7861C19.9749 21.2604 19.7256 21.702 19.5253 22.0553C19.4686 22.156 19.3826 22.3078 19.3419 22.4097C21.4103 23.8192 20.9597 25.9058 20.7706 26.5161C20.619 27.0028 20.0369 27.4852 18.7916 28.3807C18.6048 28.5153 18.444 28.6309 18.3376 28.7136C18.2189 28.8053 18.0783 28.8506 17.9393 28.8506Z" fill="url(#paint3_linear_263_3)"/>
<path fill-rule="evenodd" clip-rule="evenodd" d="M17.9393 28.8506C17.7444 28.8506 17.5519 28.7634 17.4228 28.597C17.202 28.3127 17.2542 27.903 17.5384 27.6822C17.6641 27.5847 17.8338 27.4636 18.0296 27.3221C18.4306 27.0334 19.3611 26.3655 19.5342 26.0995C19.7247 25.4608 19.8366 24.2982 18.5651 23.4592C17.5951 22.8194 18.1723 21.7982 18.3897 21.4133C18.4159 21.368 18.4474 21.3126 18.4757 21.2594L16.283 20.2778C15.762 20.3604 14.623 20.4465 14.0298 19.7559C13.8236 19.517 13.6334 19.1241 13.724 18.5218L10.6922 17.1654C10.3638 17.0183 10.2165 16.6323 10.3637 16.3039C10.5111 15.9755 10.8959 15.8272 11.2253 15.9745L14.7647 17.5583C15.0816 17.7009 15.2321 18.0667 15.1064 18.3904C14.9705 18.7403 15.0034 18.8886 15.0193 18.9067C15.1326 19.0381 15.7506 19.0664 16.2216 18.9622C16.3585 18.9316 16.5012 18.9464 16.6291 19.0041L19.2287 20.1668C19.6024 20.3343 19.7562 20.5959 19.8185 20.7861C19.9749 21.2604 19.7256 21.702 19.5253 22.0553C19.4686 22.156 19.3826 22.3078 19.3419 22.4097C21.4103 23.8192 20.9597 25.9058 20.7706 26.5161C20.619 27.0028 20.0369 27.4852 18.7916 28.3807C18.6048 28.5153 18.444 28.6309 18.3376 28.7136C18.2189 28.8053 18.0783 28.8506 17.9393 28.8506Z" fill="black" fill-opacity="0.05"/>
<path fill-rule="evenodd" clip-rule="evenodd" d="M38.8871 21.0703C38.8542 21.0703 38.8213 21.067 38.7873 21.0623C36.7325 20.7464 35.3579 20.4917 34.4647 20.2575C33.4978 20.0049 32.8785 19.7298 32.7812 19.1456C32.6682 18.4594 33.3337 18.112 33.9779 17.7757C34.3561 17.5775 35.1429 17.1655 35.1632 16.8893C35.1657 16.8575 35.1621 16.5519 34.3164 15.9416C33.3802 15.2657 32.8887 14.3056 32.9329 13.2357C33.0077 11.4344 34.5666 9.48715 37.2114 7.89301C37.5206 7.70731 37.92 7.80697 38.1069 8.11493C38.2928 8.42393 38.1929 8.82486 37.885 9.01045C35.6547 10.3543 34.2915 11.9541 34.236 13.2901C34.2102 13.9251 34.493 14.4619 35.0795 14.8842C36.0613 15.5928 36.515 16.279 36.4641 16.9832C36.3916 17.9851 35.3455 18.532 34.5813 18.9305C34.5779 18.9328 34.5847 18.9282 34.5813 18.9305C35.2335 19.1138 36.4992 19.3924 38.9855 19.7728C39.3411 19.8272 39.5855 20.16 39.5311 20.5167C39.4813 20.8393 39.2039 21.0703 38.8871 21.0703Z" fill="url(#paint4_linear_263_3)"/>
<path fill-rule="evenodd" clip-rule="evenodd" d="M38.8871 21.0703C38.8542 21.0703 38.8213 21.067 38.7873 21.0623C36.7325 20.7464 35.3579 20.4917 34.4647 20.2575C33.4978 20.0049 32.8785 19.7298 32.7812 19.1456C32.6682 18.4594 33.3337 18.112 33.9779 17.7757C34.3561 17.5775 35.1429 17.1655 35.1632 16.8893C35.1657 16.8575 35.1621 16.5519 34.3164 15.9416C33.3802 15.2657 32.8887 14.3056 32.9329 13.2357C33.0077 11.4344 34.5666 9.48715 37.2114 7.89301C37.5206 7.70731 37.92 7.80697 38.1069 8.11493C38.2928 8.42393 38.1929 8.82486 37.885 9.01045C35.6547 10.3543 34.2915 11.9541 34.236 13.2901C34.2102 13.9251 34.493 14.4619 35.0795 14.8842C36.0613 15.5928 36.515 16.279 36.4641 16.9832C36.3916 17.9851 35.3455 18.532 34.5813 18.9305C34.5779 18.9328 34.5847 18.9282 34.5813 18.9305C35.2335 19.1138 36.4992 19.3924 38.9855 19.7728C39.3411 19.8272 39.5855 20.16 39.5311 20.5167C39.4813 20.8393 39.2039 21.0703 38.8871 21.0703Z" fill="black" fill-opacity="0.05"/>
<path fill-rule="evenodd" clip-rule="evenodd" d="M38.2573 44.462C37.9095 44.462 37.6208 44.187 37.606 43.836C37.595 43.5449 37.5778 43.2812 37.562 43.0266C37.4431 41.1131 37.4872 40.0523 39.7809 38.7379C40.3392 38.4175 40.8464 38.1299 41.306 37.8684C43.5285 36.6071 44.6447 35.9743 45.2425 35.2701C45.8086 34.6044 45.9842 33.7779 46.3701 31.9675C46.6136 30.824 46.9171 29.4021 47.44 27.4503L48.9256 21.9082C49.0285 21.5244 48.9742 21.1203 48.7727 20.7727C48.5723 20.4239 48.2496 20.1761 47.8646 20.073C47.0665 19.859 46.2433 20.3346 46.0294 21.1327L44.0515 28.5143C44.2134 28.6694 44.355 28.8496 44.4704 29.05C44.792 29.6046 44.8757 30.2534 44.7093 30.8762C44.5428 31.4988 44.1455 32.0174 43.5895 32.3389L39.1164 34.9213C38.8039 35.1013 38.4054 34.9939 38.2254 34.6825C38.0456 34.37 38.1518 33.9715 38.4642 33.7915L42.9375 31.2089C43.1913 31.0628 43.3733 30.824 43.4492 30.5388C43.5262 30.2523 43.4877 29.9557 43.3417 29.7021C43.2524 29.5481 43.1299 29.4214 42.9839 29.3274C42.9727 29.3216 42.9623 29.3149 42.9522 29.3081C42.8652 29.2571 42.771 29.2176 42.6714 29.1903C42.385 29.1134 42.0884 29.1518 41.8347 29.2979L37.3615 31.8815C33.8724 33.8955 32.1604 34.9168 31.378 36.1102C30.6082 37.2842 30.624 38.8387 30.6557 41.9352C30.6615 42.5069 30.6682 43.1284 30.6704 43.8078C30.6717 44.1677 30.3806 44.4611 30.0205 44.4622C29.6618 44.462 29.3674 44.1711 29.3662 43.8112C29.3641 43.1364 29.3583 42.5183 29.3514 41.9487C29.3188 38.6938 29.2993 36.9004 30.2866 35.3946C31.2355 33.9499 32.9404 32.9265 36.7094 30.7516L41.1827 28.1691C41.6956 27.8726 42.2887 27.7786 42.8661 27.8963L44.7694 20.7952C45.169 19.302 46.7098 18.4133 48.2031 18.813C48.9233 19.0054 49.5277 19.4708 49.9025 20.1206C50.2785 20.7705 50.378 21.5256 50.1855 22.2457L48.7001 27.7875C48.1864 29.7066 47.8862 31.1105 47.6461 32.2393C46.7892 36.2562 46.6079 36.3592 41.9502 39.0029C41.4919 39.2632 40.9867 39.5497 40.4298 39.869C38.7326 40.8426 38.7609 41.2876 38.864 42.945C38.8798 43.1952 38.8979 43.4783 38.9092 43.784C38.9242 44.1429 38.6172 44.4472 38.2573 44.462C38.2661 44.4621 38.2484 44.4629 38.2573 44.462Z" fill="url(#paint5_linear_263_3)"/>
<path fill-rule="evenodd" clip-rule="evenodd" d="M38.2573 44.462C37.9095 44.462 37.6208 44.187 37.606 43.836C37.595 43.5449 37.5778 43.2812 37.562 43.0266C37.4431 41.1131 37.4872 40.0523 39.7809 38.7379C40.3392 38.4175 40.8464 38.1299 41.306 37.8684C43.5285 36.6071 44.6447 35.9743 45.2425 35.2701C45.8086 34.6044 45.9842 33.7779 46.3701 31.9675C46.6136 30.824 46.9171 29.4021 47.44 27.4503L48.9256 21.9082C49.0285 21.5244 48.9742 21.1203 48.7727 20.7727C48.5723 20.4239 48.2496 20.1761 47.8646 20.073C47.0665 19.859 46.2433 20.3346 46.0294 21.1327L44.0515 28.5143C44.2134 28.6694 44.355 28.8496 44.4704 29.05C44.792 29.6046 44.8757 30.2534 44.7093 30.8762C44.5428 31.4988 44.1455 32.0174 43.5895 32.3389L39.1164 34.9213C38.8039 35.1013 38.4054 34.9939 38.2254 34.6825C38.0456 34.37 38.1518 33.9715 38.4642 33.7915L42.9375 31.2089C43.1913 31.0628 43.3733 30.824 43.4492 30.5388C43.5262 30.2523 43.4877 29.9557 43.3417 29.7021C43.2524 29.5481 43.1299 29.4214 42.9839 29.3274C42.9727 29.3216 42.9623 29.3149 42.9522 29.3081C42.8652 29.2571 42.771 29.2176 42.6714 29.1903C42.385 29.1134 42.0884 29.1518 41.8347 29.2979L37.3615 31.8815C33.8724 33.8955 32.1604 34.9168 31.378 36.1102C30.6082 37.2842 30.624 38.8387 30.6557 41.9352C30.6615 42.5069 30.6682 43.1284 30.6704 43.8078C30.6717 44.1677 30.3806 44.4611 30.0205 44.4622C29.6618 44.462 29.3674 44.1711 29.3662 43.8112C29.3641 43.1364 29.3583 42.5183 29.3514 41.9487C29.3188 38.6938 29.2993 36.9004 30.2866 35.3946C31.2355 33.9499 32.9404 32.9265 36.7094 30.7516L41.1827 28.1691C41.6956 27.8726 42.2887 27.7786 42.8661 27.8963L44.7694 20.7952C45.169 19.302 46.7098 18.4133 48.2031 18.813C48.9233 19.0054 49.5277 19.4708 49.9025 20.1206C50.2785 20.7705 50.378 21.5256 50.1855 22.2457L48.7001 27.7875C48.1864 29.7066 47.8862 31.1105 47.6461 32.2393C46.7892 36.2562 46.6079 36.3592 41.9502 39.0029C41.4919 39.2632 40.9867 39.5497 40.4298 39.869C38.7326 40.8426 38.7609 41.2876 38.864 42.945C38.8798 43.1952 38.8979 43.4783 38.9092 43.784C38.9242 44.1429 38.6172 44.4472 38.2573 44.462C38.2661 44.4621 38.2484 44.4629 38.2573 44.462Z" fill="black" fill-opacity="0.05"/>
<path fill-rule="evenodd" clip-rule="evenodd" d="M27.7936 47.8062H40.4015V44.4618H27.7936V47.8062ZM41.0537 49.1105H27.1414C26.7803 49.1105 26.4893 48.8185 26.4893 48.4585L26.4894 43.8096C26.4894 43.4486 26.7803 43.1577 27.1414 43.1577L41.0537 43.1575C41.4136 43.1575 41.7056 43.4486 41.7056 43.8097L41.7058 48.4584C41.7058 48.8185 41.4134 49.1105 41.0537 49.1105Z" fill="url(#paint6_linear_263_3)"/>
<path fill-rule="evenodd" clip-rule="evenodd" d="M27.7936 47.8062H40.4015V44.4618H27.7936V47.8062ZM41.0537 49.1105H27.1414C26.7803 49.1105 26.4893 48.8185 26.4893 48.4585L26.4894 43.8096C26.4894 43.4486 26.7803 43.1577 27.1414 43.1577L41.0537 43.1575C41.4136 43.1575 41.7056 43.4486 41.7056 43.8097L41.7058 48.4584C41.7058 48.8185 41.4134 49.1105 41.0537 49.1105Z" fill="black" fill-opacity="0.05"/>
<path fill-rule="evenodd" clip-rule="evenodd" d="M12.3047 44.462C12.2955 44.462 12.3126 44.463 12.3047 44.462C11.9447 44.4471 11.6377 44.1428 11.6525 43.784C11.665 43.4782 11.6819 43.1952 11.6977 42.945C11.8008 41.2874 11.8291 40.8426 10.1319 39.8689C9.57618 39.5497 9.07109 39.2632 8.61146 39.0028C3.95394 36.3592 3.77262 36.2562 2.91551 32.2393C2.67571 31.1104 2.37663 29.7066 1.86139 27.7876L0.377398 22.2455C-0.0235316 20.7534 0.866335 19.2126 2.35956 18.813C3.85197 18.412 5.39271 19.302 5.79238 20.7954L7.69552 27.8962C8.2742 27.7785 8.86614 27.8725 9.38022 28.1691L13.8535 30.7516C17.6213 32.9265 19.3274 33.95 20.275 35.3946C21.2622 36.9004 21.2441 38.6937 21.2102 41.9487C21.2048 42.5182 21.1977 43.1364 21.1954 43.8111C21.1945 44.1711 20.9034 44.4621 20.5433 44.4621C20.1824 44.4611 19.8901 44.1678 19.8911 43.8078C19.8936 43.1284 19.9003 42.5069 19.9059 41.9352C19.9376 38.8386 19.9546 37.2843 19.1847 36.1102C18.4013 34.9167 16.6895 33.8956 13.2012 31.8815L8.72694 29.2979C8.47445 29.1518 8.17664 29.1134 7.8914 29.1903C7.79082 29.2175 7.6967 29.2561 7.61054 29.3081C7.6005 29.3149 7.58908 29.3217 7.57778 29.3273C7.43187 29.4214 7.30949 29.5481 7.22114 29.7021C7.07397 29.9556 7.03544 30.2524 7.11249 30.5388C7.18965 30.824 7.37063 31.0629 7.62415 31.209L12.0974 33.7914C12.4099 33.9714 12.5163 34.37 12.3362 34.6825C12.1565 34.9949 11.7577 35.1014 11.4452 34.9213L6.97212 32.3388C6.41756 32.0174 6.01997 31.4988 5.85238 30.8762C5.68617 30.2534 5.77083 29.6047 6.09125 29.05C6.20682 28.8496 6.34823 28.6696 6.51133 28.5144L4.53343 21.1326C4.31947 20.3344 3.49524 19.8578 2.69707 20.0729C1.89901 20.2869 1.42334 21.11 1.6373 21.9083L3.12176 27.4501C3.64472 29.402 3.94807 30.824 4.19144 31.9675C4.57784 33.7778 4.7542 34.6044 5.32019 35.2701C5.91824 35.9742 7.03325 36.6072 9.25568 37.8684C9.71659 38.1299 10.2225 38.4175 10.7806 38.7379C13.0746 40.0522 13.1186 41.1121 12.9997 43.0254C12.9841 43.2812 12.9669 43.5451 12.9556 43.836C12.9421 44.1869 12.6521 44.4621 12.3047 44.462Z" fill="url(#paint7_linear_263_3)"/>
<path fill-rule="evenodd" clip-rule="evenodd" d="M12.3047 44.462C12.2955 44.462 12.3126 44.463 12.3047 44.462C11.9447 44.4471 11.6377 44.1428 11.6525 43.784C11.665 43.4782 11.6819 43.1952 11.6977 42.945C11.8008 41.2874 11.8291 40.8426 10.1319 39.8689C9.57618 39.5497 9.07109 39.2632 8.61146 39.0028C3.95394 36.3592 3.77262 36.2562 2.91551 32.2393C2.67571 31.1104 2.37663 29.7066 1.86139 27.7876L0.377398 22.2455C-0.0235316 20.7534 0.866335 19.2126 2.35956 18.813C3.85197 18.412 5.39271 19.302 5.79238 20.7954L7.69552 27.8962C8.2742 27.7785 8.86614 27.8725 9.38022 28.1691L13.8535 30.7516C17.6213 32.9265 19.3274 33.95 20.275 35.3946C21.2622 36.9004 21.2441 38.6937 21.2102 41.9487C21.2048 42.5182 21.1977 43.1364 21.1954 43.8111C21.1945 44.1711 20.9034 44.4621 20.5433 44.4621C20.1824 44.4611 19.8901 44.1678 19.8911 43.8078C19.8936 43.1284 19.9003 42.5069 19.9059 41.9352C19.9376 38.8386 19.9546 37.2843 19.1847 36.1102C18.4013 34.9167 16.6895 33.8956 13.2012 31.8815L8.72694 29.2979C8.47445 29.1518 8.17664 29.1134 7.8914 29.1903C7.79082 29.2175 7.6967 29.2561 7.61054 29.3081C7.6005 29.3149 7.58908 29.3217 7.57778 29.3273C7.43187 29.4214 7.30949 29.5481 7.22114 29.7021C7.07397 29.9556 7.03544 30.2524 7.11249 30.5388C7.18965 30.824 7.37063 31.0629 7.62415 31.209L12.0974 33.7914C12.4099 33.9714 12.5163 34.37 12.3362 34.6825C12.1565 34.9949 11.7577 35.1014 11.4452 34.9213L6.97212 32.3388C6.41756 32.0174 6.01997 31.4988 5.85238 30.8762C5.68617 30.2534 5.77083 29.6047 6.09125 29.05C6.20682 28.8496 6.34823 28.6696 6.51133 28.5144L4.53343 21.1326C4.31947 20.3344 3.49524 19.8578 2.69707 20.0729C1.89901 20.2869 1.42334 21.11 1.6373 21.9083L3.12176 27.4501C3.64472 29.402 3.94807 30.824 4.19144 31.9675C4.57784 33.7778 4.7542 34.6044 5.32019 35.2701C5.91824 35.9742 7.03325 36.6072 9.25568 37.8684C9.71659 38.1299 10.2225 38.4175 10.7806 38.7379C13.0746 40.0522 13.1186 41.1121 12.9997 43.0254C12.9841 43.2812 12.9669 43.5451 12.9556 43.836C12.9421 44.1869 12.6521 44.4621 12.3047 44.462Z" fill="black" fill-opacity="0.05"/>
<path fill-rule="evenodd" clip-rule="evenodd" d="M10.1606 47.8062H22.7696V44.4618H10.1606V47.8062ZM23.4217 49.1105H9.50853C9.14855 49.1105 8.85742 48.8185 8.85742 48.4585V43.8096C8.85742 43.4486 9.14832 43.1577 9.5083 43.1577L23.4217 43.1575C23.7817 43.1575 24.0737 43.4486 24.0737 43.8097L24.0738 48.4584C24.0738 48.8185 23.7816 49.1105 23.4217 49.1105Z" fill="url(#paint8_linear_263_3)"/>
<path fill-rule="evenodd" clip-rule="evenodd" d="M10.1606 47.8062H22.7696V44.4618H10.1606V47.8062ZM23.4217 49.1105H9.50853C9.14855 49.1105 8.85742 48.8185 8.85742 48.4585V43.8096C8.85742 43.4486 9.14832 43.1577 9.5083 43.1577L23.4217 43.1575C23.7817 43.1575 24.0737 43.4486 24.0737 43.8097L24.0738 48.4584C24.0738 48.8185 23.7816 49.1105 23.4217 49.1105Z" fill="black" fill-opacity="0.05"/>
</g>
<defs>
<linearGradient id="paint0_linear_263_3" x1="45.5715" y1="6.41219" x2="3.61945" y2="8.95898" gradientUnits="userSpaceOnUse">
<stop stop-color="#D9DC31"/>
<stop offset="1" stop-color="#2DBBDA"/>
</linearGradient>
<linearGradient id="paint1_linear_263_3" x1="40.5573" y1="4.84214" x2="11.4416" y2="7.81751" gradientUnits="userSpaceOnUse">
<stop stop-color="#D9DC31"/>
<stop offset="1" stop-color="#2DBBDA"/>
</linearGradient>
<linearGradient id="paint2_linear_263_3" x1="39.9253" y1="22.401" x2="22.3973" y2="23.6888" gradientUnits="userSpaceOnUse">
<stop stop-color="#D9DC31"/>
<stop offset="1" stop-color="#2DBBDA"/>
</linearGradient>
<linearGradient id="paint3_linear_263_3" x1="22.8282" y1="18.2999" x2="7.92153" y2="19.0444" gradientUnits="userSpaceOnUse">
<stop stop-color="#D9DC31"/>
<stop offset="1" stop-color="#2DBBDA"/>
</linearGradient>
<linearGradient id="paint4_linear_263_3" x1="40.7356" y1="10.2441" x2="31.2364" y2="10.5383" gradientUnits="userSpaceOnUse">
<stop stop-color="#D9DC31"/>
<stop offset="1" stop-color="#2DBBDA"/>
</linearGradient>
<linearGradient id="paint5_linear_263_3" x1="53.9834" y1="23.4597" x2="24.6452" y2="24.9084" gradientUnits="userSpaceOnUse">
<stop stop-color="#D9DC31"/>
<stop offset="1" stop-color="#2DBBDA"/>
</linearGradient>
<linearGradient id="paint6_linear_263_3" x1="44.396" y1="44.2541" x2="23.5277" y2="47.4923" gradientUnits="userSpaceOnUse">
<stop stop-color="#D9DC31"/>
<stop offset="1" stop-color="#2DBBDA"/>
</linearGradient>
<linearGradient id="paint7_linear_263_3" x1="24.9234" y1="23.4594" x2="-4.41424" y2="24.908" gradientUnits="userSpaceOnUse">
<stop stop-color="#D9DC31"/>
<stop offset="1" stop-color="#2DBBDA"/>
</linearGradient>
<linearGradient id="paint8_linear_263_3" x1="26.764" y1="44.2541" x2="5.89585" y2="47.4922" gradientUnits="userSpaceOnUse">
<stop stop-color="#D9DC31"/>
<stop offset="1" stop-color="#2DBBDA"/>
</linearGradient>
<clipPath id="clip0_263_3">
<rect width="50" height="50" fill="white" transform="translate(0.28125)"/>
</clipPath>
</defs>
</svg>
