<svg xmlns="http://www.w3.org/2000/svg" xmlns:xlink="http://www.w3.org/1999/xlink">
   <!-- <symbol viewBox="" id="logo">
  </symbol> -->

  <symbol viewBox="0 0 188 60" id="logo">
   <rect width="188" height="60" rx="10" fill="#D9DC31"/>
   <path d="M10.064 39L14.544 16.6H20.752L29.168 30.232H26.544L29.264 16.6H36.624L32.144 39H25.936L17.52 25.368H20.144L17.424 39H10.064ZM45.3828 26.136H55.2388L54.0868 31.832H44.2628L45.3828 26.136ZM43.3348 39H35.7828L40.2628 16.6H58.4708L57.3188 22.296H46.6628L43.3348 39ZM61.3968 39L64.6927 22.456H58.1328L59.3168 16.6H79.9888L78.8048 22.456H72.2448L68.9488 39H61.3968Z"/>
   <path d="M95.8 41.07C95.2027 41.07 94.638 40.986 94.106 40.818C93.574 40.65 93.1633 40.4353 92.874 40.174L93.35 39.39C93.63 39.642 93.9987 39.8427 94.456 39.992C94.9133 40.132 95.394 40.202 95.898 40.202C96.598 40.202 97.1347 40.0853 97.508 39.852C97.8907 39.6187 98.082 39.2967 98.082 38.886C98.082 38.606 97.9793 38.396 97.774 38.256C97.578 38.1067 97.3213 37.9947 97.004 37.92C96.6867 37.836 96.3507 37.7567 95.996 37.682C95.6413 37.6073 95.3053 37.514 94.988 37.402C94.6707 37.2807 94.4093 37.0987 94.204 36.856C94.008 36.6133 93.91 36.2867 93.91 35.876C93.91 35.4093 94.0407 35.0033 94.302 34.658C94.5727 34.3127 94.946 34.0467 95.422 33.86C95.898 33.6733 96.458 33.58 97.102 33.58C97.5687 33.58 98.0307 33.6407 98.488 33.762C98.9453 33.8833 99.314 34.0513 99.594 34.266L99.174 35.064C98.8847 34.84 98.5487 34.6813 98.166 34.588C97.7833 34.4853 97.4007 34.434 97.018 34.434C96.3367 34.434 95.8093 34.56 95.436 34.812C95.072 35.0547 94.89 35.3767 94.89 35.778C94.89 36.058 94.988 36.2727 95.184 36.422C95.3893 36.5713 95.6507 36.688 95.968 36.772C96.2853 36.856 96.6213 36.9353 96.976 37.01C97.34 37.0753 97.676 37.1687 97.984 37.29C98.3013 37.4113 98.558 37.5887 98.754 37.822C98.9593 38.046 99.062 38.3633 99.062 38.774C99.062 39.2593 98.9267 39.6747 98.656 40.02C98.3853 40.356 98.0027 40.6173 97.508 40.804C97.0227 40.9813 96.4533 41.07 95.8 41.07ZM103.77 41.07C103.089 41.07 102.496 40.944 101.992 40.692C101.497 40.4307 101.11 40.0667 100.83 39.6C100.559 39.1333 100.424 38.5827 100.424 37.948C100.424 37.108 100.606 36.3613 100.97 35.708C101.334 35.0453 101.838 34.5273 102.482 34.154C103.126 33.7713 103.859 33.58 104.68 33.58C105.361 33.58 105.949 33.706 106.444 33.958C106.948 34.21 107.335 34.5693 107.606 35.036C107.886 35.5027 108.026 36.0533 108.026 36.688C108.026 37.528 107.844 38.2793 107.48 38.942C107.116 39.5953 106.612 40.1133 105.968 40.496C105.333 40.8787 104.601 41.07 103.77 41.07ZM103.84 40.188C104.456 40.188 105.002 40.0433 105.478 39.754C105.963 39.4553 106.341 39.0447 106.612 38.522C106.892 37.9993 107.032 37.4067 107.032 36.744C107.032 36.016 106.817 35.4513 106.388 35.05C105.968 34.6487 105.375 34.448 104.61 34.448C104.003 34.448 103.457 34.5973 102.972 34.896C102.487 35.1947 102.104 35.6053 101.824 36.128C101.553 36.6413 101.418 37.234 101.418 37.906C101.418 38.6247 101.628 39.1847 102.048 39.586C102.477 39.9873 103.075 40.188 103.84 40.188ZM112.351 41.07C111.707 41.07 111.171 40.9393 110.741 40.678C110.321 40.4167 110.032 40.0433 109.873 39.558C109.715 39.0727 109.696 38.4987 109.817 37.836L110.657 33.65H111.651L110.811 37.836C110.671 38.564 110.751 39.138 111.049 39.558C111.348 39.9687 111.871 40.174 112.617 40.174C113.392 40.174 114.036 39.9593 114.549 39.53C115.072 39.1007 115.422 38.4567 115.599 37.598L116.383 33.65H117.377L115.907 41H114.955L115.375 38.886L115.585 39.236C115.24 39.8707 114.783 40.3373 114.213 40.636C113.653 40.9253 113.033 41.07 112.351 41.07ZM120.582 41L118.762 33.65H119.756L121.408 40.468H120.932L125.3 33.65H126.336L121.59 41H120.582ZM129.42 41.07C128.72 41.07 128.109 40.944 127.586 40.692C127.073 40.4307 126.676 40.0667 126.396 39.6C126.126 39.1333 125.99 38.578 125.99 37.934C125.99 37.094 126.168 36.3473 126.522 35.694C126.877 35.0407 127.362 34.5273 127.978 34.154C128.594 33.7713 129.29 33.58 130.064 33.58C130.718 33.58 131.282 33.706 131.758 33.958C132.234 34.2007 132.603 34.5553 132.864 35.022C133.135 35.4887 133.27 36.0487 133.27 36.702C133.27 36.8513 133.261 37.0053 133.242 37.164C133.224 37.3133 133.2 37.458 133.172 37.598H126.718L126.844 36.856H132.71L132.304 37.136C132.398 36.548 132.356 36.0533 132.178 35.652C132.001 35.2507 131.726 34.9473 131.352 34.742C130.988 34.5273 130.55 34.42 130.036 34.42C129.439 34.42 128.907 34.5693 128.44 34.868C127.974 35.1573 127.61 35.5633 127.348 36.086C127.087 36.5993 126.956 37.2013 126.956 37.892C126.956 38.6293 127.166 39.1987 127.586 39.6C128.016 39.992 128.655 40.188 129.504 40.188C129.999 40.188 130.456 40.1087 130.876 39.95C131.296 39.782 131.642 39.5533 131.912 39.264L132.36 39.978C132.015 40.3233 131.581 40.594 131.058 40.79C130.545 40.9767 129.999 41.07 129.42 41.07ZM139.564 33.58C140.226 33.58 140.768 33.7107 141.188 33.972C141.617 34.224 141.911 34.5927 142.07 35.078C142.238 35.5633 142.252 36.142 142.112 36.814L141.272 41H140.278L141.118 36.8C141.267 36.072 141.188 35.5027 140.88 35.092C140.581 34.6813 140.049 34.476 139.284 34.476C138.5 34.476 137.846 34.6907 137.324 35.12C136.81 35.5493 136.465 36.1933 136.288 37.052L135.504 41H134.51L135.966 33.65H136.918L136.498 35.764L136.288 35.4C136.642 34.7653 137.1 34.3033 137.66 34.014C138.229 33.7247 138.864 33.58 139.564 33.58ZM143.971 41L145.427 33.65H146.421L144.965 41H143.971ZM146.351 32.026C146.155 32.026 145.991 31.9607 145.861 31.83C145.739 31.6993 145.679 31.5453 145.679 31.368C145.679 31.1627 145.749 30.9853 145.889 30.836C146.038 30.6867 146.225 30.612 146.449 30.612C146.645 30.612 146.808 30.6727 146.939 30.794C147.069 30.9153 147.135 31.0693 147.135 31.256C147.135 31.48 147.06 31.6667 146.91 31.816C146.761 31.956 146.575 32.026 146.351 32.026ZM147.73 41L149.186 33.65H150.138L149.718 35.82L149.606 35.442C149.933 34.798 150.362 34.3267 150.894 34.028C151.436 33.7293 152.108 33.58 152.91 33.58L152.728 34.546C152.682 34.546 152.635 34.546 152.588 34.546C152.551 34.5367 152.504 34.532 152.448 34.532C151.664 34.532 151.016 34.7607 150.502 35.218C149.998 35.666 149.653 36.3473 149.466 37.262L148.724 41H147.73ZM155.464 41.07C154.867 41.07 154.302 40.986 153.77 40.818C153.238 40.65 152.827 40.4353 152.538 40.174L153.014 39.39C153.294 39.642 153.663 39.8427 154.12 39.992C154.577 40.132 155.058 40.202 155.562 40.202C156.262 40.202 156.799 40.0853 157.172 39.852C157.555 39.6187 157.746 39.2967 157.746 38.886C157.746 38.606 157.643 38.396 157.438 38.256C157.242 38.1067 156.985 37.9947 156.668 37.92C156.351 37.836 156.015 37.7567 155.66 37.682C155.305 37.6073 154.969 37.514 154.652 37.402C154.335 37.2807 154.073 37.0987 153.868 36.856C153.672 36.6133 153.574 36.2867 153.574 35.876C153.574 35.4093 153.705 35.0033 153.966 34.658C154.237 34.3127 154.61 34.0467 155.086 33.86C155.562 33.6733 156.122 33.58 156.766 33.58C157.233 33.58 157.695 33.6407 158.152 33.762C158.609 33.8833 158.978 34.0513 159.258 34.266L158.838 35.064C158.549 34.84 158.213 34.6813 157.83 34.588C157.447 34.4853 157.065 34.434 156.682 34.434C156.001 34.434 155.473 34.56 155.1 34.812C154.736 35.0547 154.554 35.3767 154.554 35.778C154.554 36.058 154.652 36.2727 154.848 36.422C155.053 36.5713 155.315 36.688 155.632 36.772C155.949 36.856 156.285 36.9353 156.64 37.01C157.004 37.0753 157.34 37.1687 157.648 37.29C157.965 37.4113 158.222 37.5887 158.418 37.822C158.623 38.046 158.726 38.3633 158.726 38.774C158.726 39.2593 158.591 39.6747 158.32 40.02C158.049 40.356 157.667 40.6173 157.172 40.804C156.687 40.9813 156.117 41.07 155.464 41.07Z"/>
   <path d="M98.712 16.58C99.3747 16.58 99.916 16.7107 100.336 16.972C100.765 17.224 101.059 17.5927 101.218 18.078C101.386 18.5633 101.4 19.142 101.26 19.814L100.42 24H99.426L100.266 19.8C100.415 19.072 100.336 18.5027 100.028 18.092C99.7293 17.6813 99.1973 17.476 98.432 17.476C97.648 17.476 96.9947 17.6907 96.472 18.12C95.9587 18.5493 95.6133 19.1933 95.436 20.052L94.652 24H93.658L95.73 13.612H96.724L95.688 18.764L95.436 18.4C95.7907 17.7653 96.248 17.3033 96.808 17.014C97.3773 16.7247 98.012 16.58 98.712 16.58ZM106.255 24.07C105.63 24.07 105.074 23.944 104.589 23.692C104.104 23.44 103.726 23.0807 103.455 22.614C103.184 22.1473 103.049 21.592 103.049 20.948C103.049 20.3227 103.152 19.744 103.357 19.212C103.562 18.68 103.852 18.218 104.225 17.826C104.598 17.4247 105.037 17.1167 105.541 16.902C106.054 16.6873 106.61 16.58 107.207 16.58C107.851 16.58 108.397 16.6967 108.845 16.93C109.293 17.154 109.638 17.4853 109.881 17.924C110.124 18.3533 110.245 18.876 110.245 19.492C110.245 20.3787 110.082 21.1673 109.755 21.858C109.428 22.5487 108.966 23.09 108.369 23.482C107.772 23.874 107.067 24.07 106.255 24.07ZM106.465 23.188C107.081 23.188 107.627 23.0433 108.103 22.754C108.588 22.4553 108.966 22.0447 109.237 21.522C109.517 20.9993 109.657 20.4067 109.657 19.744C109.657 19.016 109.442 18.4513 109.013 18.05C108.593 17.6487 108 17.448 107.235 17.448C106.628 17.448 106.082 17.5973 105.597 17.896C105.112 18.1947 104.729 18.6053 104.449 19.128C104.178 19.6413 104.043 20.234 104.043 20.906C104.043 21.6247 104.253 22.1847 104.673 22.586C105.102 22.9873 105.7 23.188 106.465 23.188ZM108.887 24L109.307 21.886L109.727 20.402L109.867 18.862L110.315 16.65H111.309L109.839 24H108.887ZM117.661 16.58C118.324 16.58 118.865 16.7107 119.285 16.972C119.715 17.224 120.009 17.5927 120.167 18.078C120.335 18.5633 120.349 19.142 120.209 19.814L119.369 24H118.375L119.215 19.8C119.365 19.072 119.285 18.5027 118.977 18.092C118.679 17.6813 118.147 17.476 117.381 17.476C116.597 17.476 115.944 17.6907 115.421 18.12C114.908 18.5493 114.563 19.1933 114.385 20.052L113.601 24H112.607L114.063 16.65H115.015L114.595 18.764L114.385 18.4C114.74 17.7653 115.197 17.3033 115.757 17.014C116.327 16.7247 116.961 16.58 117.661 16.58ZM125.204 24.07C124.579 24.07 124.023 23.944 123.538 23.692C123.053 23.44 122.675 23.0807 122.404 22.614C122.133 22.1473 121.998 21.592 121.998 20.948C121.998 20.3227 122.101 19.744 122.306 19.212C122.511 18.68 122.801 18.218 123.174 17.826C123.547 17.4247 123.986 17.1167 124.49 16.902C125.003 16.6873 125.559 16.58 126.156 16.58C126.8 16.58 127.346 16.6967 127.794 16.93C128.242 17.154 128.587 17.4853 128.83 17.924C129.073 18.3533 129.194 18.876 129.194 19.492C129.194 20.1547 129.101 20.766 128.914 21.326C128.737 21.886 128.471 22.3713 128.116 22.782C127.761 23.1927 127.337 23.51 126.842 23.734C126.357 23.958 125.811 24.07 125.204 24.07ZM125.414 23.188C126.03 23.188 126.576 23.0433 127.052 22.754C127.537 22.4553 127.915 22.0447 128.186 21.522C128.466 20.9993 128.606 20.4067 128.606 19.744C128.606 19.016 128.391 18.4513 127.962 18.05C127.542 17.6487 126.949 17.448 126.184 17.448C125.577 17.448 125.031 17.5973 124.546 17.896C124.061 18.1947 123.678 18.6053 123.398 19.128C123.127 19.6413 122.992 20.234 122.992 20.906C122.992 21.6247 123.202 22.1847 123.622 22.586C124.051 22.9873 124.649 23.188 125.414 23.188ZM127.836 24L128.256 21.886L128.676 20.402L128.816 18.862L129.866 13.612H130.86L128.788 24H127.836ZM145.693 16.58C146.355 16.58 146.892 16.7107 147.303 16.972C147.723 17.224 148.012 17.5927 148.171 18.078C148.329 18.5633 148.339 19.142 148.199 19.814L147.359 24H146.365L147.205 19.8C147.354 19.072 147.284 18.5027 146.995 18.092C146.715 17.6813 146.201 17.476 145.455 17.476C144.717 17.476 144.097 17.6813 143.593 18.092C143.098 18.5027 142.767 19.1187 142.599 19.94L141.787 24H140.793L141.632 19.8C141.782 19.072 141.712 18.5027 141.423 18.092C141.133 17.6813 140.62 17.476 139.883 17.476C139.127 17.476 138.501 17.6907 138.007 18.12C137.512 18.5493 137.176 19.1933 136.999 20.052L136.215 24H135.221L136.677 16.65H137.629L137.209 18.764L136.999 18.4C137.353 17.7653 137.801 17.3033 138.343 17.014C138.884 16.7247 139.495 16.58 140.177 16.58C140.69 16.58 141.129 16.6687 141.493 16.846C141.866 17.014 142.155 17.266 142.361 17.602C142.575 17.9287 142.692 18.3207 142.711 18.778L142.193 18.666C142.557 17.966 143.037 17.4433 143.635 17.098C144.241 16.7527 144.927 16.58 145.693 16.58ZM153.204 24.07C152.579 24.07 152.023 23.944 151.538 23.692C151.053 23.44 150.675 23.0807 150.404 22.614C150.133 22.1473 149.998 21.592 149.998 20.948C149.998 20.3227 150.101 19.744 150.306 19.212C150.511 18.68 150.801 18.218 151.174 17.826C151.547 17.4247 151.986 17.1167 152.49 16.902C153.003 16.6873 153.559 16.58 154.156 16.58C154.8 16.58 155.346 16.6967 155.794 16.93C156.242 17.154 156.587 17.4853 156.83 17.924C157.073 18.3533 157.194 18.876 157.194 19.492C157.194 20.3787 157.031 21.1673 156.704 21.858C156.377 22.5487 155.915 23.09 155.318 23.482C154.721 23.874 154.016 24.07 153.204 24.07ZM153.414 23.188C154.03 23.188 154.576 23.0433 155.052 22.754C155.537 22.4553 155.915 22.0447 156.186 21.522C156.466 20.9993 156.606 20.4067 156.606 19.744C156.606 19.016 156.391 18.4513 155.962 18.05C155.542 17.6487 154.949 17.448 154.184 17.448C153.577 17.448 153.031 17.5973 152.546 17.896C152.061 18.1947 151.678 18.6053 151.398 19.128C151.127 19.6413 150.992 20.234 150.992 20.906C150.992 21.6247 151.202 22.1847 151.622 22.586C152.051 22.9873 152.649 23.188 153.414 23.188ZM155.836 24L156.256 21.886L156.676 20.402L156.816 18.862L157.264 16.65H158.258L156.788 24H155.836ZM162.692 24.07C162.067 24.07 161.512 23.944 161.026 23.692C160.541 23.44 160.163 23.0807 159.892 22.614C159.622 22.1473 159.486 21.592 159.486 20.948C159.486 20.3227 159.589 19.744 159.794 19.212C160 18.68 160.289 18.218 160.662 17.826C161.036 17.4247 161.474 17.1167 161.978 16.902C162.492 16.6873 163.047 16.58 163.644 16.58C164.288 16.58 164.834 16.6967 165.282 16.93C165.73 17.154 166.076 17.4853 166.318 17.924C166.561 18.3533 166.682 18.876 166.682 19.492C166.682 20.1547 166.589 20.766 166.402 21.326C166.225 21.886 165.959 22.3713 165.604 22.782C165.25 23.1927 164.825 23.51 164.33 23.734C163.845 23.958 163.299 24.07 162.692 24.07ZM162.902 23.188C163.518 23.188 164.064 23.0433 164.54 22.754C165.026 22.4553 165.404 22.0447 165.674 21.522C165.954 20.9993 166.094 20.4067 166.094 19.744C166.094 19.016 165.88 18.4513 165.45 18.05C165.03 17.6487 164.438 17.448 163.672 17.448C163.066 17.448 162.52 17.5973 162.034 17.896C161.549 18.1947 161.166 18.6053 160.886 19.128C160.616 19.6413 160.48 20.234 160.48 20.906C160.48 21.6247 160.69 22.1847 161.11 22.586C161.54 22.9873 162.137 23.188 162.902 23.188ZM165.324 24L165.744 21.886L166.164 20.402L166.304 18.862L167.354 13.612H168.348L166.276 24H165.324ZM172.405 24.07C171.705 24.07 171.093 23.944 170.571 23.692C170.057 23.4307 169.661 23.0667 169.381 22.6C169.11 22.1333 168.975 21.578 168.975 20.934C168.975 20.094 169.152 19.3473 169.507 18.694C169.861 18.0407 170.347 17.5273 170.963 17.154C171.579 16.7713 172.274 16.58 173.049 16.58C173.702 16.58 174.267 16.706 174.743 16.958C175.219 17.2007 175.587 17.5553 175.849 18.022C176.119 18.4887 176.255 19.0487 176.255 19.702C176.255 19.8513 176.245 20.0053 176.227 20.164C176.208 20.3133 176.185 20.458 176.157 20.598H169.703L169.829 19.856H175.695L175.289 20.136C175.382 19.548 175.34 19.0533 175.163 18.652C174.985 18.2507 174.71 17.9473 174.337 17.742C173.973 17.5273 173.534 17.42 173.021 17.42C172.423 17.42 171.891 17.5693 171.425 17.868C170.958 18.1573 170.594 18.5633 170.333 19.086C170.071 19.5993 169.941 20.2013 169.941 20.892C169.941 21.6293 170.151 22.1987 170.571 22.6C171 22.992 171.639 23.188 172.489 23.188C172.983 23.188 173.441 23.1087 173.861 22.95C174.281 22.782 174.626 22.5533 174.897 22.264L175.345 22.978C174.999 23.3233 174.565 23.594 174.043 23.79C173.529 23.9767 172.983 24.07 172.405 24.07Z"/>
  </symbol>

  <symbol viewbox="0 0 35 35" id="facebook">
    <g clip-path="url(#clip0_161_191)">
    <path d="M23.3287 5.81146H26.5239V0.246458C25.9727 0.170625 24.0768 0 21.8689 0C17.262 0 14.1062 2.89771 14.1062 8.22354V13.125H9.02246V19.3463H14.1062V35H20.3391V19.3477H25.2173L25.9916 13.1265H20.3377V8.84042C20.3391 7.04229 20.8233 5.81146 23.3287 5.81146Z"/>
    </g>
    <defs>
    <clipPath id="clip0_161_191">
    <rect width="35" height="35"/>
    </clipPath>
    </defs>
  </symbol>
  <symbol viewbox="0 0 35 35" id="instagram">
    <path d="M25.342 0H9.63105C4.27748 0 0 4.27748 0 9.63105V25.3689C0 30.6956 4.27748 35 9.63105 35H25.3689C30.6956 35 35 30.7225 35 25.3689V9.63105C34.9731 4.27748 30.6956 0 25.342 0ZM31.9062 23.97C31.9062 28.3282 28.3551 31.9331 23.9431 31.9331H11.03C6.67179 31.9331 3.06687 28.382 3.06687 23.97V11.03C3.06687 6.67179 6.61799 3.06687 11.03 3.06687H24.0238C28.382 3.06687 31.9869 6.61799 31.9869 11.03V23.97H31.9062Z"/>
    <path d="M23.8623 11.1914L23.7816 11.1107L23.7009 11.03C22.0329 9.36201 19.8 8.44733 17.4864 8.44733C12.5364 8.47423 8.52792 12.5365 8.55482 17.4865C8.55482 19.8808 9.52331 22.1675 11.1913 23.8624C12.8592 25.5572 15.119 26.4988 17.4864 26.4988C22.4634 26.4181 26.4449 22.2482 26.3642 17.2175C26.3104 14.9846 25.4495 12.8055 23.8623 11.1914ZM17.4864 23.432C14.2043 23.4858 11.541 20.8493 11.4872 17.5672C11.4334 14.2851 14.0698 11.6218 17.3519 11.568C20.634 11.5142 23.2973 14.1506 23.3511 17.4327V17.5134C23.3511 20.7148 20.7147 23.3781 17.4864 23.432Z"/>
    <path d="M29.028 8.04379C29.028 9.2275 28.1133 10.196 26.9296 10.196C26.3646 10.196 25.8266 9.98076 25.45 9.57723C24.616 8.74325 24.616 7.34433 25.5038 6.51036C25.9073 6.10682 26.4185 5.8916 26.9834 5.8916C27.4676 5.8916 27.9519 6.07992 28.3285 6.37584L28.3823 6.42965C28.463 6.48345 28.5168 6.56416 28.5706 6.61797L28.6244 6.67177C28.8397 7.0484 29.028 7.53265 29.028 8.04379Z"/>
  </symbol>
  <symbol viewBox="0 0 45 26" id="vk">
    <path fill-rule="evenodd" clip-rule="evenodd" d="M38.7289 16.1924C40.2216 17.6497 41.7971 19.0209 43.1359 20.6252C43.7273 21.3382 44.2872 22.0739 44.7156 22.9013C45.3225 24.0774 44.7728 25.3717 43.7182 25.4419L37.1624 25.439C35.4716 25.5793 34.1228 24.8986 32.9886 23.7425C32.0809 22.818 31.2404 21.8341 30.3676 20.8784C30.0098 20.4877 29.6353 20.1202 29.1879 19.8297C28.293 19.2488 27.5162 19.4266 27.0048 20.36C26.4839 21.3094 26.3657 22.3606 26.3146 23.4186C26.2444 24.9623 25.7777 25.3682 24.2271 25.4388C20.9131 25.5951 17.768 25.0938 14.8464 23.422C12.2705 21.9482 10.273 19.8677 8.53444 17.5122C5.14938 12.9257 2.55711 7.88594 0.227265 2.70494C-0.297163 1.53765 0.086363 0.911059 1.3743 0.888882C3.51296 0.847336 5.65134 0.850293 7.79252 0.885925C8.66174 0.898641 9.23717 1.39719 9.57279 2.21836C10.7299 5.06346 12.1457 7.77032 13.9229 10.2794C14.3961 10.9473 14.8787 11.6153 15.5659 12.0855C16.3262 12.6061 16.905 12.4336 17.2627 11.5867C17.4896 11.0497 17.589 10.4713 17.6402 9.89613C17.8096 7.91743 17.8319 5.94214 17.5347 3.9704C17.3523 2.73983 16.6592 1.94321 15.4313 1.71034C14.8047 1.59162 14.898 1.35846 15.2013 1.00081C15.7283 0.38397 16.2239 0 17.2118 0H24.6208C25.7872 0.230204 26.0462 0.754189 26.2059 1.92783L26.2123 10.1577C26.1996 10.612 26.4392 11.9603 27.2576 12.261C27.9126 12.4751 28.3443 11.9511 28.7373 11.5358C30.5112 9.65306 31.7772 7.42805 32.9083 5.12408C33.4103 4.111 33.8418 3.05889 34.2601 2.00767C34.57 1.22761 35.0563 0.843787 35.935 0.86079L43.0657 0.867147C43.2771 0.867147 43.4911 0.870253 43.6958 0.905293C44.8974 1.11007 45.2267 1.62696 44.8556 2.8003C44.2708 4.6412 43.1331 6.1753 42.0207 7.7165C40.8315 9.36194 39.5597 10.951 38.3804 12.6062C37.297 14.1177 37.383 14.8796 38.7289 16.1924Z"/>
  </symbol>

  <symbol viewbox="0 0 35 35" id="twitter">
    <g clip-path="url(#clip0_161_186)">
    <path fill-rule="evenodd" clip-rule="evenodd" d="M35.8649 6.55382C34.7209 7.07132 33.4623 7.38491 32.2284 7.59234C33.314 7.41023 34.9234 4.8164 35.2342 3.79898C35.327 3.61265 35.1927 3.54655 35.0338 3.62601C33.6564 4.36429 32.2312 4.89937 30.7145 5.27835C30.4298 5.34937 30.2589 4.99569 30.0388 4.81359C24.6564 0.233429 16.6464 4.82624 17.692 11.9208C17.7152 12.0944 17.7004 12.1176 17.5436 12.0944C11.6106 11.2106 6.69298 9.08859 2.70064 4.53866C2.52767 4.34109 2.43345 4.34179 2.29142 4.55413C0.189777 7.70413 1.70642 12.0825 4.48657 14.2495C4.36845 14.2734 2.9165 14.1159 1.62204 13.4473C1.44907 13.3376 1.36189 13.4009 1.34712 13.597C1.17134 16.6795 3.98032 20.2809 7.0361 20.8055C6.46235 20.9313 5.87173 21.0213 4.22712 20.8926C4.02251 20.8533 3.94376 20.9552 4.02251 21.1521C5.2586 24.5208 7.92626 25.5234 9.92454 26.0944C10.1917 26.1415 10.4596 26.1415 10.7282 26.2041C9.26782 28.3746 2.95657 29.4103 0.52798 29.1712C0.359934 29.1466 -0.273582 29.058 0.134934 29.3913C14.5567 38.899 32.5174 28.7241 32.5174 10.6383C32.5174 10.4048 32.7923 10.2769 32.9561 10.1538C33.707 9.58921 35.9999 7.52062 35.9999 6.55382C35.9999 6.45819 36.0112 6.48773 35.8649 6.55382Z"/>
    </g>
    <defs>
    <clipPath id="clip0_161_186">
    <rect width="35" height="35"/>
    </clipPath>
    </defs>
  </symbol>

  <symbol viewBox="0 0 20 20" id="icon-close2">
    <path d="M1.16822 0.224688C0.915888 0.346392 0.626168 0.524269 0.542056 0.617887C0.271028 0.926832 0 1.61961 0 2.01282C0 2.79922 0.205607 3.05199 3.76636 6.61889L7.14953 10.0173L3.76636 13.4063C1.91589 15.2787 0.336449 16.9264 0.252336 17.0855C-0.140187 17.9 0 18.7332 0.654206 19.3792C1.29907 20.0345 2.13084 20.175 2.94393 19.7818C3.1028 19.6975 4.74766 18.1153 6.61682 16.2617L10 12.8727L13.3925 16.2617C15.6729 18.546 16.8878 19.6975 17.1215 19.8005C18.3925 20.3248 19.7944 19.5009 19.8878 18.1715C19.9626 17.1511 20.0093 17.2166 16.2804 13.4531L12.8505 10.0173L16.2336 6.61889C19.7944 3.05199 19.9907 2.80858 20 2.01282C20 1.60089 19.6636 0.786404 19.3832 0.542994C19.0748 0.271496 18.3832 0 17.9907 0C17.2056 0 16.9533 0.205963 13.3925 3.77286L10 7.16188L6.61682 3.77286C3.04673 0.205963 2.80374 0.00936317 2.00935 0C1.80374 0 1.42991 0.102982 1.16822 0.224688Z" fill="#000000"></path>
  </symbol>
    <symbol viewBox="-3 -3 30 30" id="icon-close">
    <circle fill="none" r="14" cx="12" cy="12" stroke-width="2" stroke="#00082e"/>
    <path d="M 4.9902344 3.9902344 A 1.0001 1.0001 0 0 0 4.2929688 5.7070312 L 10.585938 12 L 4.2929688 18.292969 A 1.0001 1.0001 0 1 0 5.7070312 19.707031 L 12 13.414062 L 18.292969 19.707031 A 1.0001 1.0001 0 1 0 19.707031 18.292969 L 13.414062 12 L 19.707031 5.7070312 A 1.0001 1.0001 0 0 0 18.980469 3.9902344 A 1.0001 1.0001 0 0 0 18.292969 4.2929688 L 12 10.585938 L 5.7070312 4.2929688 A 1.0001 1.0001 0 0 0 4.9902344 3.9902344 z" fill="#00082e"/>
  </symbol>

</svg>
