<svg xmlns="http://www.w3.org/2000/svg" xmlns:xlink="http://www.w3.org/1999/xlink">
   <!-- <symbol viewBox="" id="logo">
  </symbol> -->

  <symbol viewBox="0 0 188 60" id="logo">
    <rect width="188" height="60" rx="28" fill="#D9DC31"/>
    <path d="M14.064 39.8889L18.544 17.4889H24.752L33.168 31.1209H30.544L33.264 17.4889H40.624L36.144 39.8889H29.936L21.52 26.2569H24.144L21.424 39.8889H14.064ZM49.3828 27.0249H59.2388L58.0868 32.7209H48.2628L49.3828 27.0249ZM47.3348 39.8889H39.7828L44.2628 17.4889H62.4708L61.3188 23.1849H50.6628L47.3348 39.8889ZM65.3968 39.8889L68.6927 23.3449H62.1328L63.3168 17.4889H83.9888L82.8048 23.3449H76.2448L72.9488 39.8889H65.3968Z" fill="#3E3F42"/>
    <path d="M90.954 44.098C90.3007 44.098 89.6893 44.0187 89.12 43.86C88.5507 43.7013 88.112 43.51 87.804 43.286L88.532 41.942C88.84 42.1567 89.2227 42.334 89.68 42.474C90.1467 42.6047 90.632 42.67 91.136 42.67C91.7147 42.67 92.1393 42.5907 92.41 42.432C92.69 42.2733 92.83 42.054 92.83 41.774C92.83 41.5687 92.732 41.4147 92.536 41.312C92.34 41.2093 92.088 41.1253 91.78 41.06C91.4813 40.9947 91.1547 40.9247 90.8 40.85C90.4547 40.7753 90.128 40.6727 89.82 40.542C89.5213 40.4113 89.274 40.22 89.078 39.968C88.882 39.716 88.784 39.38 88.784 38.96C88.784 38.428 88.9333 37.9753 89.232 37.602C89.5307 37.2287 89.946 36.944 90.478 36.748C91.0193 36.5427 91.64 36.44 92.34 36.44C92.844 36.44 93.3387 36.496 93.824 36.608C94.3093 36.72 94.7107 36.8787 95.028 37.084L94.384 38.428C94.048 38.2133 93.684 38.064 93.292 37.98C92.9093 37.896 92.536 37.854 92.172 37.854C91.6027 37.854 91.178 37.9427 90.898 38.12C90.6273 38.288 90.492 38.5027 90.492 38.764C90.492 38.9693 90.59 39.128 90.786 39.24C90.982 39.352 91.2293 39.4453 91.528 39.52C91.836 39.5853 92.1627 39.6553 92.508 39.73C92.8627 39.7953 93.1893 39.8933 93.488 40.024C93.796 40.1547 94.048 40.346 94.244 40.598C94.44 40.8407 94.538 41.1673 94.538 41.578C94.538 42.1193 94.384 42.5813 94.076 42.964C93.7773 43.3373 93.3573 43.622 92.816 43.818C92.2747 44.0047 91.654 44.098 90.954 44.098ZM99.3071 44.098C98.5791 44.098 97.9397 43.9627 97.3891 43.692C96.8477 43.412 96.4277 43.0293 96.1291 42.544C95.8304 42.0493 95.6811 41.4707 95.6811 40.808C95.6811 39.968 95.8724 39.2213 96.2551 38.568C96.6377 37.9053 97.1604 37.3873 97.8231 37.014C98.4951 36.6313 99.2604 36.44 100.119 36.44C100.856 36.44 101.496 36.5753 102.037 36.846C102.588 37.1073 103.012 37.4853 103.311 37.98C103.61 38.4653 103.759 39.044 103.759 39.716C103.759 40.5467 103.568 41.2933 103.185 41.956C102.802 42.6187 102.275 43.1413 101.603 43.524C100.94 43.9067 100.175 44.098 99.3071 44.098ZM99.4191 42.6C99.9231 42.6 100.366 42.4833 100.749 42.25C101.132 42.0073 101.435 41.676 101.659 41.256C101.883 40.836 101.995 40.3507 101.995 39.8C101.995 39.2213 101.822 38.764 101.477 38.428C101.132 38.092 100.646 37.924 100.021 37.924C99.5264 37.924 99.0831 38.0453 98.6911 38.288C98.3084 38.5213 98.0051 38.848 97.7811 39.268C97.5571 39.688 97.4451 40.1733 97.4451 40.724C97.4451 41.312 97.6177 41.774 97.9631 42.11C98.3084 42.4367 98.7937 42.6 99.4191 42.6ZM107.841 44.098C107.215 44.098 106.679 43.9673 106.231 43.706C105.792 43.4353 105.479 43.048 105.293 42.544C105.106 42.0307 105.087 41.4053 105.237 40.668L106.063 36.524H107.813L106.987 40.626C106.875 41.2327 106.931 41.7087 107.155 42.054C107.388 42.39 107.808 42.558 108.415 42.558C109.04 42.558 109.563 42.3807 109.983 42.026C110.412 41.6713 110.697 41.13 110.837 40.402L111.621 36.524H113.357L111.873 44H110.207L110.627 41.872L110.907 42.544C110.552 43.076 110.104 43.468 109.563 43.72C109.031 43.972 108.457 44.098 107.841 44.098ZM116.166 44L114.444 36.524H116.166L117.65 43.118H116.768L120.898 36.524H122.662L117.972 44H116.166ZM125.804 44.098C125.058 44.098 124.409 43.9627 123.858 43.692C123.308 43.412 122.878 43.0293 122.57 42.544C122.272 42.0493 122.122 41.4707 122.122 40.808C122.122 39.9587 122.309 39.2073 122.682 38.554C123.056 37.9007 123.564 37.3873 124.208 37.014C124.862 36.6313 125.604 36.44 126.434 36.44C127.134 36.44 127.741 36.5707 128.254 36.832C128.768 37.0933 129.164 37.4713 129.444 37.966C129.734 38.4513 129.878 39.0347 129.878 39.716C129.878 39.8933 129.869 40.0753 129.85 40.262C129.832 40.4487 129.804 40.6213 129.766 40.78H123.424L123.62 39.618H128.94L128.226 40.01C128.301 39.534 128.268 39.1373 128.128 38.82C127.988 38.5027 127.764 38.26 127.456 38.092C127.148 37.924 126.78 37.84 126.35 37.84C125.837 37.84 125.389 37.9613 125.006 38.204C124.633 38.4373 124.344 38.7733 124.138 39.212C123.933 39.6413 123.83 40.1453 123.83 40.724C123.83 41.3307 124.003 41.7973 124.348 42.124C124.703 42.4507 125.249 42.614 125.986 42.614C126.406 42.614 126.808 42.5487 127.19 42.418C127.573 42.278 127.89 42.0867 128.142 41.844L128.87 43.062C128.478 43.4073 128.012 43.6687 127.47 43.846C126.938 44.014 126.383 44.098 125.804 44.098ZM136.278 36.44C136.922 36.44 137.468 36.5707 137.916 36.832C138.364 37.0933 138.677 37.4807 138.854 37.994C139.041 38.498 139.06 39.1187 138.91 39.856L138.084 44H136.334L137.146 39.898C137.268 39.2913 137.212 38.82 136.978 38.484C136.745 38.1387 136.32 37.966 135.704 37.966C135.06 37.966 134.528 38.1433 134.108 38.498C133.688 38.8527 133.404 39.394 133.254 40.122L132.47 44H130.72L132.204 36.524H133.87L133.45 38.652L133.17 37.98C133.525 37.448 133.968 37.0607 134.5 36.818C135.042 36.566 135.634 36.44 136.278 36.44ZM140.304 44L141.788 36.524H143.538L142.054 44H140.304ZM143.062 35.292C142.745 35.292 142.488 35.1987 142.292 35.012C142.106 34.816 142.012 34.5827 142.012 34.312C142.012 33.9947 142.12 33.7287 142.334 33.514C142.558 33.2993 142.848 33.192 143.202 33.192C143.51 33.192 143.762 33.2853 143.958 33.472C144.154 33.6493 144.252 33.8687 144.252 34.13C144.252 34.4753 144.145 34.7553 143.93 34.97C143.716 35.1847 143.426 35.292 143.062 35.292ZM144.351 44L145.835 36.524H147.501L147.081 38.652L146.927 38.036C147.273 37.4293 147.711 37.014 148.243 36.79C148.775 36.5567 149.424 36.44 150.189 36.44L149.867 38.106C149.793 38.0873 149.723 38.078 149.657 38.078C149.592 38.0687 149.517 38.064 149.433 38.064C148.752 38.064 148.187 38.246 147.739 38.61C147.291 38.9647 146.993 39.534 146.843 40.318L146.101 44H144.351ZM152.778 44.098C152.125 44.098 151.514 44.0187 150.944 43.86C150.375 43.7013 149.936 43.51 149.628 43.286L150.356 41.942C150.664 42.1567 151.047 42.334 151.504 42.474C151.971 42.6047 152.456 42.67 152.96 42.67C153.539 42.67 153.964 42.5907 154.234 42.432C154.514 42.2733 154.654 42.054 154.654 41.774C154.654 41.5687 154.556 41.4147 154.36 41.312C154.164 41.2093 153.912 41.1253 153.604 41.06C153.306 40.9947 152.979 40.9247 152.624 40.85C152.279 40.7753 151.952 40.6727 151.644 40.542C151.346 40.4113 151.098 40.22 150.902 39.968C150.706 39.716 150.608 39.38 150.608 38.96C150.608 38.428 150.758 37.9753 151.056 37.602C151.355 37.2287 151.77 36.944 152.302 36.748C152.844 36.5427 153.464 36.44 154.164 36.44C154.668 36.44 155.163 36.496 155.648 36.608C156.134 36.72 156.535 36.8787 156.852 37.084L156.208 38.428C155.872 38.2133 155.508 38.064 155.116 37.98C154.734 37.896 154.36 37.854 153.996 37.854C153.427 37.854 153.002 37.9427 152.722 38.12C152.452 38.288 152.316 38.5027 152.316 38.764C152.316 38.9693 152.414 39.128 152.61 39.24C152.806 39.352 153.054 39.4453 153.352 39.52C153.66 39.5853 153.987 39.6553 154.332 39.73C154.687 39.7953 155.014 39.8933 155.312 40.024C155.62 40.1547 155.872 40.346 156.068 40.598C156.264 40.8407 156.362 41.1673 156.362 41.578C156.362 42.1193 156.208 42.5813 155.9 42.964C155.602 43.3373 155.182 43.622 154.64 43.818C154.099 44.0047 153.478 44.098 152.778 44.098Z" fill="#15161B"/>
    <path d="M97.422 15.3111H99.228L97.268 25.1111H95.462L97.422 15.3111ZM90.394 25.1111H88.574L90.534 15.3111H92.354L90.394 25.1111ZM96.442 20.9111H91.108L91.402 19.3571H96.764L96.442 20.9111ZM103.1 25.2091C102.493 25.2091 101.938 25.0784 101.434 24.8171C100.939 24.5558 100.543 24.1824 100.244 23.6971C99.9547 23.2024 99.81 22.6098 99.81 21.9191C99.81 21.2844 99.9127 20.7011 100.118 20.1691C100.333 19.6371 100.631 19.1751 101.014 18.7831C101.397 18.3911 101.84 18.0878 102.344 17.8731C102.857 17.6584 103.417 17.5511 104.024 17.5511C104.649 17.5511 105.186 17.6631 105.634 17.8871C106.091 18.1111 106.437 18.4518 106.67 18.9091C106.903 19.3571 107.011 19.9171 106.992 20.5891C106.973 21.5131 106.805 22.3251 106.488 23.0251C106.171 23.7158 105.727 24.2524 105.158 24.6351C104.589 25.0178 103.903 25.2091 103.1 25.2091ZM103.548 23.7111C104.052 23.7111 104.495 23.5944 104.878 23.3611C105.261 23.1184 105.564 22.7871 105.788 22.3671C106.012 21.9471 106.124 21.4618 106.124 20.9111C106.124 20.3324 105.951 19.8751 105.606 19.5391C105.261 19.2031 104.775 19.0351 104.15 19.0351C103.655 19.0351 103.212 19.1564 102.82 19.3991C102.437 19.6324 102.134 19.9591 101.91 20.3791C101.686 20.7991 101.574 21.2844 101.574 21.8351C101.574 22.4138 101.747 22.8711 102.092 23.2071C102.437 23.5431 102.923 23.7111 103.548 23.7111ZM105.382 25.1111L105.718 23.4031L106.194 21.4151L106.432 19.4131L106.782 17.6351H108.532L107.048 25.1111H105.382ZM114.896 17.5511C115.54 17.5511 116.086 17.6818 116.534 17.9431C116.982 18.2044 117.294 18.5918 117.472 19.1051C117.658 19.6091 117.677 20.2298 117.528 20.9671L116.702 25.1111H114.952L115.764 21.0091C115.885 20.4024 115.829 19.9311 115.596 19.5951C115.362 19.2498 114.938 19.0771 114.322 19.0771C113.678 19.0771 113.146 19.2544 112.726 19.6091C112.306 19.9638 112.021 20.5051 111.872 21.2331L111.088 25.1111H109.338L110.822 17.6351H112.488L112.068 19.7631L111.788 19.0911C112.142 18.5591 112.586 18.1718 113.118 17.9291C113.659 17.6771 114.252 17.5511 114.896 17.5511ZM122.309 25.2091C121.703 25.2091 121.147 25.0784 120.643 24.8171C120.139 24.5558 119.743 24.1824 119.453 23.6971C119.164 23.2024 119.019 22.6098 119.019 21.9191C119.019 21.2844 119.122 20.7011 119.327 20.1691C119.542 19.6371 119.841 19.1751 120.223 18.7831C120.606 18.3911 121.049 18.0878 121.553 17.8731C122.067 17.6584 122.622 17.5511 123.219 17.5511C123.835 17.5511 124.367 17.6584 124.815 17.8731C125.263 18.0878 125.609 18.4098 125.851 18.8391C126.094 19.2684 126.215 19.8004 126.215 20.4351C126.215 21.1351 126.127 21.7791 125.949 22.3671C125.772 22.9458 125.515 23.4498 125.179 23.8791C124.843 24.2991 124.433 24.6258 123.947 24.8591C123.471 25.0924 122.925 25.2091 122.309 25.2091ZM122.757 23.7111C123.252 23.7111 123.691 23.5944 124.073 23.3611C124.465 23.1184 124.769 22.7871 124.983 22.3671C125.207 21.9471 125.319 21.4618 125.319 20.9111C125.319 20.3324 125.147 19.8751 124.801 19.5391C124.465 19.2031 123.98 19.0351 123.345 19.0351C122.86 19.0351 122.421 19.1564 122.029 19.3991C121.637 19.6324 121.329 19.9591 121.105 20.3791C120.891 20.7991 120.783 21.2844 120.783 21.8351C120.783 22.4138 120.951 22.8711 121.287 23.2071C121.633 23.5431 122.123 23.7111 122.757 23.7111ZM124.577 25.1111L124.927 23.4031L125.389 21.4151L125.627 19.4131L126.565 14.7231H128.315L126.243 25.1111H124.577ZM132.584 25.1111L134.544 15.3111H136.028L138.884 22.4931L138.114 22.4791L143.7 15.3111H145.268L143.308 25.1111H141.586L143 17.9711L143.406 17.9851L138.674 23.9911H137.862L135.384 17.9711L135.734 18.0131L134.32 25.1111H132.584ZM149.147 25.2091C148.54 25.2091 147.985 25.0784 147.481 24.8171C146.986 24.5558 146.59 24.1824 146.291 23.6971C146.002 23.2024 145.857 22.6098 145.857 21.9191C145.857 21.2844 145.96 20.7011 146.165 20.1691C146.38 19.6371 146.678 19.1751 147.061 18.7831C147.444 18.3911 147.887 18.0878 148.391 17.8731C148.904 17.6584 149.464 17.5511 150.071 17.5511C150.696 17.5511 151.233 17.6631 151.681 17.8871C152.138 18.1111 152.484 18.4518 152.717 18.9091C152.95 19.3571 153.058 19.9171 153.039 20.5891C153.02 21.5131 152.852 22.3251 152.535 23.0251C152.218 23.7158 151.774 24.2524 151.205 24.6351C150.636 25.0178 149.95 25.2091 149.147 25.2091ZM149.595 23.7111C150.099 23.7111 150.542 23.5944 150.925 23.3611C151.308 23.1184 151.611 22.7871 151.835 22.3671C152.059 21.9471 152.171 21.4618 152.171 20.9111C152.171 20.3324 151.998 19.8751 151.653 19.5391C151.308 19.2031 150.822 19.0351 150.197 19.0351C149.702 19.0351 149.259 19.1564 148.867 19.3991C148.484 19.6324 148.181 19.9591 147.957 20.3791C147.733 20.7991 147.621 21.2844 147.621 21.8351C147.621 22.4138 147.794 22.8711 148.139 23.2071C148.484 23.5431 148.97 23.7111 149.595 23.7111ZM151.429 25.1111L151.765 23.4031L152.241 21.4151L152.479 19.4131L152.829 17.6351H154.579L153.095 25.1111H151.429ZM158.759 25.2091C158.152 25.2091 157.597 25.0784 157.093 24.8171C156.589 24.5558 156.192 24.1824 155.903 23.6971C155.613 23.2024 155.469 22.6098 155.469 21.9191C155.469 21.2844 155.571 20.7011 155.777 20.1691C155.991 19.6371 156.29 19.1751 156.673 18.7831C157.055 18.3911 157.499 18.0878 158.003 17.8731C158.516 17.6584 159.071 17.5511 159.669 17.5511C160.285 17.5511 160.817 17.6584 161.265 17.8731C161.713 18.0878 162.058 18.4098 162.301 18.8391C162.543 19.2684 162.665 19.8004 162.665 20.4351C162.665 21.1351 162.576 21.7791 162.399 22.3671C162.221 22.9458 161.965 23.4498 161.629 23.8791C161.293 24.2991 160.882 24.6258 160.397 24.8591C159.921 25.0924 159.375 25.2091 158.759 25.2091ZM159.207 23.7111C159.701 23.7111 160.14 23.5944 160.523 23.3611C160.915 23.1184 161.218 22.7871 161.433 22.3671C161.657 21.9471 161.769 21.4618 161.769 20.9111C161.769 20.3324 161.596 19.8751 161.251 19.5391C160.915 19.2031 160.429 19.0351 159.795 19.0351C159.309 19.0351 158.871 19.1564 158.479 19.3991C158.087 19.6324 157.779 19.9591 157.555 20.3791C157.34 20.7991 157.233 21.2844 157.233 21.8351C157.233 22.4138 157.401 22.8711 157.737 23.2071C158.082 23.5431 158.572 23.7111 159.207 23.7111ZM161.027 25.1111L161.377 23.4031L161.839 21.4151L162.077 19.4131L163.015 14.7231H164.765L162.693 25.1111H161.027ZM168.748 25.2091C168.001 25.2091 167.353 25.0738 166.802 24.8031C166.251 24.5231 165.822 24.1404 165.514 23.6551C165.215 23.1604 165.066 22.5818 165.066 21.9191C165.066 21.0698 165.253 20.3184 165.626 19.6651C165.999 19.0118 166.508 18.4984 167.152 18.1251C167.805 17.7424 168.547 17.5511 169.378 17.5511C170.078 17.5511 170.685 17.6818 171.198 17.9431C171.711 18.2044 172.108 18.5824 172.388 19.0771C172.677 19.5624 172.822 20.1458 172.822 20.8271C172.822 21.0044 172.813 21.1864 172.794 21.3731C172.775 21.5598 172.747 21.7324 172.71 21.8911H166.368L166.564 20.7291H171.884L171.17 21.1211C171.245 20.6451 171.212 20.2484 171.072 19.9311C170.932 19.6138 170.708 19.3711 170.4 19.2031C170.092 19.0351 169.723 18.9511 169.294 18.9511C168.781 18.9511 168.333 19.0724 167.95 19.3151C167.577 19.5484 167.287 19.8844 167.082 20.3231C166.877 20.7524 166.774 21.2564 166.774 21.8351C166.774 22.4418 166.947 22.9084 167.292 23.2351C167.647 23.5618 168.193 23.7251 168.93 23.7251C169.35 23.7251 169.751 23.6598 170.134 23.5291C170.517 23.3891 170.834 23.1978 171.086 22.9551L171.814 24.1731C171.422 24.5184 170.955 24.7798 170.414 24.9571C169.882 25.1251 169.327 25.2091 168.748 25.2091Z" fill="#15161B"/>
  </symbol>

  <symbol viewbox="0 0 35 35" id="facebook">
    <g clip-path="url(#clip0_161_191)">
    <path d="M23.3287 5.81146H26.5239V0.246458C25.9727 0.170625 24.0768 0 21.8689 0C17.262 0 14.1062 2.89771 14.1062 8.22354V13.125H9.02246V19.3463H14.1062V35H20.3391V19.3477H25.2173L25.9916 13.1265H20.3377V8.84042C20.3391 7.04229 20.8233 5.81146 23.3287 5.81146Z"/>
    </g>
    <defs>
    <clipPath id="clip0_161_191">
    <rect width="35" height="35"/>
    </clipPath>
    </defs>
  </symbol>
  <symbol viewbox="0 0 35 35" id="instagram">
    <path d="M25.342 0H9.63105C4.27748 0 0 4.27748 0 9.63105V25.3689C0 30.6956 4.27748 35 9.63105 35H25.3689C30.6956 35 35 30.7225 35 25.3689V9.63105C34.9731 4.27748 30.6956 0 25.342 0ZM31.9062 23.97C31.9062 28.3282 28.3551 31.9331 23.9431 31.9331H11.03C6.67179 31.9331 3.06687 28.382 3.06687 23.97V11.03C3.06687 6.67179 6.61799 3.06687 11.03 3.06687H24.0238C28.382 3.06687 31.9869 6.61799 31.9869 11.03V23.97H31.9062Z"/>
    <path d="M23.8623 11.1914L23.7816 11.1107L23.7009 11.03C22.0329 9.36201 19.8 8.44733 17.4864 8.44733C12.5364 8.47423 8.52792 12.5365 8.55482 17.4865C8.55482 19.8808 9.52331 22.1675 11.1913 23.8624C12.8592 25.5572 15.119 26.4988 17.4864 26.4988C22.4634 26.4181 26.4449 22.2482 26.3642 17.2175C26.3104 14.9846 25.4495 12.8055 23.8623 11.1914ZM17.4864 23.432C14.2043 23.4858 11.541 20.8493 11.4872 17.5672C11.4334 14.2851 14.0698 11.6218 17.3519 11.568C20.634 11.5142 23.2973 14.1506 23.3511 17.4327V17.5134C23.3511 20.7148 20.7147 23.3781 17.4864 23.432Z"/>
    <path d="M29.028 8.04379C29.028 9.2275 28.1133 10.196 26.9296 10.196C26.3646 10.196 25.8266 9.98076 25.45 9.57723C24.616 8.74325 24.616 7.34433 25.5038 6.51036C25.9073 6.10682 26.4185 5.8916 26.9834 5.8916C27.4676 5.8916 27.9519 6.07992 28.3285 6.37584L28.3823 6.42965C28.463 6.48345 28.5168 6.56416 28.5706 6.61797L28.6244 6.67177C28.8397 7.0484 29.028 7.53265 29.028 8.04379Z"/>
  </symbol>
  <symbol viewBox="0 0 45 26" id="vk">
    <path fill-rule="evenodd" clip-rule="evenodd" d="M38.7289 16.1924C40.2216 17.6497 41.7971 19.0209 43.1359 20.6252C43.7273 21.3382 44.2872 22.0739 44.7156 22.9013C45.3225 24.0774 44.7728 25.3717 43.7182 25.4419L37.1624 25.439C35.4716 25.5793 34.1228 24.8986 32.9886 23.7425C32.0809 22.818 31.2404 21.8341 30.3676 20.8784C30.0098 20.4877 29.6353 20.1202 29.1879 19.8297C28.293 19.2488 27.5162 19.4266 27.0048 20.36C26.4839 21.3094 26.3657 22.3606 26.3146 23.4186C26.2444 24.9623 25.7777 25.3682 24.2271 25.4388C20.9131 25.5951 17.768 25.0938 14.8464 23.422C12.2705 21.9482 10.273 19.8677 8.53444 17.5122C5.14938 12.9257 2.55711 7.88594 0.227265 2.70494C-0.297163 1.53765 0.086363 0.911059 1.3743 0.888882C3.51296 0.847336 5.65134 0.850293 7.79252 0.885925C8.66174 0.898641 9.23717 1.39719 9.57279 2.21836C10.7299 5.06346 12.1457 7.77032 13.9229 10.2794C14.3961 10.9473 14.8787 11.6153 15.5659 12.0855C16.3262 12.6061 16.905 12.4336 17.2627 11.5867C17.4896 11.0497 17.589 10.4713 17.6402 9.89613C17.8096 7.91743 17.8319 5.94214 17.5347 3.9704C17.3523 2.73983 16.6592 1.94321 15.4313 1.71034C14.8047 1.59162 14.898 1.35846 15.2013 1.00081C15.7283 0.38397 16.2239 0 17.2118 0H24.6208C25.7872 0.230204 26.0462 0.754189 26.2059 1.92783L26.2123 10.1577C26.1996 10.612 26.4392 11.9603 27.2576 12.261C27.9126 12.4751 28.3443 11.9511 28.7373 11.5358C30.5112 9.65306 31.7772 7.42805 32.9083 5.12408C33.4103 4.111 33.8418 3.05889 34.2601 2.00767C34.57 1.22761 35.0563 0.843787 35.935 0.86079L43.0657 0.867147C43.2771 0.867147 43.4911 0.870253 43.6958 0.905293C44.8974 1.11007 45.2267 1.62696 44.8556 2.8003C44.2708 4.6412 43.1331 6.1753 42.0207 7.7165C40.8315 9.36194 39.5597 10.951 38.3804 12.6062C37.297 14.1177 37.383 14.8796 38.7289 16.1924Z"/>
  </symbol>

  <symbol viewbox="0 0 35 35" id="twitter">
    <g clip-path="url(#clip0_161_186)">
    <path fill-rule="evenodd" clip-rule="evenodd" d="M35.8649 6.55382C34.7209 7.07132 33.4623 7.38491 32.2284 7.59234C33.314 7.41023 34.9234 4.8164 35.2342 3.79898C35.327 3.61265 35.1927 3.54655 35.0338 3.62601C33.6564 4.36429 32.2312 4.89937 30.7145 5.27835C30.4298 5.34937 30.2589 4.99569 30.0388 4.81359C24.6564 0.233429 16.6464 4.82624 17.692 11.9208C17.7152 12.0944 17.7004 12.1176 17.5436 12.0944C11.6106 11.2106 6.69298 9.08859 2.70064 4.53866C2.52767 4.34109 2.43345 4.34179 2.29142 4.55413C0.189777 7.70413 1.70642 12.0825 4.48657 14.2495C4.36845 14.2734 2.9165 14.1159 1.62204 13.4473C1.44907 13.3376 1.36189 13.4009 1.34712 13.597C1.17134 16.6795 3.98032 20.2809 7.0361 20.8055C6.46235 20.9313 5.87173 21.0213 4.22712 20.8926C4.02251 20.8533 3.94376 20.9552 4.02251 21.1521C5.2586 24.5208 7.92626 25.5234 9.92454 26.0944C10.1917 26.1415 10.4596 26.1415 10.7282 26.2041C9.26782 28.3746 2.95657 29.4103 0.52798 29.1712C0.359934 29.1466 -0.273582 29.058 0.134934 29.3913C14.5567 38.899 32.5174 28.7241 32.5174 10.6383C32.5174 10.4048 32.7923 10.2769 32.9561 10.1538C33.707 9.58921 35.9999 7.52062 35.9999 6.55382C35.9999 6.45819 36.0112 6.48773 35.8649 6.55382Z"/>
    </g>
    <defs>
    <clipPath id="clip0_161_186">
    <rect width="35" height="35"/>
    </clipPath>
    </defs>
  </symbol>

  <symbol viewBox="0 0 20 20" id="icon-close2">
    <path d="M1.16822 0.224688C0.915888 0.346392 0.626168 0.524269 0.542056 0.617887C0.271028 0.926832 0 1.61961 0 2.01282C0 2.79922 0.205607 3.05199 3.76636 6.61889L7.14953 10.0173L3.76636 13.4063C1.91589 15.2787 0.336449 16.9264 0.252336 17.0855C-0.140187 17.9 0 18.7332 0.654206 19.3792C1.29907 20.0345 2.13084 20.175 2.94393 19.7818C3.1028 19.6975 4.74766 18.1153 6.61682 16.2617L10 12.8727L13.3925 16.2617C15.6729 18.546 16.8878 19.6975 17.1215 19.8005C18.3925 20.3248 19.7944 19.5009 19.8878 18.1715C19.9626 17.1511 20.0093 17.2166 16.2804 13.4531L12.8505 10.0173L16.2336 6.61889C19.7944 3.05199 19.9907 2.80858 20 2.01282C20 1.60089 19.6636 0.786404 19.3832 0.542994C19.0748 0.271496 18.3832 0 17.9907 0C17.2056 0 16.9533 0.205963 13.3925 3.77286L10 7.16188L6.61682 3.77286C3.04673 0.205963 2.80374 0.00936317 2.00935 0C1.80374 0 1.42991 0.102982 1.16822 0.224688Z" fill="#000000"></path>
  </symbol>
    <symbol viewBox="-3 -3 30 30" id="icon-close">
    <circle fill="none" r="14" cx="12" cy="12" stroke-width="2" stroke="#00082e"/>
    <path d="M 4.9902344 3.9902344 A 1.0001 1.0001 0 0 0 4.2929688 5.7070312 L 10.585938 12 L 4.2929688 18.292969 A 1.0001 1.0001 0 1 0 5.7070312 19.707031 L 12 13.414062 L 18.292969 19.707031 A 1.0001 1.0001 0 1 0 19.707031 18.292969 L 13.414062 12 L 19.707031 5.7070312 A 1.0001 1.0001 0 0 0 18.980469 3.9902344 A 1.0001 1.0001 0 0 0 18.292969 4.2929688 L 12 10.585938 L 5.7070312 4.2929688 A 1.0001 1.0001 0 0 0 4.9902344 3.9902344 z" fill="#00082e"/>
  </symbol>

</svg>
