<?xml version="1.0" encoding="utf-8"?><svg viewBox="0 0 188 80" xmlns="http://www.w3.org/2000/svg" xmlns:xlink="http://www.w3.org/1999/xlink"><style>:root>svg{display:none}:root>svg:target{display:block}</style><svg viewBox="0 0 35 35" id="facebook" xmlns="http://www.w3.org/2000/svg"><g clip-path="url(#aa)"><path d="M23.329 5.811h3.195V.246C25.973.171 24.077 0 21.869 0c-4.607 0-7.763 2.898-7.763 8.224v4.901H9.022v6.221h5.084V35h6.233V19.348h4.878l.775-6.221h-5.654V8.84c.001-1.798.485-3.029 2.99-3.029z"/></g><defs><clipPath id="aa"><path d="M0 0h35v35H0z"/></clipPath></defs></svg><svg viewBox="0 0 35 35" id="instagram" xmlns="http://www.w3.org/2000/svg"><path d="M25.342 0H9.632A9.587 9.587 0 000 9.631V25.37A9.604 9.604 0 009.631 35H25.37A9.604 9.604 0 0035 25.369V9.63C34.973 4.277 30.696 0 25.342 0zm6.564 23.97c0 4.358-3.55 7.963-7.963 7.963H11.03c-4.358 0-7.963-3.551-7.963-7.963V11.03c0-4.358 3.551-7.963 7.963-7.963h12.994c4.358 0 7.963 3.551 7.963 7.963v12.94h-.08z"/><path d="M23.862 11.191l-.08-.08-.081-.081a8.778 8.778 0 00-6.215-2.583c-4.95.027-8.958 4.09-8.931 9.04 0 2.394.968 4.68 2.636 6.375a8.812 8.812 0 006.295 2.637c4.977-.08 8.959-4.25 8.878-9.281-.054-2.233-.915-4.412-2.502-6.027zm-6.376 12.241c-3.282.054-5.945-2.583-5.999-5.865-.054-3.282 2.583-5.945 5.865-5.999 3.282-.054 5.945 2.583 6 5.865v.08c0 3.202-2.637 5.865-5.866 5.919zM29.028 8.044c0 1.183-.915 2.152-2.098 2.152a2.01 2.01 0 01-1.48-.619 2.144 2.144 0 01.054-3.067 2.054 2.054 0 011.48-.618c.484 0 .968.188 1.344.484l.054.054c.081.053.135.134.189.188l.053.054c.216.376.404.86.404 1.372z"/></svg><svg viewBox="0 0 275 153" id="logo" xmlns="http://www.w3.org/2000/svg"><path d="M91.32 150.16a8.273 8.273 0 01-1.712-.176 8.54 8.54 0 01-1.504-.464 5.043 5.043 0 01-1.12-.672l.88-1.632c.31.256.661.475 1.056.656.395.181.81.32 1.248.416.448.096.896.144 1.344.144.544 0 1.019-.064 1.424-.192s.715-.309.928-.544c.224-.235.336-.517.336-.848 0-.299-.101-.539-.304-.72-.203-.192-.475-.347-.816-.464a10.45 10.45 0 00-1.104-.352 29.858 29.858 0 01-1.2-.384 5.6 5.6 0 01-1.104-.544 2.817 2.817 0 01-.816-.848c-.203-.341-.304-.768-.304-1.28 0-.736.203-1.371.608-1.904.416-.544.987-.965 1.712-1.264.736-.299 1.59-.448 2.56-.448.725 0 1.413.08 2.064.24.65.16 1.21.395 1.68.704l-.816 1.648a4.99 4.99 0 00-1.408-.64 5.924 5.924 0 00-1.632-.224c-.555 0-1.035.069-1.44.208-.405.139-.715.331-.928.576a1.343 1.343 0 00-.336.864c0 .309.101.56.304.752.203.181.47.336.8.464.33.128.699.251 1.104.368.405.107.805.229 1.2.368a5.44 5.44 0 011.12.528c.341.213.613.485.816.816.203.32.304.725.304 1.216 0 .736-.208 1.376-.624 1.92-.405.544-.981.965-1.728 1.264-.736.299-1.6.448-2.592.448zm11.999 0c-1.131 0-2.096-.203-2.896-.608-.8-.405-1.414-.965-1.84-1.68-.416-.725-.624-1.557-.624-2.496 0-.949.16-1.829.48-2.64a6.159 6.159 0 011.392-2.144 6.474 6.474 0 012.176-1.424c.842-.352 1.781-.528 2.816-.528 1.12 0 2.08.203 2.88.608.8.405 1.413.971 1.84 1.696.426.715.64 1.541.64 2.48 0 .949-.166 1.835-.496 2.656a6.187 6.187 0 01-1.392 2.128 6.687 6.687 0 01-2.176 1.44c-.832.341-1.766.512-2.8.512zm.176-1.824c.704 0 1.338-.123 1.904-.368a4.316 4.316 0 001.44-1.04c.405-.448.714-.96.928-1.536.213-.587.32-1.2.32-1.84 0-.608-.134-1.147-.4-1.616a2.69 2.69 0 00-1.168-1.088c-.512-.256-1.142-.384-1.888-.384-.694 0-1.328.128-1.904.384a4.172 4.172 0 00-1.456 1.04 4.606 4.606 0 00-.912 1.536 5.447 5.447 0 00-.304 1.824c0 .608.128 1.147.384 1.616.266.469.656.832 1.168 1.088.512.256 1.141.384 1.888.384zm12.812 1.824c-1.056 0-1.936-.208-2.64-.624a3.397 3.397 0 01-1.488-1.744c-.277-.757-.314-1.648-.112-2.672l1.264-6.32h2.08l-1.264 6.288c-.096.544-.122 1.024-.08 1.44.054.405.182.747.384 1.024.214.267.491.464.832.592.352.128.763.192 1.232.192.598 0 1.11-.112 1.536-.336.438-.224.8-.576 1.088-1.056.299-.491.528-1.115.688-1.872l1.248-6.272h2.048l-1.28 6.416c-.33 1.643-.96 2.88-1.888 3.712-.928.821-2.144 1.232-3.648 1.232zm10.801-.16l-2.64-11.2h2.144l2.352 10.128h-1.328l6.48-10.128h2.16l-7.12 11.2h-2.048zm11.342-6.544h5.584l-.336 1.712h-5.584l.336-1.712zm-.8 4.8h6.336l-.352 1.744h-8.4l2.24-11.2h8.176l-.352 1.744h-6.112l-1.536 7.712zm8.303 1.744l2.24-11.2h1.712l5.104 8.688-.656-.08 1.712-8.608h2.064l-2.24 11.2h-1.712l-5.088-8.688.656.08-1.728 8.608h-2.064zm12.953 0l2.24-11.2h2.08l-2.24 11.2h-2.08zm5.109 0l2.24-11.2h4.352c1.355 0 2.4.299 3.136.896.747.587 1.12 1.413 1.12 2.48 0 .939-.218 1.749-.656 2.432-.426.672-1.04 1.195-1.84 1.568-.8.363-1.749.544-2.848.544h-3.648l1.072-.944-.832 4.224h-2.096zm7.36 0l-2.288-4.064h2.208l2.288 4.064h-2.208zm-4.48-3.984l-.704-1.008h3.392c1.014 0 1.798-.224 2.352-.672.555-.448.832-1.104.832-1.968 0-.608-.208-1.061-.624-1.36-.405-.299-.992-.448-1.76-.448h-3.264l1.088-1.04-1.312 6.496zm12.488 4.144a8.266 8.266 0 01-1.712-.176 8.523 8.523 0 01-1.504-.464 5.058 5.058 0 01-1.121-.672l.881-1.632a4.74 4.74 0 001.056.656c.394.181.81.32 1.248.416.448.096.896.144 1.344.144.544 0 1.018-.064 1.424-.192.405-.128.714-.309.928-.544.224-.235.336-.517.336-.848a.92.92 0 00-.304-.72c-.203-.192-.475-.347-.816-.464a10.524 10.524 0 00-1.104-.352 29.553 29.553 0 01-1.2-.384 5.562 5.562 0 01-1.104-.544 2.81 2.81 0 01-.816-.848c-.203-.341-.304-.768-.304-1.28 0-.736.202-1.371.608-1.904.416-.544.986-.965 1.712-1.264.736-.299 1.589-.448 2.56-.448.725 0 1.413.08 2.064.24.65.16 1.21.395 1.68.704l-.816 1.648a5 5 0 00-1.408-.64 5.928 5.928 0 00-1.632-.224c-.555 0-1.035.069-1.44.208-.406.139-.715.331-.928.576a1.336 1.336 0 00-.336.864c0 .309.101.56.304.752.202.181.469.336.8.464.33.128.698.251 1.104.368.405.107.805.229 1.2.368.405.139.778.315 1.12.528.341.213.613.485.816.816.202.32.304.725.304 1.216 0 .736-.208 1.376-.624 1.92-.406.544-.982.965-1.728 1.264-.736.299-1.6.448-2.592.448zM83.858 20.156c-12.094 12.542-21.052 18.365-22.844 15.23-2.24-3.584-4.03-3.584-6.27.447-1.792 2.688-1.792 6.271-.448 7.615 5.375 5.375-7.615 14.781-17.021 12.094-6.719-1.344-13.886 2.24-25.084 13.885-13.885 14.334-17.02 22.844-3.583 9.854 3.135-3.135 10.75-8.958 17.02-12.99 9.855-5.822 12.99-6.27 19.71-1.343 4.478 3.583 6.718 8.063 4.926 10.75-1.343 2.688-.448 4.927 1.792 4.927 2.688 0 4.927-2.24 4.927-4.927 0-12.094 8.959 2.688 9.406 15.23 0 11.645 2.688 7.614 13.438-21.5 7.615-19.71 15.677-40.761 18.365-47.032l4.479-11.198 8.958 11.198c4.927 6.27 11.646 11.198 14.781 11.198 3.136 0 14.334 10.75 24.636 23.292 10.302 12.99 19.708 23.74 21.052 23.74 1.792 0-.448-3.584-4.479-8.063-11.646-12.99-8.959-14.334 9.406-5.375 17.917 8.958 22.396 6.27 14.333-9.407-4.927-8.51-3.583-8.062 11.646 3.136l17.021 12.99-12.989-17.917c-12.99-17.917-12.99-17.917 10.75 4.479 22.843 21.5 23.739 21.948 21.052 9.406l-3.136-12.541 19.261 14.78 19.26 14.782-20.156-21.948c-22.396-25.531-26.875-28.219-26.875-17.917 0 5.823-1.344 6.271-9.854 1.792-6.271-3.583-8.063-6.27-4.479-7.615 2.687-.895 5.375-4.927 5.375-8.958-.448-6.719-.896-6.719-4.928.448-4.031 6.719-5.375 7.167-13.885 1.344-8.51-6.271-10.75-5.375-25.083 5.375l-15.23 11.646-13.437-16.573c-7.615-8.959-15.677-15.23-18.365-13.438-2.239 1.344-8.958-2.687-14.333-8.958L103.567 0 83.858 20.156zM19.992 123v-16.8h3.216l9.912 12.096h-1.56V106.2h3.84V123h-3.192l-9.936-12.096h1.56V123h-3.84zm22.983-9.24h8.064v3.12h-8.064v-3.12zm.288 9.24h-3.888v-16.8H52.07v3.12h-8.808V123zm15.037 0v-13.632h-5.376V106.2h14.64v3.168h-5.376V123H58.3zm17.409-5.256v-3H82.5v3h-6.792zm28.319-11.544h3.888V123h-3.888v-16.8zM96.396 123h-3.888v-16.8h3.888V123zm7.92-6.888h-8.208v-3.288h8.208v3.288zm5.366 6.888l7.488-16.8h3.84l7.512 16.8h-4.08l-6.144-14.832h1.536L113.666 123h-3.984zm3.744-3.6l1.032-2.952h8.64l1.056 2.952h-10.728zm16.839 3.6v-16.8h3.216l9.912 12.096h-1.56V106.2h3.84V123h-3.192l-9.936-12.096h1.56V123h-3.84zm19.383 0v-16.8h7.632c1.824 0 3.432.352 4.824 1.056 1.392.688 2.48 1.656 3.264 2.904.784 1.248 1.176 2.728 1.176 4.44 0 1.696-.392 3.176-1.176 4.44-.784 1.248-1.872 2.224-3.264 2.928-1.392.688-3 1.032-4.824 1.032h-7.632zm3.888-3.192h3.552c1.12 0 2.088-.208 2.904-.624a4.596 4.596 0 001.92-1.824c.464-.784.696-1.704.696-2.76 0-1.072-.232-1.992-.696-2.76a4.446 4.446 0 00-1.92-1.8c-.816-.432-1.784-.648-2.904-.648h-3.552v10.416zm15.267-2.064v-3h6.792v3h-6.792zM178.805 123v-16.8h3.216l7.152 11.856h-1.704l7.032-11.856h3.192l.048 16.8h-3.648l-.024-11.208h.672l-5.616 9.432h-1.752l-5.736-9.432h.816V123h-3.648zm20.713 0l7.488-16.8h3.84l7.512 16.8h-4.08l-6.144-14.832h1.536L203.502 123h-3.984zm3.744-3.6l1.032-2.952h8.64l1.056 2.952h-10.728zm16.839 3.6v-16.8h7.632c1.824 0 3.432.352 4.824 1.056 1.392.688 2.48 1.656 3.264 2.904.784 1.248 1.176 2.728 1.176 4.44 0 1.696-.392 3.176-1.176 4.44-.784 1.248-1.872 2.224-3.264 2.928-1.392.688-3 1.032-4.824 1.032h-7.632zm3.888-3.192h3.552c1.12 0 2.088-.208 2.904-.624a4.596 4.596 0 001.92-1.824c.464-.784.696-1.704.696-2.76 0-1.072-.232-1.992-.696-2.76a4.446 4.446 0 00-1.92-1.8c-.816-.432-1.784-.648-2.904-.648h-3.552v10.416zm19.517-6.84h8.088v3.024h-8.088v-3.024zm.288 6.912h9.144V123H239.93v-16.8h12.696v3.12h-8.832v10.56zM9 142.5h66m-66 7h66m123-7h66m-66 7h66"/></svg><svg viewBox="0 0 20 20" id="mute" xmlns="http://www.w3.org/2000/svg"><path fill-rule="evenodd" clip-rule="evenodd" d="M12 15.583c.584.416 1.334.083 1.334-.667v-3.75l-3.084 3.083L12 15.583zm5.25-11.167a.805.805 0 00-1.166 0l-2.75 2.75V5.083c0-.667-.834-1.084-1.334-.667L9.667 6.333c-.333.166-.667.333-1.083.333H6.667C5.75 6.666 5 7.416 5 8.333v3.333c0 .917.75 1.667 1.667 1.667h.5l-2.75 2.75a.806.806 0 000 1.166.806.806 0 001.167 0L17.25 5.583a.805.805 0 000-1.167z"/></svg><svg viewBox="0 0 19 22" id="play" xmlns="http://www.w3.org/2000/svg"><path d="M18.5 10.134a1 1 0 010 1.732L2 21.392a1 1 0 01-1.5-.866V1.474A1 1 0 012 .608l16.5 9.526z"/></svg><svg viewBox="0 0 56 56" id="social" xmlns="http://www.w3.org/2000/svg"><path d="M10.444.231C7.731.8 5.686 1.937 3.717 3.938 2 5.698.982 7.481.359 9.821c-.34 1.313-.47 3.86-.252 5.304.635 4.342 3.697 8.311 7.734 10.028 1.017.437 2.45.842 3.26.94 1.28.132 1.148-.076 1.148 1.914 0 2.001.175 1.75-1.357 1.958-1.859.262-4.178 1.268-5.808 2.515-2.624 2-4.506 5.194-4.977 8.41-.217 1.442-.087 3.99.253 5.302.634 2.395 1.761 4.32 3.566 6.091C5.686 54 7.47 55.017 9.811 55.64c1.312.34 3.86.47 5.305.252 3.522-.514 6.88-2.658 8.882-5.676 1.093-1.63 1.903-3.707 2.089-5.314.131-1.28-.077-1.149 1.903-1.149h1.74l.065.306c.033.164.087.57.131.897.088.777.514 2.231.93 3.204 1.717 4.035 5.688 7.097 10.03 7.732 1.444.218 3.993.087 5.305-.252 2.396-.634 4.288-1.75 6.093-3.576 1.717-1.738 2.735-3.521 3.358-5.872.34-1.312.47-3.86.252-5.304-.635-4.341-3.697-8.31-7.734-10.028-1.017-.437-2.45-.842-3.26-.94-1.28-.131-1.148.076-1.148-1.914s-.131-1.782 1.149-1.914c3.106-.35 6.76-2.58 8.696-5.314 1.148-1.64 2.034-3.795 2.297-5.654.197-1.301.087-4.09-.197-5.161-.438-1.64-1.007-2.91-1.882-4.21-.612-.897-.733-1.018-1.17-1.105-.252-.044-.394 0-.634.197-.47.404-.416.798.251 1.782 1.51 2.231 2.067 4.232 1.958 7.02-.055 1.674-.317 2.779-1.006 4.255-1.904 4.133-6.323 6.802-10.83 6.572-5.02-.262-9.286-3.75-10.51-8.595-1.445-5.643 1.705-11.504 7.24-13.495 1.247-.448 2.385-.634 3.818-.634 2.144 0 4.069.525 5.852 1.619.897.557 1.378.645 1.75.306.317-.285.295-.974-.044-1.29-.426-.394-1.892-1.193-2.898-1.564-2.057-.777-4.835-1.028-7.023-.646-4.255.744-8.04 3.73-9.713 7.677-.416.973-.842 2.428-.93 3.204-.044.328-.098.733-.131.897l-.066.306H27.99c-1.99 0-1.74.175-1.947-1.356-.263-1.859-1.269-4.177-2.516-5.807C21.58 2.55 18.571.723 15.432.177c-1.302-.23-3.741-.208-4.988.054zm3.949 1.575c1.586.12 3.631.896 5.13 1.935 3.248 2.242 5.14 6.037 4.944 9.886-.405 7.48-7.788 12.62-14.843 10.312-3.62-1.18-6.377-4.046-7.504-7.808-.394-1.312-.492-3.652-.208-5.129.82-4.363 4.266-7.971 8.576-8.978.766-.185 2.395-.35 2.855-.306.153.022.623.055 1.05.088zm15.4 12.444l.176 1.127c.383 2.526 1.695 5.052 3.653 7.01 1.958 1.957 4.485 3.269 7.012 3.652.481.076.984.153 1.126.175.241.044.241.065.241 1.793s0 1.75-.24 1.794c-.143.022-.646.098-1.127.175-2.527.382-5.054 1.695-7.012 3.652-1.958 1.958-3.27 4.484-3.653 7.01-.077.48-.153.984-.175 1.115-.044.252-.066.252-1.794.252s-1.75 0-1.794-.252c-.022-.131-.098-.634-.175-1.115-.24-1.63-.995-3.532-2.045-5.107-.57-.864-.82-1.072-1.302-1.072-.416 0-.81.416-.81.853 0 .153.263.678.602 1.17.788 1.17 1.324 2.34 1.663 3.653.24.875.284 1.301.295 2.635.011 2.22-.284 3.467-1.28 5.391-2.778 5.37-9.374 7.622-14.8 5.063-1.366-.656-2.242-1.257-3.28-2.296-1.729-1.739-2.845-3.871-3.217-6.222-.218-1.335-.087-3.63.263-4.823 1.805-6.036 7.799-9.525 13.75-8.005 1.159.296 2.34.799 3.303 1.411.744.481 1.181.514 1.553.131.536-.525.317-1.071-.678-1.673-1.652-.995-3.544-1.662-5.229-1.848l-.765-.088-.033-1.771c-.033-2.045-.208-1.772 1.345-2.001 3.916-.58 7.624-3.347 9.506-7.086.525-1.05.995-2.494 1.16-3.576.076-.482.152-.985.174-1.127.044-.24.066-.24 1.794-.24s1.75 0 1.794.24zm14.899 17.42c4.452.766 7.832 3.795 9.199 8.213.273.908.295 1.115.295 2.942.011 2.285-.153 3.105-.962 4.822-.657 1.367-1.258 2.242-2.297 3.281-2.22 2.22-4.912 3.335-8.05 3.335-7.362.011-12.82-7.01-11.005-14.128 1.444-5.698 7.121-9.438 12.82-8.464z"/><path d="M13.637 6.3c-.918.34-1.771 1.203-2.1 2.133-.11.306-.164.885-.164 1.706v1.246H10.28c-1.29 0-1.531.143-1.531.853 0 .69.263.831 1.542.875l1.083.044v6.529l.285.218c.328.262.568.284.951.11.482-.22.514-.47.514-3.762v-3.117h.93c1.028 0 1.4-.12 1.575-.514.186-.405.142-.678-.153-.962-.24-.252-.35-.274-1.313-.274h-1.039v-1.104c0-.919.044-1.17.23-1.51.372-.655.678-.809 1.772-.885.897-.066 1.006-.098 1.247-.372.306-.372.317-.71.022-1.093-.219-.274-.263-.285-1.28-.274-.623 0-1.236.066-1.477.153zM8.77 36.909c-.69.23-1.214.678-1.51 1.312-.262.558-.262.569-.262 4.713 0 4.637.011 4.648.777 5.38.722.69.765.69 5.327.69h4.134l.58-.285c.7-.35 1.16-.94 1.324-1.717.087-.383.109-1.837.087-4.45-.033-3.73-.044-3.905-.273-4.32-.274-.514-.7-.93-1.236-1.214-.35-.186-.722-.208-4.43-.23-3.162-.021-4.146.011-4.518.12zm8.412 1.913l.317.317v3.686c0 3.849-.033 4.188-.492 4.363-.099.033-1.882.066-3.971.066-3.73 0-3.785 0-4.036-.241l-.252-.23v-3.849c0-4.024 0-4.035.492-4.297.143-.088 1.455-.12 3.916-.132h3.708l.318.317z"/><path d="M12.292 40.408a2.503 2.503 0 00-1.531 1.334c-.252.503-.284.7-.24 1.345.032.634.098.853.371 1.236.547.776 1.127 1.115 2.024 1.159.645.044.842.01 1.345-.24 1.914-.941 1.936-3.697.044-4.67-.536-.273-1.455-.35-2.013-.164zm1.4 1.892c.383.339.329.973-.12 1.312-.284.219-.766.164-1.05-.131-.788-.777.339-1.925 1.17-1.181zm28.068-6.31c-2.625.47-4.704 2.264-5.524 4.746-.24.744-.295 1.083-.295 2.143 0 1.346.153 2.1.645 3.073l.263.514-.482 1.214c-.273.667-.492 1.301-.492 1.422 0 .11.098.328.23.492.317.404.754.372 2.089-.164l1.105-.438.623.274c1.346.601 3.249.787 4.693.448 2.395-.569 4.528-2.7 5.097-5.096.24-1.028.208-2.602-.066-3.598-.612-2.252-2.526-4.188-4.802-4.855-.721-.219-2.362-.306-3.084-.175zm2.122 1.76a5.412 5.412 0 013.719 2.91c.426.853.46 1.017.503 1.946.044.82 0 1.17-.186 1.794-.46 1.498-1.695 2.843-3.15 3.411-.952.361-2.494.416-3.402.11a7.44 7.44 0 01-1.127-.503c-.48-.306-.918-.34-1.465-.12-.438.185-.438.185-.22-.34.23-.557.209-.7-.262-1.596-.81-1.553-.842-3.117-.087-4.713 1.006-2.122 3.434-3.368 5.677-2.898z"/><path d="M40.382 40.517c-.645.58-.94 1.345-.94 2.417 0 .733.043.974.295 1.498.328.678.908 1.258 1.63 1.64.678.362 2.319.362 3.051.012 1.05-.525 1.455-1.247 1.029-1.86-.307-.437-.744-.426-1.477.033-.58.361-.711.394-1.214.35-.678-.065-1.061-.328-1.39-.973-.317-.612-.251-1.17.197-1.815.536-.744.361-1.487-.393-1.63-.296-.054-.416 0-.788.328zm-.679-32.555c-.405.153-.81.536-.995.952-.186.404-.208.776-.208 4.166 0 3.38.022 3.762.208 4.156.11.24.295.525.404.623.307.262.963.525 1.346.525.208 0 1.761-.722 4.146-1.903 4.2-2.1 4.276-2.154 4.375-3.138.12-1.323.022-1.411-4.364-3.61-3.293-1.64-3.763-1.847-4.223-1.836-.295 0-.601.033-.689.065zm4.157 3.369c1.87.929 3.39 1.727 3.39 1.782 0 .12-6.858 3.521-6.934 3.445-.12-.12-.077-6.922.043-6.922.066 0 1.641.765 3.5 1.695z"/></svg><svg viewBox="0 0 36 36" id="twitter" xmlns="http://www.w3.org/2000/svg"><g clip-path="url(#ga)"><path fill-rule="evenodd" clip-rule="evenodd" d="M35.865 6.554c-1.144.517-2.403.83-3.637 1.038 1.086-.182 2.695-2.776 3.006-3.793.093-.186-.041-.252-.2-.173a18.572 18.572 0 01-4.32 1.652c-.284.071-.455-.282-.675-.464-5.383-4.58-13.393.012-12.347 7.107.023.173.008.197-.148.173C11.61 11.211 6.693 9.09 2.7 4.54c-.173-.198-.268-.197-.41.015-2.101 3.15-.585 7.528 2.196 9.695-.119.024-1.57-.133-2.865-.802-.173-.11-.26-.046-.275.15-.176 3.083 2.633 6.684 5.69 7.208-.575.126-1.165.216-2.81.088-.204-.04-.283.062-.204.26 1.236 3.368 3.903 4.37 5.902 4.941.267.047.535.047.803.11-1.46 2.17-7.771 3.206-10.2 2.967-.168-.024-.802-.113-.393.22 14.422 9.508 32.382-.667 32.382-18.753 0-.233.275-.361.44-.484.75-.565 3.043-2.633 3.043-3.6 0-.096.011-.066-.135 0z"/></g><defs><clipPath id="ga"><path d="M0 0h36v36H0z"/></clipPath></defs></svg><svg viewBox="0 0 45 26" id="vk" xmlns="http://www.w3.org/2000/svg"><path fill-rule="evenodd" clip-rule="evenodd" d="M38.729 16.192c1.493 1.458 3.068 2.829 4.407 4.433.591.713 1.151 1.449 1.58 2.276.606 1.176.057 2.47-.998 2.54l-6.556-.002c-1.69.14-3.04-.54-4.173-1.697-.908-.924-1.749-1.908-2.621-2.864-.358-.39-.733-.758-1.18-1.048-.895-.581-1.672-.403-2.183.53-.521.95-.64 2-.69 3.059-.07 1.543-.537 1.95-2.088 2.02-3.314.156-6.459-.345-9.38-2.017-2.576-1.474-4.574-3.554-6.313-5.91C5.15 12.926 2.557 7.886.227 2.705-.297 1.538.087.91 1.374.889 3.513.847 5.651.85 7.793.886c.869.013 1.444.511 1.78 1.332 1.157 2.845 2.573 5.552 4.35 8.061.473.668.956 1.336 1.643 1.806.76.521 1.339.349 1.697-.498.227-.537.326-1.116.377-1.69.17-1.98.192-3.955-.105-5.927-.183-1.23-.876-2.027-2.104-2.26-.626-.118-.533-.352-.23-.71.527-.616 1.023-1 2.01-1h7.41c1.166.23 1.425.754 1.585 1.928l.006 8.23c-.012.454.227 1.802 1.046 2.103.655.214 1.086-.31 1.48-.725 1.773-1.883 3.04-4.108 4.17-6.412.502-1.013.934-2.065 1.352-3.116.31-.78.796-1.164 1.675-1.147l7.13.006c.212 0 .426.003.63.038 1.202.205 1.532.722 1.16 1.895-.584 1.841-1.722 3.375-2.834 4.917-1.19 1.645-2.461 3.234-3.64 4.89-1.084 1.51-.998 2.273.348 3.585z"/></svg></svg>