<svg xmlns="http://www.w3.org/2000/svg" xmlns:xlink="http://www.w3.org/1999/xlink">
   <!-- <symbol viewBox="" id="logo">
  </symbol> -->
  <symbol viewbox="0 0 24 24" id="facebook">
    <g clip-path="url(#clip0_51_12)">
    <path d="M15.402 21V14.034H17.735L18.084 11.326H15.402V9.598C15.402 8.814 15.62 8.279 16.744 8.279H18.178V5.857C17.4838 5.78334 16.7861 5.74762 16.088 5.75C14.021 5.75 12.606 7.012 12.606 9.33V11.326H10.268V14.034H12.606V21H4C3.73478 21 3.48043 20.8946 3.29289 20.7071C3.10536 20.5196 3 20.2652 3 20V4C3 3.73478 3.10536 3.48043 3.29289 3.29289C3.48043 3.10536 3.73478 3 4 3H20C20.2652 3 20.5196 3.10536 20.7071 3.29289C20.8946 3.48043 21 3.73478 21 4V20C21 20.2652 20.8946 20.5196 20.7071 20.7071C20.5196 20.8946 20.2652 21 20 21H15.402V21Z"/>
    </g>
    <defs>
    <clippath id="clip0_51_12">
    <rect width="24" height="24"/>
    </clippath>
    </defs>
  </symbol>
  <symbol viewbox="0 0 24 24" id="twitter">
    <g clip-path="url(#clip0_51_15)">
    <path d="M22.1621 5.65593C21.3986 5.99362 20.589 6.2154 19.7601 6.31393C20.6338 5.79136 21.2878 4.96894 21.6001 3.99993C20.7801 4.48793 19.8811 4.82993 18.9441 5.01493C18.3147 4.34151 17.4804 3.89489 16.571 3.74451C15.6616 3.59413 14.728 3.74842 13.9153 4.18338C13.1026 4.61834 12.4564 5.30961 12.0772 6.14972C11.6979 6.98983 11.6068 7.93171 11.8181 8.82893C10.1552 8.74558 8.52838 8.31345 7.04334 7.56059C5.55829 6.80773 4.24818 5.75097 3.19805 4.45893C2.82634 5.09738 2.63101 5.82315 2.63205 6.56193C2.63205 8.01193 3.37005 9.29293 4.49205 10.0429C3.82806 10.022 3.17869 9.84271 2.59805 9.51993V9.57193C2.59825 10.5376 2.93242 11.4735 3.5439 12.221C4.15538 12.9684 5.00653 13.4814 5.95305 13.6729C5.33667 13.84 4.69036 13.8646 4.06305 13.7449C4.32992 14.5762 4.85006 15.3031 5.55064 15.824C6.25123 16.3449 7.09718 16.6337 7.97005 16.6499C7.10253 17.3313 6.10923 17.8349 5.04693 18.1321C3.98464 18.4293 2.87418 18.5142 1.77905 18.3819C3.69075 19.6114 5.91615 20.264 8.18905 20.2619C15.8821 20.2619 20.0891 13.8889 20.0891 8.36193C20.0891 8.18193 20.0841 7.99993 20.0761 7.82193C20.8949 7.23009 21.6017 6.49695 22.1631 5.65693L22.1621 5.65593Z"/>
    </g>
    <defs>
    <clippath id="clip0_51_15">
    <rect width="24" height="24"/>
    </clippath>
    </defs>
  </symbol>
  <symbol viewbox="0 0 24 24" id="instagram">
    <g clip-path="url(#clip0_51_18)">
    <path d="M12 2C14.717 2 15.056 2.01 16.122 2.06C17.187 2.11 17.912 2.277 18.55 2.525C19.21 2.779 19.766 3.123 20.322 3.678C20.8305 4.1779 21.224 4.78259 21.475 5.45C21.722 6.087 21.89 6.813 21.94 7.878C21.987 8.944 22 9.283 22 12C22 14.717 21.99 15.056 21.94 16.122C21.89 17.187 21.722 17.912 21.475 18.55C21.2247 19.2178 20.8311 19.8226 20.322 20.322C19.822 20.8303 19.2173 21.2238 18.55 21.475C17.913 21.722 17.187 21.89 16.122 21.94C15.056 21.987 14.717 22 12 22C9.283 22 8.944 21.99 7.878 21.94C6.813 21.89 6.088 21.722 5.45 21.475C4.78233 21.2245 4.17753 20.8309 3.678 20.322C3.16941 19.8222 2.77593 19.2175 2.525 18.55C2.277 17.913 2.11 17.187 2.06 16.122C2.013 15.056 2 14.717 2 12C2 9.283 2.01 8.944 2.06 7.878C2.11 6.812 2.277 6.088 2.525 5.45C2.77524 4.78218 3.1688 4.17732 3.678 3.678C4.17767 3.16923 4.78243 2.77573 5.45 2.525C6.088 2.277 6.812 2.11 7.878 2.06C8.944 2.013 9.283 2 12 2ZM12 7C10.6739 7 9.40215 7.52678 8.46447 8.46447C7.52678 9.40215 7 10.6739 7 12C7 13.3261 7.52678 14.5979 8.46447 15.5355C9.40215 16.4732 10.6739 17 12 17C13.3261 17 14.5979 16.4732 15.5355 15.5355C16.4732 14.5979 17 13.3261 17 12C17 10.6739 16.4732 9.40215 15.5355 8.46447C14.5979 7.52678 13.3261 7 12 7V7ZM18.5 6.75C18.5 6.41848 18.3683 6.10054 18.1339 5.86612C17.8995 5.6317 17.5815 5.5 17.25 5.5C16.9185 5.5 16.6005 5.6317 16.3661 5.86612C16.1317 6.10054 16 6.41848 16 6.75C16 7.08152 16.1317 7.39946 16.3661 7.63388C16.6005 7.8683 16.9185 8 17.25 8C17.5815 8 17.8995 7.8683 18.1339 7.63388C18.3683 7.39946 18.5 7.08152 18.5 6.75ZM12 9C12.7956 9 13.5587 9.31607 14.1213 9.87868C14.6839 10.4413 15 11.2044 15 12C15 12.7956 14.6839 13.5587 14.1213 14.1213C13.5587 14.6839 12.7956 15 12 15C11.2044 15 10.4413 14.6839 9.87868 14.1213C9.31607 13.5587 9 12.7956 9 12C9 11.2044 9.31607 10.4413 9.87868 9.87868C10.4413 9.31607 11.2044 9 12 9V9Z"/>
    </g>
    <defs>
    <clippath id="clip0_51_18">
    <rect width="24" height="24"/>
    </clippath>
    </defs>
  </symbol>
  <symbol viewbox="0 0 24 24" id="youtube">
    <g clip-path="url(#clip0_51_21)">
    <path d="M21.543 6.498C22 8.28 22 12 22 12C22 12 22 15.72 21.543 17.502C21.289 18.487 20.546 19.262 19.605 19.524C17.896 20 12 20 12 20C12 20 6.107 20 4.395 19.524C3.45 19.258 2.708 18.484 2.457 17.502C2 15.72 2 12 2 12C2 12 2 8.28 2.457 6.498C2.711 5.513 3.454 4.738 4.395 4.476C6.107 4 12 4 12 4C12 4 17.896 4 19.605 4.476C20.55 4.742 21.292 5.516 21.543 6.498ZM10 15.5L16 12L10 8.5V15.5Z"/>
    </g>
    <defs>
    <clippath id="clip0_51_21">
    <rect width="24" height="24"/>
    </clippath>
    </defs>
  </symbol>



  <symbol viewBox="0 0 23 19" id="telegram">
    <path fill-rule="evenodd" clip-rule="evenodd" d="M2.05321 7.7889L13.7168 2.7649C19.2711 0.454701 20.4251 0.0534209 21.1774 0.0401809C21.3429 0.0372609 21.7128 0.0782604 21.9524 0.2727C22.1548 0.436861 22.2104 0.658701 22.2371 0.814301C22.2637 0.969901 22.2969 1.32458 22.2705 1.60166C21.9695 4.76406 20.6671 12.4386 20.0046 15.9806C19.7242 17.4794 19.1726 17.9819 18.6378 18.0311C17.4763 18.138 16.5944 17.2635 15.4694 16.5261L11.0061 13.528C9.03145 12.2268 10.3115 11.5116 11.4369 10.3428C11.7314 10.0368 16.8487 5.38226 16.9477 4.96002C16.9597 4.90722 16.9716 4.71042 16.8547 4.60642C16.7377 4.50242 16.565 4.53842 16.4405 4.5663C16.264 4.60638 13.452 6.46502 8.00445 10.1423C7.20625 10.6904 6.48325 10.9575 5.83553 10.9435C5.12141 10.9281 3.74777 10.5397 2.72661 10.2078C1.47408 9.80066 0.478605 9.58538 0.565325 8.89394C0.610445 8.53382 1.1064 8.16554 2.05317 7.78898L2.05321 7.7889Z"/>
  </symbol>
  <symbol viewBox="0 0 23 23" id="whatsapp">
    <path d="M16.875 13.751C16.625 13.626 15.3125 12.876 15.0625 12.8135C14.8125 12.6885 14.625 12.6885 14.4375 12.9385C14.25 13.1885 13.6875 13.8135 13.5625 13.9385C13.375 14.126 13.25 14.126 13 14.001C12.75 13.876 11.875 13.5635 10.875 12.5635C10.125 11.8135 9.5625 10.9385 9.4375 10.626C9.3125 10.376 9.4375 10.1885 9.5625 10.0635C9.6875 9.93848 9.8125 9.75098 10 9.62598C10.1875 9.50098 10.1875 9.37598 10.3125 9.18848C10.4375 9.00098 10.375 8.87598 10.3125 8.68848C10.25 8.50098 9.75 7.18848 9.5625 6.62598C9.375 6.06348 9.125 6.18848 9 6.12598C8.8125 6.12598 8.6875 6.06348 8.5 6.06348C8.25 6.06348 7.9375 6.18848 7.75 6.37598C7.5 6.62598 6.75 7.25098 6.75 8.56348C6.75 9.87598 7.625 11.251 7.75 11.376C7.875 11.5635 9.5 14.4385 12.1875 15.626C14.875 16.8135 14.875 16.4385 15.375 16.4385C15.875 16.4385 17 15.8135 17.25 15.251C17.5 14.626 17.5 14.0635 17.4375 14.001C17.3125 14.001 17.125 13.9385 16.875 13.751ZM11.875 20.1885C10.125 20.1885 8.5 19.6885 7.0625 18.751L3.6875 19.8135L4.8125 16.5635C3.75 15.0635 3.125 13.251 3.125 11.376C3.125 6.50098 7.0625 2.56348 11.9375 2.56348C16.8125 2.56348 20.6875 6.50098 20.6875 11.376C20.6875 16.251 16.75 20.1885 11.875 20.1885ZM11.875 0.813477C6.0625 0.813477 1.3125 5.56348 1.3125 11.376C1.3125 13.3135 1.8125 15.1885 2.8125 16.8135L0.875 22.501L6.75 20.626C8.3125 21.501 10.0625 21.9385 11.875 21.9385C17.6875 21.9385 22.4375 17.1885 22.4375 11.376C22.4375 5.56348 17.75 0.813477 11.875 0.813477Z" fill="white"/>
  </symbol>
  <symbol viewBox="0 0 45 45" id="vk">
    <path d="M22.5 0C10.074 0 0 10.0736 0 22.5C0 34.9264 10.074 45 22.5 45C34.926 45 45 34.9264 45 22.5C45 10.0736 34.926 0 22.5 0ZM33.9132 24.9335C34.9619 25.9577 36.0714 26.9217 37.0128 28.0519C37.4299 28.5519 37.823 29.0688 38.1222 29.6503C38.5495 30.4794 38.1637 31.3886 37.4216 31.4379L32.812 31.4369C31.6215 31.5354 30.6741 31.0553 29.8754 30.2414C29.2378 29.5927 28.6462 28.8999 28.0321 28.2292C27.7812 27.9539 27.517 27.6947 27.2021 27.4907C26.5737 27.0819 26.0277 27.2072 25.6677 27.8636C25.3008 28.5316 25.217 29.2719 25.182 30.0153C25.1319 31.1022 24.8041 31.3863 23.7135 31.4374C21.3832 31.5465 19.1721 31.1929 17.117 30.0181C15.3041 28.9818 13.901 27.5193 12.6783 25.8634C10.2973 22.6353 8.47381 19.0924 6.8354 15.4478C6.46665 14.627 6.73642 14.1878 7.64194 14.1707C9.14639 14.1417 10.6508 14.1454 12.1553 14.1694C12.7676 14.179 13.1727 14.5294 13.4079 15.1071C14.2209 17.1074 15.2176 19.0105 16.4665 20.7755C16.7994 21.2455 17.1391 21.7142 17.623 22.0461C18.157 22.4125 18.5639 22.2915 18.8158 21.6953C18.9769 21.3164 19.0464 20.9113 19.0814 20.5053C19.2011 19.1145 19.2153 17.7242 19.0082 16.339C18.8793 15.4722 18.3918 14.9124 17.5277 14.7485C17.0876 14.6652 17.152 14.5022 17.3661 14.2508C17.7376 13.8163 18.0856 13.5474 18.7812 13.5474L23.9893 13.5465C24.8101 13.7076 24.9942 14.0759 25.1056 14.9027L25.1102 20.6903C25.1006 21.0103 25.2709 21.9586 25.8454 22.1681C26.3058 22.32 26.6096 21.9508 26.8849 21.6594C28.1339 20.334 29.0237 18.7697 29.8206 17.1506C30.1723 16.4366 30.4757 15.6978 30.7703 14.9575C30.9895 14.4101 31.3301 14.1408 31.9479 14.15L36.9631 14.156C37.1108 14.156 37.2609 14.1574 37.4073 14.1827C38.2525 14.3273 38.4841 14.6909 38.2226 15.5154C37.811 16.8109 37.0114 17.89 36.2297 18.9718C35.3919 20.1301 34.4983 21.2478 33.6687 22.4111C32.9064 23.4746 32.9667 24.01 33.9132 24.9335Z"/>
  </symbol>
  <symbol viewBox="0 0 45 45" id="ok">
    <path d="M19.279 14.9859C19.279 16.8409 20.7828 18.3449 22.6379 18.3449C24.4929 18.3449 25.9967 16.8409 25.9967 14.9859C25.9967 13.1309 24.4929 11.6271 22.6379 11.6271C20.7828 11.6271 19.279 13.1309 19.279 14.9859Z"/>
    <path fill-rule="evenodd" clip-rule="evenodd" d="M22.5 45C34.9264 45 45 34.9264 45 22.5C45 10.0736 34.9264 0 22.5 0C10.0736 0 0 10.0736 0 22.5C0 34.9264 10.0736 45 22.5 45ZM14.5125 14.9858C14.5125 10.4984 18.1503 6.86047 22.6379 6.86047C27.1254 6.86047 30.7632 10.4984 30.7632 14.9858C30.7632 19.4734 27.1254 23.1115 22.6379 23.1115C18.1503 23.1115 14.5125 19.4734 14.5125 14.9858ZM30.8117 27.291C30.7086 27.3737 28.7593 28.9142 25.5064 29.5769L30.4165 34.4432C31.28 35.3053 31.2811 36.7042 30.419 37.5677C29.5569 38.431 28.1583 38.4324 27.2945 37.5701L22.5276 32.928L18.1979 37.5402C17.7644 37.9899 17.1862 38.216 16.6074 38.216C16.0553 38.216 15.5027 38.0106 15.074 37.5972C14.1956 36.7502 14.1701 35.3516 15.0171 34.4733L19.6777 29.6025C16.3336 28.9555 14.3039 27.3749 14.1993 27.291C13.2475 26.5277 13.0946 25.1372 13.8579 24.1852C14.6212 23.2334 16.0115 23.0805 16.9636 23.8437C16.9837 23.86 19.1067 25.4549 22.5275 25.4572C25.9483 25.4549 28.0273 23.86 28.0474 23.8437C28.9995 23.0805 30.3899 23.2334 31.1531 24.1852C31.9165 25.1372 31.7636 26.5277 30.8117 27.291Z"/>
  </symbol>
</svg>
